<svg width="24" height="24" viewBox="0 0 24 24" fill="none" xmlns="http://www.w3.org/2000/svg">
<g id="Iconly/Light-Outline/Filter">
<g id="Group 10">
<path id="Fill 1" fill-rule="evenodd" clip-rule="evenodd" d="M10.0801 18.5928H3.77911C3.36511 18.5928 3.02911 18.2568 3.02911 17.8428C3.02911 17.4288 3.36511 17.0928 3.77911 17.0928H10.0801C10.4941 17.0928 10.8301 17.4288 10.8301 17.8428C10.8301 18.2568 10.4941 18.5928 10.0801 18.5928Z" fill="#737373"/>
<path id="Fill 3" fill-rule="evenodd" clip-rule="evenodd" d="M19.1909 8.90039H12.8909C12.4769 8.90039 12.1409 8.56439 12.1409 8.15039C12.1409 7.73639 12.4769 7.40039 12.8909 7.40039H19.1909C19.6049 7.40039 19.9409 7.73639 19.9409 8.15039C19.9409 8.56439 19.6049 8.90039 19.1909 8.90039Z" fill="#737373"/>
<g id="Group 7">
<mask id="mask0" style="mask-type:alpha" maskUnits="userSpaceOnUse" x="3" y="5" width="7" height="7">
<path id="Clip 6" fill-rule="evenodd" clip-rule="evenodd" d="M3 5.00037H9.2258V11.192H3V5.00037Z" fill="white"/>
</mask>
<g mask="url(#mask0)">
<path id="Fill 5" fill-rule="evenodd" clip-rule="evenodd" d="M6.11282 6.5C5.22382 6.5 4.49982 7.216 4.49982 8.097C4.49982 8.977 5.22382 9.692 6.11282 9.692C7.00282 9.692 7.72582 8.977 7.72582 8.097C7.72582 7.216 7.00282 6.5 6.11282 6.5ZM6.11282 11.192C4.39682 11.192 2.99982 9.804 2.99982 8.097C2.99982 6.39 4.39682 5 6.11282 5C7.82982 5 9.22582 6.39 9.22582 8.097C9.22582 9.804 7.82982 11.192 6.11282 11.192Z" fill="#737373"/>
</g>
</g>
<path id="Fill 8" fill-rule="evenodd" clip-rule="evenodd" d="M17.3877 16.208C16.4977 16.208 15.7737 16.924 15.7737 17.804C15.7737 18.685 16.4977 19.4 17.3877 19.4C18.2767 19.4 18.9997 18.685 18.9997 17.804C18.9997 16.924 18.2767 16.208 17.3877 16.208ZM17.3877 20.9C15.6707 20.9 14.2737 19.511 14.2737 17.804C14.2737 16.097 15.6707 14.708 17.3877 14.708C19.1037 14.708 20.4997 16.097 20.4997 17.804C20.4997 19.511 19.1037 20.9 17.3877 20.9Z" fill="#737373"/>
</g>
</g>
</svg>
