<svg xmlns="http://www.w3.org/2000/svg" viewBox="0 0 16 16">
	<path fill="000000" d="M13.0241 12.97498H7.14666v-.71271q.1855-.0195.4491-.0488.26361-.0293.4003-.0976.20502-.1074.29289-.31242.0879-.20503.0879-.60532V6.62895q0-.99584-.371-1.49377-.36124-.50768-1.07395-.50768-.39053 0-.73224.11716-.33195.11716-.65414.34171-.28313.19526-.45887.40029-.16597.20503-.28313.36124v5.24283q0 .34172.0976.57603.0976.22456.32219.34171.15621.0879.39053.15622.23431.0683.45887.0976v.71271H.13668v-.71271q.24408-.0195.48816-.0488.25385-.039.42959-.0976.31242-.1074.42958-.33195.11715-.22455.11715-.58579V5.51597q0-.30266-.15621-.59556-.15621-.29289-.41005-.47839-.17574-.11716-.44911-.19527Q.32219 4.16865 0 4.13936v-.71271l4.65704-.25385.14645.14645v1.41566h.039q.27337-.24408.6639-.58579.39053-.34171.72248-.5565.36124-.23432.94703-.40029.58579-.16597 1.24969-.16597 1.5914 0 2.38222.90797.80058.89822.80058 2.39199v4.78396q0 .36124.10739.57603.1074.21479.40029.34171.15621.0683.38077.13669.23431.0683.52721.0976z" />
	<path fill="000000" d="M15.99427 11.21552c-.0387.51273-.2638.94285-.67517 1.29035-.40488.348-.86693.50238-1.38616.46315-.52571-.0397-.11121-.94041-.46619-1.33929-.34799-.40488-1.35721-.18555-1.31798-.70477.0392-.51922.26129-.95283.66616-1.30083.41187-.35399.88065-.51113 1.40637-.47141.51922.0392.95258.26454 1.30009.67591.35399.41186.51162.87416.47288 1.38689z" />
</svg>