<svg width="24" height="24" viewBox="0 0 24 24" fill="none" xmlns="http://www.w3.org/2000/svg">
<g id="Iconly/Bold/Discount">
<g id="Discount">
<path id="Discount_2" fill-rule="evenodd" clip-rule="evenodd" d="M20.3991 9.14611L21.1193 9.86611C21.6895 10.4261 21.9996 11.1861 21.9996 11.9861C22.0096 12.7861 21.6995 13.5471 21.1393 14.1161C21.1327 14.1234 21.126 14.1299 21.1193 14.1363C21.116 14.1396 21.1127 14.1428 21.1093 14.1461L20.3991 14.8561C20.119 15.1361 19.9589 15.5161 19.9589 15.9171V16.9461C19.9589 18.6061 18.6084 19.9571 16.9478 19.9571H15.9174C15.5173 19.9571 15.1372 20.1161 14.8571 20.3961L14.1368 21.1161C13.5466 21.7071 12.7763 21.9961 12.006 21.9961C11.2357 21.9961 10.4655 21.7071 9.87525 21.1271L9.14498 20.3961C8.86488 20.1161 8.48474 19.9571 8.0846 19.9571H7.05423C5.39362 19.9571 4.04313 18.6061 4.04313 16.9461V15.9171C4.04313 15.5161 3.88308 15.1361 3.60298 14.8461L2.88271 14.1361C1.71229 12.9671 1.70229 11.0561 2.87271 9.87711L3.60298 9.14611C3.88308 8.86611 4.04313 8.48611 4.04313 8.07611V7.05611C4.04313 5.39611 5.39362 4.04711 7.05423 4.04711H8.0846C8.48474 4.04711 8.86488 3.88611 9.14498 3.60611L9.86524 2.88611C11.0357 1.70711 12.9464 1.70711 14.1268 2.87711L14.8571 3.60611C15.1372 3.88611 15.5173 4.04711 15.9174 4.04711H16.9478C18.6084 4.04711 19.9589 5.39611 19.9589 7.05611V8.08711C19.9589 8.48611 20.119 8.86611 20.3991 9.14611ZM9.42509 15.4461C9.66517 15.4461 9.88525 15.3561 10.0453 15.1861L15.1872 10.0471C15.5273 9.70711 15.5273 9.14611 15.1872 8.80611C14.8471 8.46711 14.2969 8.46711 13.9567 8.80611L8.81486 13.9461C8.47474 14.2861 8.47474 14.8461 8.81486 15.1861C8.97492 15.3561 9.195 15.4461 9.42509 15.4461ZM13.6966 14.5661C13.6966 15.0561 14.0868 15.4461 14.577 15.4461C15.0571 15.4461 15.4473 15.0561 15.4473 14.5661C15.4473 14.0871 15.0571 13.6961 14.577 13.6961C14.0868 13.6961 13.6966 14.0871 13.6966 14.5661ZM9.43509 8.55611C9.91526 8.55611 10.3054 8.94611 10.3054 9.42611C10.3054 9.91711 9.91526 10.3061 9.43509 10.3061C8.95492 10.3061 8.55477 9.91711 8.55477 9.42611C8.55477 8.94611 8.95492 8.55611 9.43509 8.55611Z" fill="#CE2829"/>
</g>
</g>
</svg>
