<svg xmlns="http://www.w3.org/2000/svg" viewBox="0 0 48 48">
	<path fill="#2196F3" d="M18.7 29.29003125c-.45.42-1.08.63-1.89.63-.37996875 0-.73003125-.04996875-1.05-.16996875-.31003125-.10996875-.58003125-.27-.79996875-.46996875-.22003125-.19996875-.39-.45-.51-.73003125-.12-.28996875-.18-.6-.18-.94003125h-2.6000625c0 .72.13996875 1.35.42 1.90003125C12.37 30.06009375 12.7399375 30.52003125 13.21 30.88003125c.46996875.37003125 1.00996875.64003125 1.63003125.82996875.61996875.19996875 1.26.28996875 1.93996875.28996875.73996875 0 1.42996875-.10003125 2.07-.3C19.49003125 31.5 20.03996875 31.2 20.51003125 30.81 20.98 30.42 21.34 29.94 21.61 29.37c.25996875-.57.40003125-1.21996875.40003125-1.95 0-.39-.04996875-.76003125-.13996875-1.12003125-.10003125-.36-.25003125-.70003125-.45-1.02-.21-.31996875-.48-.6-.81-.85996875-.33-.25003125-.73996875-.46003125-1.21003125-.63.40003125-.18.75-.40003125 1.05-.66.3-.25996875.55003125-.54.75-.82996875.19996875-.3.34996875-.6.45-.91996875.10003125-.31996875.15-.64003125.15-.94996875 0-.73003125-.12-1.36996875-.36-1.92s-.58003125-1.00996875-1.02-1.38c-.43996875-.37003125-.96-.64996875-1.57996875-.84-.64003125-.19996875-1.32-.28996875-2.05996875-.28996875-.72 0-1.39003125.10996875-1.99996875.31996875-.6099375.21-1.12996875.51-1.57003125.88996875-.43996875.37996875-.78.82996875-1.03003125 1.35-.25003125.52003125-.37003125 1.09003125-.37003125 1.69996875H14.41c0-.34003125.06-.64003125.18-.9.12-.27.28996875-.49996875.49996875-.67996875.21-.19003125.46996875-.34003125.76003125-.43996875.28996875-.10003125.61003125-.16003125.94996875-.16003125.79996875 0 1.39003125.21 1.78003125.61996875.39.40996875.58003125.99.58003125 1.72996875 0 .36-.04996875.67996875-.16003125.97003125-.10996875.28996875-.27.54-.49003125.75-.22003125.21-.49996875.37003125-.82003125.49003125-.33.12-.72.18-1.15996875.18H14.9899375v2.05003125h1.54003125c.43996875 0 .84.04996875 1.18996875.15.34996875.10003125.64996875.25003125.9.46996875.25003125.21.43996875.48.58003125.79996875.13003125.31996875.19996875.70003125.19996875 1.14 0 .81-.22996875 1.42996875-.6999375 1.86zm-3.67003125 13.68C8.5 39.87 3.80996875 33.52003125 3.1 25.99996875h-3C1.12 38.32003125 11.4199375 48 23.99996875 48c.45 0 .88003125-.04003125 1.32-.07003125l-7.62-7.63003125-2.67 2.67009375zM23.99996875 0c-.45 0-.88003125.04003125-1.32.07003125l7.62 7.63003125 2.65996875-2.65996875c6.54 3.09 11.23003125 9.43996875 11.94 16.96003125h3C46.8799375 9.67996875 36.58 0 23.99996875 0zm9.93 18.07003125c-.63-.66-1.39003125-1.17-2.26996875-1.53-.88996875-.36-1.86-.54-2.92996875-.54h-4.7300625V32.0000625h4.59c1.11 0 2.11003125-.18 3.01996875-.54.91003125-.36 1.68-.87 2.32003125-1.53s1.14-1.45996875 1.48003125-2.38996875c.34996875-.93.52003125-1.98.52003125-3.13996875v-.79003125c0-1.15996875-.18-2.20003125-.52996875-3.13996875-.3500625-.940125-.84009375-1.74009375-1.47009375-2.40009375zm-.78 6.3399375h-.01003125c0 .82996875-.09 1.59-.28996875 2.25C32.6599375 27.33 32.38 27.88996875 31.9999375 28.35c-.3800625.46003125-.85003125.81-1.42003125 1.06003125-.57.24-1.23.37003125-1.99003125.37003125h-1.81003125V18.24h1.95c1.44 0 2.53003125.46003125 3.28996875 1.36996875.75.91996875 1.12996875 2.23996875 1.12996875 3.97996875v.82003125z" />
</svg>