<svg xmlns="http://www.w3.org/2000/svg" viewBox="0 0 64 37">
	<path fill="#FA5252" d="M7.329879 10.955008c-2.8336043.918776-6.1153644 2.34967-6.64051672 5.294145-.34206433 1.918464.76707282 3.92656 2.43736912 4.917526.8154569.484017 1.8162523.82446 2.2428682 1.673952.6627497 1.319943-.5282064 2.833364-1.7857108 3.600975-1.2575044.767612-2.79148927 1.376468-3.36390049 2.73824-.37742816.897619-.22954318 1.943011.14402706 2.842246 1.36986483 3.297515 5.36404453 4.741652 8.91617693 4.565132 3.5521327-.176197 6.9211767-1.566715 10.4056357-2.282485 11.965661-2.458198 24.511449 3.121319 36.456535.564444 1.858849-.397937 3.731201-1.020683 5.166811-2.271827 1.618215-1.410221 2.53703-3.537989 2.675592-5.685783.132293-2.048956-.590736-4.356151-2.416151-5.279449-1.0667-.539573-2.341565-.517609-3.499568-.224001-.739425.18734-1.466151.480948-2.228884.485954-.762572.0049-1.601819-.37888-1.822843-1.112253-.232276-.771326.297217-1.567362.90451-2.09353 1.235321-1.070102 2.887132-1.604668 4.008968-2.794119 1.07956-1.144553 1.533824-2.850805 1.167487-4.38409-.366336-1.5334472-1.542183-2.8462842-3.021354-3.3737442-3.769619-1.344329-7.876481 2.3207612-11.731134 1.246783-.286286-.07978-.587361-.202683-.737979-.459953-.147081-.25081-.113324-.569289-.02893-.847877.472268-1.559448 2.306363-2.552191 2.386574-4.180277.04372-.885022-.477089-1.713035-1.13357-2.304934-4.510813-4.066581-11.046845.77068-15.646068 2.297667-7.563029 2.511008-15.272336 4.608253-22.855941 7.0672582" />
	<path fill="#FFFFFF" d="M25.618731 23.869351c-.000322-.000807-.000161-.0018.000643-.0023l1.085668-.64471c.000804-.000484.0011-.0016.000804-.0024 0 0-.119272-.323485-.199484-.494514-.08021-.170867-.165084-.332529-.254458-.48434-.184535-.313634-.625779-.856275-.625779-.856275-.000482-.000807-.0016-.000969-.0024-.000484l-1.085668.644871c-.000804.000323-.0018.000161-.0021-.000646l-1.428215-2.427352c-.000482-.000807-.0014-.0011-.0023-.000646 0 0-.383536.176843-.574018.269383-.190322.09254-.376303.19267-.557623.300391-.171514.101907-.333384.208174-.485448.319125-.152547.11095-.466481.348356-.466481.348356-.000643.000485-.000804.0016-.000482.0024l1.428215 2.427351c.000482.000808.000161.0018-.000643.0023l-2.15896 1.282152c-.000803.000323-.0016.000162-.0016-.000807l-.620635-8.195016c-.000161-.000807-.000964-.0016-.0018-.0016 0 0-.808223-.04167-1.188223.04054-.38.08237-1.118139.367252-1.118139.367252-.000804.000323-.0014.0013-.0014.0021l.832657 11.22541c.00016.000807.000803.0019.0016.0024l.258316.130331c.000804.000484.0021.000484.0029 0l5.07666-3.015071c.000804-.000323.0018 0 .0021.000646l1.249467 2.123569c.000321.000807.0014.0011.0023.000807 0 0 .383537-.176843.57418-.269382.190161-.0927.376142-.192832.557623-.300391.171032-.101745.333062-.208174.485287-.319125.152225-.110789.46632-.348518.46632-.348518.000643-.000484.000804-.0016.000322-.0024z" />
	<path fill="#FFFFFF" d="M46.28948 22.928664c-.170389-.12597-.345279-.24435-.524831-.355139-.169746-.104814-.33901-.198969-.50747-.282141-.168943-.08366-.52467-.251618-.52467-.251618-.000804-.000484-.0018-.000161-.0023.000646l-1.469205 2.402319c-.000482.000807-.0014.000969-.0022.000484l-2.136777-1.318974c-.000643-.000484-.000643-.0011 0-.0016l6.922302-4.379245c.000643-.000323.000964-.0015.000643-.0023 0 0-.340939-.737411-.590736-1.036671-.249958-.299099-.845677-.821876-.845677-.821876-.000643-.000484-.0018-.000646-.0024-.000161l-9.490196 5.982783c-.000643.000484-.0013.0016-.0013.0024l.0058.290701c0 .000807.000643.0019.0013.0024l5.024713 3.101777c.000643.000484.000804.0013.000482.0021l-1.285338 2.101776c-.000482.000807-.000322.0019.000322.0024 0 0 .334991.258239.50522.384048.170389.12597.345439.24435.524991.355301.169425.10449.338528.198484.507471.282302.168621.08317.524348.251295.524348.251295.000965.000323.0019 0 .0024-.000646l1.285313-2.101766c.000483-.000808.0014-.0011.0021-.000646l1.074738.663443c.000643.000485.0018.000323.0024-.000484 0 0 .229061-.256947.342064-.408112.113004-.151164.215559-.302006.307505-.452201.189839-.310565.461176-.956083.461176-.956083.000321-.000807 0-.0016-.000643-.0021l-1.074738-.663605c-.000643-.000484-.000965-.0014-.000482-.0021l1.469205-2.40248c.000482-.000646.000321-.0018-.000322-.0023 0 0-.334831-.258239-.50522-.384048" />
	<path fill="#FF6B6B" d="M37.540669 20.44612c0 3.074483-2.480609 5.566758-5.540702 5.566758-3.059933 0-5.540703-2.492275-5.540703-5.566758 0-3.074322 2.48077-5.566758 5.540703-5.566758 3.060093 0 5.540702 2.492436 5.540702 5.566758" />
	<path fill="#FFFFFF" d="M26.503614 19.753143c1.643773.234822 4.407132-.944616 5.292995-1.11726 1.800821-.351102 3.650508.06702 5.485889.12807-.126988-.403266-.299146-.786184-.509399-1.143907-.674967.0281-1.386422-.08963-2.067336-.109498-1.292868-.03779-2.578502.303621-3.869602.22497-.596523-.03634-1.939383-.561213-3.160559-.767772-.624653.783115-1.042589 1.739036-1.171988 2.785397" />
	<path fill="#FFFFFF" d="M32.000015 14.879405c-.562927 0-1.106083.08495-1.617894.241927.694095.398099 2.085339.540865 2.408275.584309.580288.07817 1.210727.106106 1.708875-.202845.0069-.0044.01366-.0094.02058-.01389-.756142-.388731-1.612107-.609502-2.519831-.609502" />
	<path fill="#FFFFFF" d="M37.538709 20.523713c-1.596354-.405204-3.286422-.437989-4.895314-.08495-.874129.191701-1.720609.493384-2.589433.708503-1.092099.270674-2.218114.40149-3.342843.392607-.04742-.000161-.0958-.0018-.144992-.004.220059 1.113384.770449 2.106935 1.544433 2.873739 1.326786-.472551 2.60149-1.092389 3.792446-1.846112 1.041946-.659406 2.084695-1.444621 3.310855-1.557348.761286-.06993 1.509551.129523 2.263282.285855.0381-.25081.05803-.507595.06157-.768257" />
	<path fill="#FFFFFF" d="M37.245237 22.239203c-.75148-.111758-2.094983.55217-2.423866.83205-.29352.250003-.540906.555077-.858054.774233-.402344.278265-.888596.399229-1.361507.521808-.9545.247419-1.90225.522131-2.84132.823491-.119272.03828-.24835.09076-.3067.198968.762572.397291 1.62786.62323 2.546193.62323.642657 0 1.259112-.111273 1.83297-.313472.575144-.824621.918494-1.893108 1.828469-2.280709.153832-.06557.694255-.143089 1.182436-.27019.15978-.288278.294163-.592545.401379-.909409" />
	<path fill="#FFFFFF" d="M48.544694 36.999997c-1.376295-7.399627-7.837581-13.000784-15.601863-13.000784S18.717263 29.60037 17.340968 36.999997z" />
	<path fill="#FFA8A8" d="M35.851357 33.132822c-.0733.558953-.935051.905694-1.924916.774556-.989704-.131138-1.732665-.690414-1.659365-1.249206.0733-.558791.935211-.905694 1.924915-.774556.989704.131138 1.732666.690414 1.659366 1.249206" />
	<path fill="#FFFFFF" d="M20.777171 30.294586l-2.098842 4.000365-.577876-.306205c-.309112-.163761-.427581-.548294-.264586-.858697l1.508588-2.875515c.163155-.310727.545727-.429753.855-.265992z" />
	<path fill="#FFFFFF" d="M47.076952 34.211612l-1.251878-3.149581.606489-.243381c.324543-.130169.692809.02859.822369.354655l.782504 1.96869c.129721.32607-.02845.696067-.352995.826236z" />
	<path fill="#FFFFFF" d="M27.631027 25.385395l-3.655973 2.637625-.380964-.533113c-.203824-.285048-.139044-.682339.144991-.887283l2.627852-1.895854c.283874-.204782.679145-.139697.882969.145512z" />
	<path fill="#FFFFFF" d="M44.195799 29.754075l-3.590228-2.727257.393824-.523423c.210736-.280042.607614-.335436.886345-.123709l2.580914 1.960292c.27857.211888.333866.610471.12313.890513z" />
	<path fill="#FFA8A8" d="M27.806046 28.096488c.281303.556692-.501362 1.523595-1.748097 2.159422-1.246734.635989-2.485592.700266-2.766895.143574-.281303-.556692.501362-1.523756 1.748097-2.159584 1.246734-.635988 2.485592-.700104 2.766895-.143412" />
	<path fill="#FA5252" d="M25.199927 28.724381c1.126176-.574457 2.24319-.680563 2.656625-.285856.01591-.124678.000964-.240312-.05047-.342058-.281303-.556692-1.520161-.492414-2.766895.143413-1.246735.635827-2.0294 1.602891-1.748097 2.159583.02717.05378.06591.100131.110271.142444.07153-.557177.779771-1.297656 1.79857-1.817526" />
	<path fill="#FFA8A8" d="M43.054881 30.013049c-.221024.355462-1.045643.238213-1.841489-.261792-.795846-.500006-1.261845-1.193327-1.04066-1.548628.221184-.355462 1.045643-.238375 1.841489.261631.796007.500005 1.261844 1.193488 1.04066 1.548789" />
	<path fill="#FA5252" d="M41.792715 28.724986c.71885.451716 1.166523 1.060088 1.083901 1.435738.077-.03391.137918-.08269.178265-.147611.221185-.355462-.244653-1.048945-1.04066-1.548789-.795846-.500005-1.620304-.617255-1.841489-.261631-.02138.0344-.0344.07268-.04324.112889.343672-.15181 1.012851.000969 1.663223.409404" />
	<path fill="#FA5252" d="M34.19204 31.883575c-.989865-.131139-1.851616.215764-1.924916.774556-.0053.04054-.0051.08107-.0021.121448.214755-.451071.991312-.711732 1.870102-.595452.917851.12161 1.622395.611602 1.661295 1.12808.02717-.05701.04662-.116603.05497-.179427.0733-.558791-.669661-1.118067-1.659365-1.249205" />
	<path fill="#FFFFFF" d="M10.117092 18.091134c0 .289893-.2338829.524876-.5224193.524876s-.5224197-.234983-.5224197-.524876c0-.289894.2338833-.524877.5224197-.524877s.5224193.234983.5224193.524877" />
	<path fill="#FFFFFF" d="M39.955211 3.7174388c-.129399 0-.234365-.105459-.234365-.235467s.104966-.235468.234365-.235468.234366.10546.234366.235468-.104967.235467-.234366.235467" />
	<path fill="#FFFFFF" d="M43.277401 8.0847968c-.1294 0-.234366-.10546-.234366-.235468 0-.130007.104966-.235467.234366-.235467.129399 0 .234365.10546.234365.235467 0 .130008-.104966.235468-.234365.235468" />
	<path fill="#FFFFFF" d="M4.1293592 15.749225c-.1293993 0-.2343655-.105459-.2343655-.235467s.1049662-.235468.2343655-.235468.2343655.10546.2343655.235468-.1049662.235467-.2343655.235467" />
	<path fill="#FFFFFF" d="M37.645218 11.987877c0 .167476-.135025.303137-.301718.303137-.166692 0-.301717-.135661-.301717-.303137 0-.167476.135025-.303136.301717-.303136.166693 0 .301718.13566.301718.303136" />
	<path fill="#FFFFFF" d="M50.323634 25.917364c0 .167314-.135025.303136-.301717.303136s-.301717-.135822-.301717-.303136c0-.167476.135025-.303137.301717-.303137s.301717.135661.301717.303137" />
	<path fill="#FFFFFF" d="M59.22517 26.421742c0 .167314-.135025.303136-.301717.303136s-.301718-.135822-.301718-.303136c0-.167476.135026-.303137.301718-.303137.166692 0 .301717.135661.301717.303137" />
	<path fill="#FFFFFF" d="M11.744952 30.843109c0 .167314-.135025.303136-.301718.303136-.166692 0-.301717-.135822-.301717-.303136 0-.167476.135025-.303137.301717-.303137.166693 0 .301718.135661.301718.303137" />
	<path fill="#FFFFFF" d="M29.165945 8.8988318c0 .167476-.135026.303136-.301718.303136-.166692 0-.301717-.13566-.301717-.303136s.135025-.303137.301717-.303137.301718.135661.301718.303137" />
	<path fill="#FFFFFF" d="M25.507512 16.265584l.402183.230946-.410542.215603-.229704.404236-.214754-.412634-.402183-.230784.410541-.215765.229865-.404074z" />
	<path fill="#FFFFFF" d="M44.455272 12.012633l.262656.150842-.268122.140828-.149974.26373-.14017-.269221-.262656-.150841.268122-.140829.149974-.26373z" />
	<path fill="#FFFFFF" d="M13.457958 24.676772l.262657.150841-.268122.140828-.149975.26373-.140169-.269221-.262657-.150841.268122-.140829.149975-.26373z" />
	<path fill="#FFFFFF" d="M13.608029 13.915474l.262657.150842-.268122.140666-.149975.263892-.140169-.269383-.262656-.15068.268121-.140828.149975-.26373z" />
	<path fill="#FFFFFF" d="M5.5760599 29.974724l.2626566.150842-.2681219.140667-.1499746.26373-.1401692-.269221-.2626566-.15068.2679611-.140829.1501354-.263891z" />
	<path fill="#FFFFFF" d="M53.291365 22.528677l.262656.150841-.268121.140829-.149975.26373-.140169-.269221-.262657-.150842.267961-.140828.150136-.26373z" />
	<path fill="#FFFFFF" d="M56.532072 33.150812l.262656.150842-.268122.140828-.149974.26373-.14017-.269221-.262656-.15068.267961-.140828.150135-.263892z" />
</svg>