<svg xmlns="http://www.w3.org/2000/svg" viewBox="0 0 48 48">
	<path fill="#4583FF" d="M35.14609546 45.93232856l1.66369598 1.61536146.00076242.00076175c.29930847.2904896.70062094.45265847 1.11756873.4515425l7.64427354-.01377996c.6421741.00781074 1.26015019-.24436879 1.71432554-.69851456.44821877-.45488943.70173799-1.0667412.70657754-1.70574348l.00670094-7.84285062c-.01600779-.0174811-.00186138-.06620613-.00595644-.10005332-.06254217-.39649405-.25538047-.76100147-.54836077-1.03586958l-17.0446019-17.02879692c1.57435003-5.70676592-.25016867-11.81076896-4.6984802-15.72066384C21.2539167-.05617288 14.9617277-1.085719 9.49747885 1.20137614 4.03285638 3.48884314.35440964 8.69236566.0238296 14.60258494c-.01600794.28788633-.0238256.575029-.0238256.86217073-.00261128 4.82711313 2.2511454 9.37824314 6.09302138 12.30508499 3.84187598 2.92684185 8.83147531 3.89352973 13.4897503 2.61329137l1.39267992 1.39070568c.2702708.27077659.64775769.40728132 1.02896709.37157451l3.88654896-.35483706-.32238974 3.52604675c-.03536575.38087256.10088611.7580259.37153049 1.02843018.27064342.27077658.64775768.406909 1.02896708.37231816l3.5302821-.32173352-.32313406 3.5271627c-.03462239.38087256.10163043.75690994.37190217 1.02731518.27064343.27040428.64701338.40690805 1.0278511.3726895l3.54033267-.3180143-.35105478 3.89985317c-.0335045.38235987.1060982.75951321.38083677 1.02768558zm1.596687-5.15442548c.0342488-.38050026-.1023757-.75616534-.37264744-1.02619827-.27027175-.27003293-.64664074-.4065367-1.02710583-.37231816l-3.539961.3180143.32313405-3.52827866c.03462144-.38087256-.10200306-.75728224-.37264648-1.02768653-.27027175-.27040428-.647386-.4065367-1.0285954-.37194586l-3.52990947.32247718.32313406-3.5267904c.03462144-.38087256-.10163138-.7576536-.37264744-1.02805883-.27064342-.27040428-.64775768-.4065367-1.02896708-.37157356l-4.11289204.37529278-1.62386246-1.6220553c-.20921916-.20977794-.51746222-.28602672-.8007637-.19861932-5.7240974 1.76637076-11.93661934-.33661136-15.40696483-5.21579643C.70136927 18.6255523.75609379 12.07223808 4.30796758 7.25181937c3.5518738-4.82041834 9.7986455-6.81925534 15.49221564-4.95729442 5.69394373 1.8615891 9.54922114 7.16367725 9.56150656 13.14940175-.00148672 1.39888874-.2121964 2.78959443-.62504904 4.1259953-.08711302.28305116-.0107968.5906505.19879403.80005614L46.3135953 37.73241086c.03127108.03161528.05993622.06546247.08674.10079697l-.00707334 7.75172401v.00334216c0 .21498542-.08636775.42067088-.23974507.57093749-.15374947.15026565-.36110651.23246556-.5762813.228375l-7.65061972.01413322-.00223008-.00076174-1.55201402-1.5067528zm0 0" />
	<path fill="#4583FF" d="M14.65720715 7.99161975c-1.84089831-1.83927234-4.82579841-1.83927234-6.66669672.00037135-1.84089927 1.83927187-1.84089927 4.82116218 0 6.66043386 1.8408983 1.83927264 4.8257984 1.83964399 6.66669672.00038088 1.83829275-1.84075994 1.83829275-4.82041834 0-6.66117809zM9.1218532 13.52208281c-1.21510496-1.21477494-1.21436065-3.18348426.00111504-4.39788794 1.2154776-1.21403129 3.1862997-1.21403129 4.40177729 0 1.2154776 1.21440368 1.2162219 3.183113.00111504 4.39788794-1.21659454 1.21365898-3.18704496 1.21403128-4.40401118.00076174zm0 0" />
</svg>