<svg xmlns="http://www.w3.org/2000/svg" viewBox="0 0 48 48">
	<path fill="#F8DF1B" d="M0 0h48v48H0z" />
	<path fill="#000000" d="M23.680038 8.0642646c-.55862.230735-.667917.8379323-.21859 1.2751143.230734.242879.412894.303598.910795.303598.886509 0 2.234486.327887 3.242433.7893571 3.461024 1.590857 5.489062 5.391911 4.906154 9.132245-.400751 2.513797-2.015896 4.881866-4.213949 6.144836-.07287.03643.04857-.40075.267167-.98366.546477-1.457273.704349-2.477364.619341-4.080365-.133584-2.853827-1.190106-5.1126-3.278865-7.067775-1.044379-.983659-2.793106-1.943031-4.226092-2.343781-4.128941-1.141531-8.780072.582909-11.172428 4.153229-.5221895.789356-.5707653 1.105099-.27931 1.517992.145726.218592.291454.267167.631484.242879.376462-.03643.510046-.133583.910796-.704348 1.129386-1.639432 2.695955-2.841683 4.517547-3.485312.898652-.315742 1.117242-.34003 2.732387-.34003 1.603001 0 1.845879.02429 2.683811.327886 3.108851 1.105099 5.29476 3.691759 5.804806 6.89776.07287.437182.133583.947227.133583 1.14153 0 .352175 0 .352175-.388607-.182158-1.347977-1.870168-3.801053-3.436737-6.156979-3.946782-1.068666-.218591-3.084561-.218591-4.213948.01215-2.841683.595052-5.379767 2.46522-6.824896 5.039735-1.6030003 2.878116-1.7122958 6.61845-.2550226 9.496565.5221896 1.044379 1.0808106 1.299402 1.6272886.752924.27931-.27931.21859-.655772-.230736-1.639432-.619341-1.347978-.850075-2.562373-.765068-4.043934.194302-3.631039 2.453076-6.59416 5.974819-7.796411.850077-.303598 1.153676-.34003 2.48951-.34003 1.627288-.01215 2.46522.157871 3.740334.752925.813645.376462.886508.510045.291456.510045-.789358 0-2.331638.449326-3.485313 1.020091-2.683812 1.32369-4.71185 3.861774-5.404055 6.752032-.291455 1.238683-.327886 3.303153-.07287 4.517548.789357 3.691758 3.631039 6.727744 7.249934 7.747835.98366.267167 2.574516.437182 3.060274.327887.412894-.109295.631485-.667917.437182-1.105099-.157871-.352175-.267167-.388606-1.445129-.497902-1.202251-.121439-1.78516-.279311-2.975267-.850075-2.246629-1.080812-3.825342-2.926691-4.578267-5.331192-.21859-.704349-.267166-1.14153-.267166-2.440933 0-1.38441.04857-1.700152.327886-2.550228.582909-1.760871 1.736584-3.339585 3.16957-4.371819.425038-.303599.8015-.546477.837932-.546477.03643 0-.09715.364318-.279311.813644-1.785159 4.262524-.230735 9.532995 3.57032 12.156086 4.760425 3.291009 11.111708 2.161622 14.390572-2.574515.667917-.971516.643629-1.651577-.06072-1.821592-.497901-.133583-.716493.01215-1.20225.752924-.607197.910797-1.906599 2.161622-2.768819 2.683812-.376463.218591-1.165819.570766-1.748728.777213-.98366.352174-1.20225.376462-2.647379.388606-1.323691 0-1.724441-.04857-2.489509-.27931-3.461024-1.080812-5.816949-4.007503-6.132691-7.614254l-.07287-.850076.267166.364319c2.210199 2.902403 5.464775 4.456828 8.913656 4.274668 1.54228-.08501 2.513795-.34003 3.910349-1.007947 2.793107-1.335834 4.687562-3.679616 5.51335-6.800609.18216-.716492.255023-1.323689.255023-2.416644 0-1.72444-.255023-2.878115-.98366-4.396108-.534322-1.105099-.862209-1.323689-1.457262-.995803-.437182.242879-.473614.789356-.085 1.542281.692205 1.360122.86222 2.149477.86222 3.91035-.01215 1.457273-.04857 1.748727-.327886 2.562371-1.020092 2.902403-3.254577 4.991161-6.169124 5.768373-1.688007.449326-3.971069.206447-5.707652-.595053l-.789357-.364318.607197-.109296c2.829539-.497901 4.71185-1.48156 6.448434-3.351728 1.117242-1.190106 2.064471-3.04813 2.428789-4.748282.218588-1.044381.218588-3.181715-.01215-4.226094-.8015-3.813199-3.764622-6.8734731-7.529244-7.7964134-1.177962-.291454-2.453077-.400749-2.817396-.255022zM25.28304 21.2283c1.190106.546477 1.821591 1.66372 1.736583 3.035985-.06072 1.032236-.534333 1.809448-1.408697 2.343781-1.153676.680061-2.24663.64363-3.376017-.121439-1.505849-1.007947-1.72444-3.388161-.425038-4.626843.947228-.910795 2.343781-1.165818 3.473169-.631484z" />
</svg>