<svg xmlns="http://www.w3.org/2000/svg" viewBox="0 0 48 48">
	<path fill="#5468FF" d="M6.32-.00000228h35.360003C45.160002-.00000228 48 2.8259978 48 6.3199981V41.682C48 45.161999 45.174001 48 41.680003 48H6.32C2.8400001 48 0 45.175998 0 41.682V6.303998C0 2.8259978 2.8240001-.00000228 6.32-.00000228" />
	<path fill="#FFFFFF" d="M29.002001 10.715598V9.0695982c-.000874-1.1502721-.933728-2.0822215-2.084-2.0820001H22.06c-1.150272-.0002214-2.083116.931728-2.084 2.0820001v1.6899998c0 .188.174001.32.364.276 1.374233-.396787 2.797632-.597437 4.228001-.596 1.386 0 2.758.188 4.084.552.176.044.35-.086.35-.276m-13.314001 2.154l-.83-.83c-.390568-.390844-.920457-.610442-1.473-.610442-.552542 0-1.082432.219598-1.473.610442l-.992.99c-.391686.389308-.611934.918752-.611934 1.471 0 .552249.220248 1.081693.611934 1.471l.816.816c.132.13.322.1.438-.03.481427-.661179 1.012994-1.28435 1.59-1.864.581861-.583844 1.210637-1.118972 1.88-1.6.1456-.088.16-.291999.044-.424m8.865601 5.226001v7.12c0 .204.22.35.408.248l6.33-3.276001c.144-.072.188-.248001.116-.392001-1.312-2.302-3.748-3.874-6.562-3.976-.146001 0-.292.116-.292.276m0 17.152001c-5.278001 0-9.566001-4.282-9.566001-9.552 0-5.270001 4.288-9.550001 9.566001-9.550001 5.28 0 9.5664 4.28 9.5664 9.550001 0 5.27-4.272 9.552-9.5664 9.552m0-23.120001c-7.496001 0-13.576001 6.072-13.576001 13.568001 0 7.498 6.08 13.555998 13.576001 13.555998 7.496 0 13.576001-6.071998 13.576001-13.569999 0-7.498-6.066001-13.554-13.576001-13.554" />
</svg>