<svg xmlns="http://www.w3.org/2000/svg" viewBox="0 0 48 48">
	<path fill="#FFFFFF" d="M8.6749952.00485267c-.1554147 0-.3167365.03849988-.4637114.11962464-.4667348.25726173-.6379175.85387245-.3793981 1.31779609l1.0538879 1.8928193C6.3467128 4.8976381 4.6642015 7.5665051 4.6642015 10.612671c0 .01375-.0000345.03163 0 .05087.0000125 0-.0000622.01375 0 .01788.0000042.01375 0 .02475 0 .0275v.470111c-.4876468-.557973-1.2044806-.910385-2.0053968-.910385-1.4673119 0-2.65880591 1.185109-2.65880591 2.644392v8.146218c0 1.459559 1.19149401 2.64453 2.65880591 2.64453.8009162 0 1.51775-.352274 2.0053968-.910522v1.141109c0 1.538345 1.265652 2.797291 2.8123737 2.797291h.713632v3.623802c0 1.459421 1.1914955 2.64453 2.6588078 2.64453 1.46731 0 2.658803-1.185109 2.658803-2.64453v-3.623802h1.234561v3.623802c0 1.459421 1.191492 2.64453 2.658807 2.64453 1.467302 0 2.658807-1.185109 2.658807-2.64453v-3.623802h.71363c1.546724 0 2.812372-1.258946 2.812372-2.797291v-1.141109c.487649.558248 1.204485.910522 2.005402.910522 1.467301 0 2.658807-1.184971 2.658807-2.64453v-8.146218c0-1.459283-1.191506-2.644392-2.658807-2.644392-.800917 0-1.517753.352412-2.005402.910385v-.474924c.000055-.01375.000014-.02887 0-.0275.000221-.02887 0-.05225 0-.06875 0-3.0456164-1.686259-5.7120084-4.224578-7.2746912l1.056891-1.8957059c.258518-.46392362.087356-1.06053434-.379393-1.31779608-.146972-.08112475-.308306-.11824964-.46371-.11962464-.344671 0-.682971.17751197-.86118.49733602l-1.105076 1.9856316c-1.080555-.3966863-2.256248-.6140732-3.483858-.6140732-1.226338 0-2.404199.2151869-3.483843.6110482L9.5361717.49737619c-.1782082-.31982404-.5165079-.500636-.8611765-.497336z" />
	<path fill="#A4C639" d="M2.6588669 10.957245c-1.0949697 0-1.96625044.86666-1.96625044 1.955657v8.146218c0 1.089134.87128074 1.955794 1.96625044 1.955794 1.0949711 0 1.9662532-.86666 1.9662532-1.955794v-8.146218c0-1.088997-.8712821-1.955657-1.9662532-1.955657zm22.9325851 0c-1.094971 0-1.966257.86666-1.966257 1.955657v8.146218c0 1.089134.871286 1.955794 1.966257 1.955794 1.094972 0 1.966256-.86666 1.966256-1.955794v-8.146218c0-1.088997-.871284-1.955657-1.966256-1.955657zM10.849015 20.25351c-1.0949716 0-1.9662537.86666-1.9662537 1.955656v8.146164c0 1.089134.8712821 1.955656 1.9662537 1.955656 1.094969 0 1.966251-.866522 1.966251-1.955656v-8.146164c0-1.088996-.871282-1.955656-1.966251-1.955656zm6.552171 0c-1.094971 0-1.966256.86666-1.966256 1.955656v8.146164c0 1.089134.871285 1.955656 1.966256 1.955656 1.094971 0 1.966244-.866522 1.966244-1.955656v-8.146164c0-1.088996-.871273-1.955656-1.966244-1.955656z" />
	<path fill="#A4C639" d="M8.6810171.69386311c-.046491.0004125-.089789.01375-.1324925.0357499-.1402079.07699977-.1863162.23746179-.1083967.37729889l1.3851095 2.4887426c-2.6648858 1.3792583-4.464875 4.000138-4.4684804 7.0082165h17.536688c-.004147-3.0080785-1.803596-5.6289582-4.468486-7.0082165l1.385115-2.4887426c.07795-.1398371.0318-.30016162-.108369-.37729889-.0427-.0233749-.08597-.0357499-.13241-.0357499-.09952-.0009625-.193816.0481249-.246907.14354957L17.919209 3.3532427c-1.147856-.506411-2.435357-.7906227-3.794002-.7906227-1.358644 0-2.646134.2842117-3.793987.7906227L8.9280443.83741268c-.0530855-.09487471-.147409-.14451207-.2469111-.14354957zM5.356757 11.292744v12.641492c0 1.168197.9454373 2.108557 2.1198182 2.108557H20.773623c1.17438 0 2.119822-.94036 2.119822-2.108557V11.292744z" />
	<path fill="#FFFFFF" d="M10.078147 5.9558349c-.4003296 0-.7316992.329449-.7316992.7277853 0 .3981989.3313696.7276479.7316992.7276479.400331 0 .731699-.329449.731699-.7276479 0-.3983363-.331368-.7277853-.731699-.7277853zm8.093851 0c-.400333 0-.731695.329449-.731695.7277853 0 .3981989.331362.7276479.731695.7276479.400334 0 .731695-.329449.731695-.7276479 0-.3983363-.331361-.7277853-.731695-.7277853z" />
	<path fill="#000000" d="M43.816886 33.469355c.0438 4.691282 4.137757 6.252422 4.183113 6.272349-.03462.1101-.654147 2.224777-2.156893 4.409088-1.299058 1.888447-2.647308 3.769977-4.771201 3.808944-2.086937.03825-2.758004-1.230899-5.143964-1.230899-2.385239 0-3.130825 1.191929-5.106344 1.269147-2.050095.07716-3.611222-2.042106-4.921075-3.923636-2.676527-3.848732-4.721947-10.875613-1.975465-15.618872 1.364394-2.355522 3.802669-3.847136 6.449199-3.885386 2.013141-.03819 3.913307 1.347087 5.143966 1.347087 1.229878 0 3.538985-1.665922 5.966464-1.421261 1.016225.04207 3.868786.408289 5.700494 3.075008-.147591.091-3.403689 1.976349-3.368294 5.898436m-3.922158-11.519716c1.08841-1.310387 1.820973-3.134567 1.621122-4.949615-1.568861.06271-3.465966 1.03982-4.591275 2.349487-1.008492 1.15977-1.891706 3.016057-1.653399 4.79518 1.748679.134565 3.535089-.883831 4.623552-2.19505" />
</svg>