<svg xmlns="http://www.w3.org/2000/svg" viewBox="0 0 48 48">
	<path fill="#FFD7A3" d="M40.202668 45.209169l-1.04752-8.380534c-.15817-1.264963-1.02858-2.326754-2.23789-2.729891l-4.03933-1.346479c-.554692-.184966-1.163174-.06714-1.590931.297309l-1.18986-.39662c-.675826-.22531-1.131722-.857791-1.131722-1.570238v-2.669167l3.564924-1.48541c1.850379-.770792 3.055649-2.578753 3.055649-4.58337v-.827584c1.3712 0 2.48275-1.111549 2.48275-2.482753 0-.618516-.22665-1.183756-.60082-1.618445.70251-2.557029 2.67702-10.6454254.60082-14.1056593l.82759-3.3103377s-8.689639.20689611-13.241354 1.6551688L27.310143-.00001s-11.637906 0-14.068211 4.137198l-.000724.0007241s-4.1379217-.034448-4.1379217 4.9655066c0 1.8299963 1.0207217 6.3995033 1.4589277 8.2773963-.392379.439033-.6313437 1.018342-.6313437 1.653617 0 1.371204 1.1115497 2.482753 2.4827527 2.482753v.827584c0 2.004513 1.205274 3.812475 3.055649 4.583577l3.565027 1.48541v2.669064c0 .712446-.455896 1.344928-1.131722 1.570238l-1.189859.39662c-.427758-.364448-1.03624-.482275-1.590928-.29731l-4.039336 1.34648c-1.2094107.403137-2.0798227 1.464928-2.2378917 2.729891l-1.047515 8.380533c-.185275 1.48179.970136 2.790615 2.4635117 2.790615h27.478519c1.49338 0 2.64889-1.308825 2.46362-2.790718z" />
	<path fill="#734A3E" d="M10.75845447 18.2068468s-1.6551688-6.77315763-1.6551688-9.1034284c0-4.9999546 4.137922-4.9655064 4.137922-4.9655064l.00072413-.00072414C15.67223684-.00001 27.31014247-.00001 27.31014247-.00001l-1.6551688 1.6551688C30.20668787.2068861 38.89632407-.00001 38.89632407-.00001l-.8275844 3.3103376c2.4827532 4.137922-.8275844 14.8965192-.8275844 14.8965192z" />
	<path fill="#FFE1B2" d="M35.585988 16.551678V14.89651c0-2.285271-1.85265-4.137922-4.137923-4.137922H16.551546c-2.285271 0-4.137923 1.852651-4.137923 4.137922v1.655168c-1.371203 0-2.4827527 1.11155-2.4827527 2.482754 0 1.371204 1.1115497 2.482753 2.4827527 2.482753v.827584c0 2.004513 1.205274 3.812475 3.055649 4.583577l5.347333 2.228064c1.008619.420309 2.090479.636619 3.183097.636619 1.092618 0 2.174375-.216413 3.182993-.636619l5.347644-2.228168c1.850379-.770895 3.055649-2.578856 3.055649-4.583473v-.827584c1.3712 0 2.48275-1.111549 2.48275-2.482753 0-1.371204-1.11155-2.482754-2.48275-2.482754z" />
	<path fill="#623F33" d="M18.20671407 19.8620156c-.45517142 0-.8275844-.37241298-.8275844-.8275844v-.8275844c0-.45517142.37241298-.8275844.8275844-.8275844s.8275844.37241298.8275844.8275844v.8275844c0 .45517142-.37241298.8275844-.8275844.8275844z" />
	<path fill="#623F33" d="M29.79289567 19.8620156c-.45517142 0-.8275844-.37241298-.8275844-.8275844v-.8275844c0-.45517142.37241298-.8275844.8275844-.8275844s.8275844.37241298.8275844.8275844v.8275844c0 .45517142-.37241298.8275844-.8275844.8275844z" />
	<path fill="#E4B07B" d="M23.99980487 25.67776152c-1.47134162 0-2.84761448-.36206817-3.77585383-.99361852-.37779228-.25696495-.47606792-.7718259-.21858573-1.14961818.25655117-.37737848.7718259-.47565413 1.14961818-.21858573.65058479.44244731 1.71413419.70675708 2.84482138.70675708 1.13068718 0 2.19423659-.26430977 2.84482137-.70675708.37861986-.25779254.89265323-.15920655 1.14961818.21858573.25737875.37779228.15920655.89265323-.21858573 1.14961818-.9281359.63155035-2.3045122.99361852-3.77585382.99361852z" />
	<path fill="#00BEA4" d="M40.20266604 45.2092706l-1.04751495-8.38053342c-.15806862-1.26496276-1.02858396-2.32675354-2.23789167-2.7298906l-4.039336-1.34647981c-.70344675-.23451673-1.49482433.015931-1.89216829.6419986-1.46710024 2.31144322-4.04554289 3.84692263-6.98595026 3.84692263-2.94040738 0-5.51885002-1.53558285-6.98584682-3.84692264-.39734396-.6260676-1.18872154-.87651532-1.89216828-.6419986l-4.03933601 1.34647983c-1.20941115.40313705-2.07982305 1.46492783-2.23789167 2.72989059L7.79704714 45.2092706c-.18527546 1.48178987.97023926 2.79071805 2.46361531 2.79071805h27.47849173c1.4932726 0 2.64878732-1.30892818 2.46351186-2.79071805z" />
	<path fill="#00AB9A" d="M9.53445714 35.18970627c-.36744747.46520588-.61344694 1.02723914-.68989505 1.63892746l-1.04751495 8.38053343c-.18527546 1.48189331.97023926 2.79071804 2.46361531 2.79071804h4.63571402v-5.38622962c0-.79623964-.2869649-1.56568624-.80823962-2.167547z" />
	<path fill="#00AB9A" d="M38.4651526 35.18970627c.36744747.46520588.61344693 1.02723914.68989504 1.63892746l1.04751495 8.38053343c.18527546 1.48189331-.97023926 2.79071804-2.4636153 2.79071804h-4.63571402v-5.38622962c0-.79623964.28696489-1.56568624.80823961-2.167547z" />
</svg>