<svg xmlns="http://www.w3.org/2000/svg" viewBox="0 0 48 48">
	<path fill="#57B1E3" d="M37.26121 6.508492s-.0814 0 0 0h-1.62715c-.48813 0-.81353-.3253917-.81353-.813527 0-.4881352.3254-.813527.81353-.813527h1.70847c.48814 0 .81353.4068112.73221.8949465 0 .4066205-.40681.7321075-.81353.7321075zm-26.928858.081324c-.406812 0-.732203-.2440676-.813527-.6508788-.08133-.4068111.162743-.8949464.569459-.9762705.325392 0 .569459-.081324.894946-.081324h.976271c.488135 0 .813527.3253917.813527.813527s-.325392.813527-.813527.813527h-.976271c-.162743 0-.325391 0-.488135.081324-.08132.0000953-.162743.0000953-.162743.0000953zm5.532231.8949465c-.488135 0-.813527-.3253917-.813527-.813527v-.1627436c-.406811-.081324-.650879-.4068111-.650879-.813527 0-.4881352.325392-.813527.813527-.813527h.650879c.488135 0 .813527.3253918.813527.813527v.9762706c0 .4067158-.325392.813527-.813527.813527zm16.271208.6507835c-.488136 0-.813527-.3253918-.813527-.813527V5.6948696c0-.4881353.325391-.813527.813527-.813527h.244067c.488135 0 .813527.3253917.813527.813527 0 .2440676-.08132.4068112-.244067.5694594v1.05769c0 .4881352-.325392.813527-.813527.813527zm8.135559 1.6271493c-.48814 0-.81353-.3253917-.81353-.813527 0-.4068112-.0813-.813527-.32539-1.1390141-.24407-.4068112-.0813-.8949464.32539-1.1390141.40672-.2440676.89495-.081324 1.13901.3253918.3254.6508788.48814 1.3016623.48814 1.9525411-.0001.4882306-.32549.8136223-.81362.8136223zm-32.542323.4881357c-.488135 0-.813527-.3253921-.813527-.8135273v-.4881353c0-.4881353.08132-.9762705.244068-1.4644058.162743-.4068112.650878-.6508788 1.057594-.4881353.406811.2440677.650879.6508788.488136 1.1390141-.08132.2440676-.162744.5694594-.162744.813527v.4881353c0 .4067158-.325392.8135273-.813527.8135273zm22.454222 1.139014c-.488135 0-.813527-.325392-.813527-.813527 0-.488136.325392-.8135273.813527-.8135273h1.139015c.406811-.2440676.894946-.1627435 1.139014.2440673.244067.406812.162743.894947-.244068 1.139014-.244068.162744-.569459.244068-.894946.244068h-1.139015v-.000095zm-4.881352 0c-.488136 0-.813527-.325392-.813527-.813527 0-.488136.325391-.8135273.813527-.8135273h1.627149c.488135 0 .813527.3253913.813527.8135273 0 .488135-.325392.813527-.813527.813527h-1.627149zm-4.881353 0c-.488135 0-.813527-.325392-.813527-.813527 0-.488136.325392-.8135273.813527-.8135273h1.627149c.488136 0 .813527.3253913.813527.8135273 0 .488135-.325391.813527-.813527.813527h-1.627149zm-3.742434 0c-.813527 0-1.464406-.56946-1.627149-1.383082-.08132-.4068111.244067-.8949464.650879-.8949464.406811-.081324.894946.2440676.894946.6508788h.488135c.488136 0 .813527.3253916.813527.8135266 0 .488136-.325391.813527-.813527.813527h-.406811zm23.59324 3.254203c-.48814 0-.81353-.325392-.81353-.813527v-1.627149c0-.488136.32539-.813527.81353-.813527.48813 0 .81352.325391.81352.813527v1.627149c0 .488135-.32539.813527-.81352.813527zm-32.542323.488135c-.488135 0-.813527-.325391-.813527-.813527v-1.627149c0-.488135.325392-.813527.813527-.813527s.813527.325392.813527.813527v1.627149c0 .406716-.325392.813527-.813527.813527zm32.542323 4.393218c-.48814 0-.81353-.325392-.81353-.813527v-1.62715c0-.488135.32539-.813527.81353-.813527.48813 0 .81352.325392.81352.813527v1.62715c0 .488135-.32539.813527-.81352.813527zm-32.542323.488135c-.488135 0-.813527-.325392-.813527-.813527V17.57286c0-.488136.325392-.813527.813527-.813527s.813527.325391.813527.813527v1.627149c0 .406716-.325392.813527-.813527.813527zm32.542323 4.393218c-.48814 0-.81353-.325392-.81353-.813528v-1.627149c0-.488135.32539-.813527.81353-.813527.48813 0 .81352.325392.81352.813527v1.627149c0 .488136-.32539.813528-.81352.813528zm-32.542323.488135c-.488135 0-.813527-.325392-.813527-.813527v-1.62715c0-.488135.325392-.813527.813527-.813527s.813527.325392.813527.813527v1.62715c0 .406716-.325392.813527-.813527.813527zm32.542323 4.393217c-.48814 0-.81353-.325392-.81353-.813527V26.84743c0-.488135.32539-.813527.81353-.813527.48813 0 .81352.325392.81352.813527v1.627149c0 .488135-.32539.813527-.81352.813527zm-32.542323.488135c-.488135 0-.813527-.325391-.813527-.813527v-1.627149c0-.488135.325392-.813527.813527-.813527s.813527.325392.813527.813527v1.627149c0 .406716-.325392.813527-.813527.813527zm32.542323 4.393218c-.48814 0-.81353-.325392-.81353-.813527v-1.627149c0-.488136.32539-.813527.81353-.813527.48813 0 .81352.325391.81352.813527v1.627149c0 .488135-.32539.813527-.81352.813527zm-32.542323.488135c-.488135 0-.813527-.325392-.813527-.813527v-1.627149c0-.488135.325392-.813527.813527-.813527s.813527.325392.813527.813527v1.627149c0 .406716-.325392.813527-.813527.813527zm32.542323 4.393218c-.48814 0-.81353-.325392-.81353-.813527v-1.62715c0-.488135.32539-.813527.81353-.813527.48813 0 .81352.325392.81352.813527v1.62715c0 .488135-.32539.813527-.81352.813527zm-32.542323.488135c-.488135 0-.813527-.325392-.813527-.813527v-1.627149c0-.488136.325392-.813527.813527-.813527s.813527.325391.813527.813527v1.627149c0 .406716-.325392.813527-.813527.813527zm32.542323 4.393217c-.48814 0-.81353-.325391-.81353-.813527v-1.627149c0-.488135.32539-.813527.81353-.813527.48813 0 .81352.325392.81352.813527v1.627149c0 .488136-.32539.813527-.81352.813527zM7.729027 44.4203c-.488135 0-.813527-.325392-.813527-.813527v-1.62715c0-.488135.325392-.813527.813527-.813527s.813527.325392.813527.813527v1.62715c0 .406715-.325392.813527-.813527.813527zm30.345713 3.416946c-.32539 0-.65088-.244067-.73221-.569459-.16274-.406811.0813-.894946.48814-1.057595.40681-.162743.7322-.325391.97627-.650878.32539-.325392.81353-.325392 1.13901-.08132.3254.325391.3254.813527 0 1.139014-.48813.488135-1.05759.894946-1.70847 1.057594 0 .162648-.0814.162648-.16274.162648zm-27.660969.08132h-.162744c-.650878-.08132-1.301662-.406812-1.789797-.813527-.325392-.244068-.406811-.813527-.08132-1.139015.244067-.325391.813527-.406811 1.139014-.08132.244068.244068.650879.406812 1.057595.488136.406811.08132.732202.488135.650878.97627-.08142.325392-.406906.56946-.813622.56946zm4.881353.08142h-1.62715c-.488135 0-.813527-.325392-.813527-.813527s.325392-.813527.813527-.813527h1.62715c.488135 0 .813527.325392.813527.813527 0 .48804-.406811.813527-.813527.813527zm4.881352 0h-1.627149c-.488135 0-.813527-.325392-.813527-.813527s.325392-.813527.813527-.813527h1.627149c.488136 0 .813527.325392.813527.813527 0 .48804-.406811.813527-.813527.813527zm4.881353 0H23.43068c-.488136 0-.813527-.325392-.813527-.813527s.325391-.813527.813527-.813527h1.627149c.488135 0 .813527.325392.813527.813527 0 .48804-.406811.813527-.813527.813527zm4.881353 0h-1.62715c-.488135 0-.813527-.325392-.813527-.813527s.325392-.813527.813527-.813527h1.62715c.488135 0 .813527.325392.813527.813527 0 .48804-.406811.813527-.813527.813527zm4.881348 0h-1.627145c-.488135 0-.813527-.325392-.813527-.813527s.325392-.813527.813527-.813527h1.627145c.48814 0 .81353.325392.81353.813527 0 .48804-.40681.813527-.81353.813527z" />
	<path fill="#546080" d="M28.067965 3.2541934V1.6271393c0-.89494639-.732203-1.6271493-1.62715-1.6271493h-4.881352c-.894947 0-1.62715.73220291-1.62715 1.6271493v1.6271494H16.67811c-.488135 0-.813527.3253917-.813527.813527v5.6948797c0 .4881356.325392.8135266.813527.8135266h14.644058c.488135 0 .813527-.325391.813527-.8135266V4.0678157c0-.4881353-.325392-.813527-.813527-.813527h-3.254203z" />
	<path fill="#EFEADD" d="M40.27135 8.9491684c0-1.7897975-1.46441-3.2542034-3.25421-3.2542034h-4.881349v4.0677304c0 .4881356-.325392.8135266-.813527.8135266H16.678205c-.488135 0-.813527-.406811-.813527-.8135266V5.6948697h-4.881352c-1.789798 0-3.254204 1.4644058-3.254204 3.2542034V43.932164c0 1.789798 1.464406 3.254204 3.254204 3.254204L40.27135 8.9491684z" />
</svg>