<svg xmlns="http://www.w3.org/2000/svg" viewBox="0 0 48 48">
	<path fill="#91BAE1" d="M40.0024 17.6c-.092-6.9592-5.7544-12.8-12.7352-12.8-4.4472 0-8.6232 2.404-10.9288 5.8688C15.3256 9.9944 14.1088 9.6 12.8 9.6c-3.5344 0-6.4 2.8656-6.4 6.4 0 .1224.0112.2416.0184.3632-.008.1456-.0184.2928-.0184.4368C3.2096 18.3296.8 21.9656.8 25.724c0 5.212 4.264 9.476 9.476 9.476h19.6056c.1104 0 .2176-.0128.3264-.0168.1096.004.2168.0168.3272.0168h7.8424c4.852 0 8.8224-3.9704 8.8224-8.8224 0-4.2968-3.1152-8.0088-7.1976-8.7776z" />
	<path fill="#8697CB" d="M38.3776 36h-7.8424c-.0832 0-.1664-.0048-.2488-.0112l-.1064-.0064-.0504.0064c-.0816.0064-.164.0112-.248.0112H10.276C4.6096 36 0 31.3896 0 25.7232c0-3.804 2.2856-7.6048 5.6128-9.4184C5.6064 16.204 5.6 16.1032 5.6 16c0-3.9704 3.2304-7.2 7.2-7.2 1.1608 0 2.2912.2768 3.3104.8064C18.7168 6.1304 22.924 4 27.2672 4 34.4224 4 40.3576 9.7552 40.78 16.9552 44.9384 18.048 48 21.9864 48 26.3776 48 31.6832 43.6832 36 38.3776 36zM30.18 34.384l.216.0088c.0456.0032.092.0072.1392.0072h7.8424c4.4232 0 8.0224-3.5992 8.0224-8.0224 0-3.8528-2.8144-7.288-6.5456-7.9912l-.6432-.1208-.0088-.6536C39.116 10.988 33.7616 5.6 27.2672 5.6c-4.0056 0-8.0336 2.1632-10.2624 5.512l-.4432.6664-.6664-.4432c-.9184-.612-1.9896-.9352-3.0952-.9352-3.088 0-5.6 2.5128-5.6 5.6 0 .0672.0048.1336.0096.2l.0096.1616-.0072.1384c-.0056.1008-.012.2016-.012.3v.504l-.4544.2168C3.764 18.9504 1.6 22.4 1.6 25.7232 1.6 30.508 5.492 34.4 10.276 34.4h19.6056c.0472 0 .0928-.004.1392-.0072z" />
	<path fill="#91BAE1" d="M40.0024 17.6s-2.028-.3-4.0024 0" />
	<path fill="#8697CB" d="M35.9992 18.4c-.3888 0-.7296-.2832-.7896-.68-.0664-.4368.2336-.8448.6704-.9112 2.0712-.3152 4.1512-.0144 4.24-.0008.4368.0648.7384.4712.6744.908-.064.4376-.4776.7392-.908.6752-.02-.0024-1.9392-.276-3.7656-.0008-.0416.0064-.0816.0096-.1216.0096z" />
	<path fill="#91BAE1" d="M6.4 16c0-3.5344 2.8656-6.4 6.4-6.4s6.4 2.8656 6.4 6.4" />
	<path fill="#8697CB" d="M19.2 16.8c-.4416 0-.8-.3576-.8-.8 0-3.0872-2.512-5.6-5.6-5.6-3.088 0-5.6 2.5128-5.6 5.6 0 .4424-.3584.8-.8.8-.4416 0-.8-.3576-.8-.8 0-3.9704 3.2304-7.2 7.2-7.2 3.9696 0 7.2 3.2296 7.2 7.2 0 .4424-.3584.8-.8.8z" />
	<path fill="#21AE5E" d="M16 26.4h17.6V44H16z" />
	<path fill="#FFFFFF" d="M24 27.6687992h1.6v12.8H24z" />
	<path fill="#FFFFFF" d="M24.8 41.6l-5.6-5.3656 1.1808-1.1312L24.8 39.3376l4.4192-4.2344L30.4 36.2344z" />
</svg>