<svg xmlns="http://www.w3.org/2000/svg" viewBox="0 0 48 48">
	<path fill="#FFFFFF" d="M43.41881782 25.12698323c-2.79322907-2.4662146-8.92275646-4.35593131-13.58294728-5.12467337 4.66019082-.77003229 10.7897182-2.659749 13.58294728-5.12467337 2.68778216-2.37015117 3.95420083-3.9328534 2.85727137-6.30030682-.75666082-1.62815204-3.81016433-1.7802818-5.55971522-3.32433436-1.75095841-1.54534278-1.92713336-4.23981067-3.77274768-4.90439604-2.68109642-.96884489-4.45199474.15083953-7.13449869 2.51958318-2.7945193 2.46492437-4.93512696 7.87239253-5.80919864 11.98552615-.87149123-4.11301632-3.0133891-9.521892-5.80661818-11.98552615C15.50552862.49803128 13.7346303-.62036291 11.05224365.34859927c-1.84573162.66728312-2.01791858 3.36034349-3.76746947 4.90439604-1.75095841 1.54534279-4.8083326 1.7001703-5.56100545 3.32832234-1.09833699 2.36745342.17218696 3.9275752 2.85586384 6.29631884 2.79451931 2.46492438 8.92545421 4.35464108 13.58693527 5.12467337-4.66159835.76874206-10.79241596 2.659749-13.58693527 5.12467337-2.68637463 2.36886094-3.95420083 3.93027294-2.8545736 6.30030682.75537058 1.62545429 3.8087568 1.7802818 5.55971521 3.32304413 1.74955089 1.54534278 1.92713335 4.2412182 3.77145745 4.90580356 2.68238665.96884489 4.45340227-.15482751 7.13707915-2.5209907 2.2033597-1.9443755 3.99959344-5.7225187 5.08995447-9.25235139-.34965214 6.05352115.70458247 14.13410978 5.14203281 19.0332276 1.79224575 1.98050194 3.21220171.7353134 3.76606195.24960072.55515046-.48841042 2.14060765-1.88701895.24690296-3.76735217-5.21803905-5.1807397-7.02635401-10.5655702-7.50948623-14.86543518 1.1036152 3.33371784 2.81058852 6.77546307 4.88046815 8.60242772 2.6850844 2.36886094 4.45598273 3.48983558 7.1397769 2.5209907 1.8443241-.66728312 2.01780129-3.36304124 3.76735218-4.90580357 1.75095841-1.54534278 4.80704238-1.7001703 5.55971522-3.32832234 1.09692946-2.36757071-.17218696-3.92898272-2.85727137-6.2951459" />
</svg>