<svg xmlns="http://www.w3.org/2000/svg" viewBox="0 0 48 48">
	<path fill="#D5A150" d="M48 24a24 24 0 0 1-24 24A24 24 0 0 1 0 24 24 24 0 0 1 24 0a24 24 0 0 1 24 24z" />
	<path fill="#AD712C" d="M38.928469 5.20847c3.259781 4.09781 5.208375 9.28528 5.208375 14.92837 0 13.25485-10.745156 24-24 24-5.643094 0-10.8306565-1.94859-14.928469-5.20837C9.60525 44.45569 16.38825 48 24 48c13.254844 0 24-10.74516 24-24 0-7.61166-3.544312-14.39475-9.071531-18.79153z" />
	<path fill="#C98A2E" d="M13.083094 13.62c-.494344 0-.988688-.18863-1.365844-.56578-2.0710313-2.07103-2.0710313-5.44097 0-7.51219 1.003313-1.00331 2.337094-1.55578 3.756094-1.55578 1.418906 0 2.752781.55256 3.756093 1.55578.754313.75441.754313 1.97738 0 2.73178-.7545.75422-1.977468.75431-2.731781 0-.273656-.27365-.637406-.4244-1.024312-.4244-.386907 0-.75075.15075-1.024313.4244-.564937.56494-.564937 1.48397 0 2.04872.754407.75441.754407 1.97738 0 2.73169-.37725.37725-.871594.56578-1.365937.56578z" />
	<path fill="#674230" d="M18.853219 9.2986755a3.38025 3.38025 0 0 1-3.38025 3.3802505 3.38025 3.38025 0 0 1-3.38025-3.3802505 3.38025 3.38025 0 0 1 3.38025-3.3802499 3.38025 3.38025 0 0 1 3.38025 3.3802499z" />
	<path fill="#7A5436" d="M12.108188 8.97497c-.0012.013-.0023.026-.0035.039-.09216 1.11834.826594 2.06109 1.948031 2.0204.07425-.003.149156-.008.224344-.0154 1.591219-.1605 2.867062-1.44703 3.016125-3.03938.0012-.013.0023-.026.0034-.0389.09216-1.11825-.826594-2.0611-1.948031-2.02041-.07425.003-.149157.008-.224344.0154-1.591125.1604-2.866969 1.44694-3.016031 3.03928z" />
	<path fill="#C98A2E" d="M5.3567812 29.07272c-.4943437 0-.9886875-.18863-1.3658437-.56578-2.0710313-2.07103-2.0710313-5.44097 0-7.51219 1.0033125-1.00322 2.3371875-1.55569 3.7560938-1.55569 1.4189062 0 2.7527817.55256 3.7560937 1.55578.754313.75441.754313 1.97738 0 2.73179-.7545.75421-1.9774687.75431-2.7317812 0-.2736563-.27366-.6374063-.42441-1.0243125-.42441-.3869063 0-.75075.15075-1.0243126.42441-.5649374.56493-.5649374 1.48396 0 2.04871.7544063.75441.7544063 1.97738 0 2.73169-.37725.37716-.8716875.56569-1.3659375.56569z" />
	<path fill="#674230" d="M11.126906 24.751404a3.38025 3.38025 0 0 1-3.3802501 3.38025 3.38025 3.38025 0 0 1-3.3802499-3.38025 3.38025 3.38025 0 0 1 3.3802499-3.38025 3.38025 3.38025 0 0 1 3.3802501 3.38025z" />
	<path fill="#7A5436" d="M4.3817812 24.42769c-.00122.013-.00234.026-.00347.039-.092156 1.11843.8265937 2.06109 1.9480312 2.0204.07425-.003.1491563-.008.2243438-.0154 1.5912188-.1605 2.8670625-1.44703 3.016125-3.03938.00122-.013.00234-.026.00338-.0389.092156-1.11825-.8265938-2.0611-1.9480313-2.02041-.07425.003-.1491562.008-.2243437.0154-1.5910313.1604-2.866875 1.44693-3.0160313 3.03928z" />
	<path fill="#C98A2E" d="M12.117375 38.73066c-.494344 0-.988687-.18863-1.365844-.56579-2.071031-2.07103-2.071031-5.44096 0-7.51218 1.003313-1.00331 2.337094-1.55578 3.756094-1.55578s2.752781.55256 3.756094 1.55578c.754312.7544.754312 1.97737 0 2.73178-.7545.75422-1.977469.75431-2.731782 0-.273562-.27366-.637406-.42441-1.024312-.42441-.386906 0-.75075.15075-1.024312.42441-.564938.56494-.564938 1.48397 0 2.04872.754406.7544.754406 1.97737 0 2.73168-.37725.37725-.871688.56579-1.365938.56579z" />
	<path fill="#674230" d="M17.887406 34.409332a3.38025 3.38025 0 0 1-3.38025 3.38025 3.38025 3.38025 0 0 1-3.38025-3.38025 3.38025 3.38025 0 0 1 3.38025-3.38025 3.38025 3.38025 0 0 1 3.38025 3.38025z" />
	<path fill="#7A5436" d="M11.142375 34.08562c-.0012.013-.0023.026-.0035.039-.09216 1.11835.826594 2.0611 1.948031 2.02041.07425-.003.149157-.008.224344-.0154 1.591219-.1605 2.867063-1.44703 3.016125-3.03938.0012-.013.0023-.026.0034-.0389.09216-1.11824-.826594-2.061-1.948031-2.0204-.07425.003-.149156.008-.224344.0154-1.591125.16041-2.866875 1.44694-3.016031 3.03928z" />
	<path fill="#C98A2E" d="M22.741125 45.49125c-.494344 0-.988688-.18863-1.365844-.56578-2.071031-2.07103-2.071031-5.44097 0-7.51219 1.003313-1.00331 2.337094-1.55578 3.756094-1.55578 1.418906 0 2.752781.55256 3.756094 1.55578.754312.75441.754312 1.97738 0 2.73178-.7545.75422-1.977469.75432-2.731782 0-.273656-.27365-.637406-.4244-1.024312-.4244-.386906 0-.75075.15075-1.024313.4244-.564937.56494-.564937 1.48397 0 2.04872.754407.75441.754407 1.97738 0 2.73169-.377249.37725-.871687.56578-1.365937.56578z" />
	<path fill="#674230" d="M28.511155 41.169922a3.38025 3.38025 0 0 1-3.38025 3.38025 3.38025 3.38025 0 0 1-3.38025-3.38025 3.38025 3.38025 0 0 1 3.38025-3.38025 3.38025 3.38025 0 0 1 3.38025 3.38025z" />
	<path fill="#7A5436" d="M21.766125 40.84613c-.0012.013-.0023.026-.0035.039-.09216 1.11834.826594 2.06109 1.948031 2.0204.07425-.003.149157-.008.224344-.0154 1.591219-.1605 2.867063-1.44704 3.016125-3.03938.0012-.013.0023-.026.0034-.0389.09216-1.11825-.826594-2.061-1.948031-2.0204-.07425.003-.149156.008-.224344.0154-1.591125.1605-2.866968 1.44703-3.016031 3.03929z" />
	<path fill="#C98A2E" d="M24.672656 18.46209c-.494344 0-.988687-.18862-1.365843-.56578-2.071032-2.07103-2.071032-5.44097 0-7.51219 1.003312-1.00331 2.337093-1.55578 3.756093-1.55578s2.752782.55257 3.756094 1.55578c.754313.75441.754313 1.97738 0 2.73179-.7545.75422-1.977469.75431-2.731781 0-.273656-.27366-.637406-.42441-1.024313-.42441-.386906 0-.75075.15075-1.024312.42441-.564938.56493-.564938 1.48396 0 2.04871.754406.75441.754406 1.97738 0 2.73169-.37725.37725-.871594.56578-1.365938.56578z" />
	<path fill="#674230" d="M30.44278 14.140228a3.38025 3.38025 0 0 1-3.380249 3.38025 3.38025 3.38025 0 0 1-3.38025-3.38025 3.38025 3.38025 0 0 1 3.38025-3.38025 3.38025 3.38025 0 0 1 3.380249 3.38025z" />
	<path fill="#7A5436" d="M23.69775 13.81706c-.0012.013-.0023.026-.0035.039-.09216 1.11835.826594 2.0611 1.948032 2.02041.07425-.003.149156-.008.224343-.0154 1.591219-.1605 2.867063-1.44703 3.016125-3.03937.0012-.013.0023-.026.0034-.0389.09216-1.11825-.826594-2.06109-1.948031-2.0204-.07425.003-.149156.008-.224344.0154-1.591125.16041-2.866968 1.44694-3.016031 3.03928z" />
	<path fill="#C98A2E" d="M36.262219 35.83331c-.494344 0-.988688-.18862-1.365844-.56578-2.071031-2.07103-2.071031-5.44097 0-7.51219 1.003312-1.00331 2.337094-1.55578 3.756094-1.55578s2.752781.55256 3.756094 1.55578c.754312.75441.754312 1.97738 0 2.73178-.7545.75422-1.977469.75432-2.731782 0-.273656-.27365-.637406-.4244-1.024312-.4244-.386906 0-.75075.15075-1.024313.4244-.564937.56494-.564937 1.48397 0 2.04872.754407.75441.754407 1.97738 0 2.73169-.37725.37725-.871687.56578-1.365937.56578z" />
	<path fill="#674230" d="M42.032342 31.511902a3.38025 3.38025 0 0 1-3.38025 3.38025 3.38025 3.38025 0 0 1-3.38025-3.38025 3.38025 3.38025 0 0 1 3.38025-3.38025 3.38025 3.38025 0 0 1 3.38025 3.38025z" />
	<path fill="#7A5436" d="M35.287219 31.18819c-.0012.013-.0023.026-.0034.039-.09216 1.11834.826594 2.06109 1.948031 2.0204.07425-.003.149156-.008.224344-.0154 1.591218-.1605 2.867062-1.44703 3.016125-3.03938.0012-.013.0023-.026.0034-.0389.09216-1.11825-.826594-2.061-1.948032-2.02041-.07425.003-.149156.008-.224343.0154-1.591125.1605-2.866969 1.44703-3.016125 3.03928z" />
	<path fill="#C98A2E" d="M35.296406 17.48325c-.494344 0-.988687-.18863-1.365844-.56578-2.071031-2.07103-2.071031-5.44097 0-7.51219 1.003313-1.00331 2.337094-1.55578 3.756094-1.55578s2.752781.55256 3.756094 1.55578c.754312.75441.754312 1.97738 0 2.73178-.7545.75422-1.977469.75431-2.731781 0-.273657-.27356-.637406-.4244-1.024313-.4244-.386906 0-.75075.15075-1.024312.4244-.564938.56494-.564938 1.48397 0 2.04872.754406.75441.754406 1.97738 0 2.73169-.37725.37725-.871594.56578-1.365938.56578z" />
	<path fill="#674230" d="M41.066529 13.161835a3.38025 3.38025 0 0 1-3.38025 3.38025 3.38025 3.38025 0 0 1-3.38025-3.38025 3.38025 3.38025 0 0 1 3.38025-3.3802503 3.38025 3.38025 0 0 1 3.38025 3.3802503z" />
	<path fill="#7A5436" d="M34.321406 12.83812c-.0012.013-.0023.026-.0034.039-.09216 1.11844.826594 2.0611 1.948032 2.02041.07425-.003.149156-.008.224343-.0154 1.591219-.1605 2.867063-1.44704 3.016125-3.03938.0012-.013.0023-.026.0034-.0389.09216-1.11824-.826594-2.06109-1.948031-2.0204-.07425.003-.149156.008-.224344.0154-1.591125.16041-2.866969 1.44694-3.016125 3.03928z" />
	<path fill="#C98A2E" d="M20.8095 29.07272c-.494344 0-.988688-.18863-1.365844-.56578-2.071031-2.07103-2.071031-5.44097 0-7.51219 1.003313-1.00331 2.337094-1.55578 3.756094-1.55578s2.752781.55256 3.756094 1.55578c.754312.75441.754312 1.97737 0 2.73178-.7545.75422-1.977469.75431-2.731782 0-.273562-.27366-.637406-.42441-1.024312-.42441-.386906 0-.75075.15075-1.024313.42441-.564937.56494-.564937 1.48397 0 2.04872.754407.75441.754407 1.97737 0 2.73169-.37725.37725-.871687.56578-1.365937.56578z" />
	<path fill="#674230" d="M26.579625 24.751404a3.38025 3.38025 0 0 1-3.38025 3.38025 3.38025 3.38025 0 0 1-3.38025-3.38025 3.38025 3.38025 0 0 1 3.38025-3.38025 3.38025 3.38025 0 0 1 3.38025 3.38025z" />
	<path fill="#7A5436" d="M19.8345 24.42769c-.0012.013-.0023.026-.0035.039-.09216 1.11843.826594 2.06109 1.948032 2.0204.07425-.003.149156-.008.224343-.0154 1.591219-.1605 2.867063-1.44703 3.016125-3.03938.0012-.013.0023-.026.0034-.0389.09216-1.11825-.826594-2.0611-1.948031-2.02041-.07425.003-.149156.008-.224344.0154-1.591031.1604-2.866875 1.44693-3.016031 3.03928z" />
	<path fill="#AD712C" d="M137.52899 294.63199a7.7259998 7.7259998 0 0 1-7.726 7.726 7.7259998 7.7259998 0 0 1-7.726-7.726 7.7259998 7.7259998 0 0 1 7.726-7.726 7.7259998 7.7259998 0 0 1 7.726 7.726z" />
	<path fill="#AD712C" d="M189.038 294.63199a7.7259998 7.7259998 0 0 1-7.726 7.726 7.7259998 7.7259998 0 0 1-7.726-7.726 7.7259998 7.7259998 0 0 1 7.726-7.726 7.7259998 7.7259998 0 0 1 7.726 7.726z" />
	<path fill="#AD712C" d="M163.28301 248.274a7.7259998 7.7259998 0 0 1-7.726 7.726 7.7259998 7.7259998 0 0 1-7.726-7.726 7.7259998 7.7259998 0 0 1 7.726-7.726 7.7259998 7.7259998 0 0 1 7.726 7.726z" />
	<path fill="#AD712C" d="M70.566999 340.98999a7.7259998 7.7259998 0 0 1-7.725999 7.726 7.7259998 7.7259998 0 0 1-7.726-7.726 7.7259998 7.7259998 0 0 1 7.726-7.726 7.7259998 7.7259998 0 0 1 7.725999 7.726z" />
	<path fill="#AD712C" d="M173.58499 454.31a7.7259998 7.7259998 0 0 1-7.726 7.726 7.7259998 7.7259998 0 0 1-7.726-7.726 7.7259998 7.7259998 0 0 1 7.726-7.726 7.7259998 7.7259998 0 0 1 7.726 7.726z" />
	<path fill="#AD712C" d="M204.491 413.103a7.7259998 7.7259998 0 0 1-7.726 7.726 7.7259998 7.7259998 0 0 1-7.726-7.726 7.7259998 7.7259998 0 0 1 7.726-7.726 7.7259998 7.7259998 0 0 1 7.726 7.726z" />
	<path fill="#AD712C" d="M256 351.29199a7.7259998 7.7259998 0 0 1-7.726 7.726 7.7259998 7.7259998 0 0 1-7.726-7.726 7.7259998 7.7259998 0 0 1 7.726-7.726 7.7259998 7.7259998 0 0 1 7.726 7.726z" />
	<path fill="#AD712C" d="M338.41399 320.38599a7.7259998 7.7259998 0 0 1-7.726 7.726 7.7259998 7.7259998 0 0 1-7.726-7.726 7.7259998 7.7259998 0 0 1 7.726-7.726 7.7259998 7.7259998 0 0 1 7.726 7.726z" />
	<path fill="#AD712C" d="M317.81099 340.98999a7.7259998 7.7259998 0 0 1-7.726 7.726 7.7259998 7.7259998 0 0 1-7.726-7.726 7.7259998 7.7259998 0 0 1 7.726-7.726 7.7259998 7.7259998 0 0 1 7.726 7.726z" />
	<path fill="#AD712C" d="M348.71599 371.89499a7.7259998 7.7259998 0 0 1-7.726 7.726 7.7259998 7.7259998 0 0 1-7.726-7.726 7.7259998 7.7259998 0 0 1 7.726-7.726 7.7259998 7.7259998 0 0 1 7.726 7.726z" />
	<path fill="#AD712C" d="M348.71599 433.70599a7.7259998 7.7259998 0 0 1-7.726 7.726 7.7259998 7.7259998 0 0 1-7.726-7.726 7.7259998 7.7259998 0 0 1 7.726-7.726 7.7259998 7.7259998 0 0 1 7.726 7.726z" />
	<path fill="#AD712C" d="M462.036 217.368a7.7259998 7.7259998 0 0 1-7.726 7.726 7.7259998 7.7259998 0 0 1-7.726-7.726 7.7259998 7.7259998 0 0 1 7.726-7.726 7.7259998 7.7259998 0 0 1 7.726 7.726z" />
	<path fill="#AD712C" d="M431.12999 423.40399a7.7259998 7.7259998 0 0 1-7.726 7.726 7.7259998 7.7259998 0 0 1-7.726-7.726 7.7259998 7.7259998 0 0 1 7.726-7.726 7.7259998 7.7259998 0 0 1 7.726 7.726z" />
	<path fill="#AD712C" d="M276.60301 31.936001a7.7259998 7.7259998 0 0 1-7.726 7.726 7.7259998 7.7259998 0 0 1-7.726-7.726 7.7259998 7.7259998 0 0 1 7.726-7.726 7.7259998 7.7259998 0 0 1 7.726 7.726z" />
	<path fill="#AD712C" d="M91.171 124.652a7.7259998 7.7259998 0 0 1-7.726 7.726 7.7259998 7.7259998 0 0 1-7.726-7.726 7.7259998 7.7259998 0 0 1 7.726-7.726 7.7259998 7.7259998 0 0 1 7.726 7.726z" />
	<path fill="#AD712C" d="M49.962999 186.463a7.7259998 7.7259998 0 0 1-7.725999 7.726 7.7259998 7.7259998 0 0 1-7.726-7.726 7.7259998 7.7259998 0 0 1 7.726-7.726 7.7259998 7.7259998 0 0 1 7.725999 7.726z" />
	<path fill="#AD712C" d="M168.43399 201.91499a7.7259998 7.7259998 0 0 1-7.726 7.726 7.7259998 7.7259998 0 0 1-7.726-7.726 7.7259998 7.7259998 0 0 1 7.726-7.726 7.7259998 7.7259998 0 0 1 7.726 7.726z" />
	<path fill="#AD712C" d="M199.34 186.463a7.7259998 7.7259998 0 0 1-7.726 7.726 7.7259998 7.7259998 0 0 1-7.726-7.726 7.7259998 7.7259998 0 0 1 7.726-7.726 7.7259998 7.7259998 0 0 1 7.726 7.726z" />
	<path fill="#AD712C" d="M168.43399 171.00999a7.7259998 7.7259998 0 0 1-7.726 7.726 7.7259998 7.7259998 0 0 1-7.726-7.726 7.7259998 7.7259998 0 0 1 7.726-7.726 7.7259998 7.7259998 0 0 1 7.726 7.726z" />
	<path fill="#AD712C" d="M312.65999 248.274a7.7259998 7.7259998 0 0 1-7.726 7.726 7.7259998 7.7259998 0 0 1-7.726-7.726 7.7259998 7.7259998 0 0 1 7.726-7.726 7.7259998 7.7259998 0 0 1 7.726 7.726z" />
	<path fill="#AD712C" d="M245.698 93.746002a7.7259998 7.7259998 0 0 1-7.726 7.725998 7.7259998 7.7259998 0 0 1-7.726-7.725998 7.7259998 7.7259998 0 0 1 7.726-7.726 7.7259998 7.7259998 0 0 1 7.726 7.726z" />
	<path fill="#AD712C" d="M343.56499 186.463a7.7259998 7.7259998 0 0 1-7.726 7.726 7.7259998 7.7259998 0 0 1-7.726-7.726 7.7259998 7.7259998 0 0 1 7.726-7.726 7.7259998 7.7259998 0 0 1 7.726 7.726z" />
	<path fill="#AD712C" d="M359.01799 232.821a7.7259998 7.7259998 0 0 1-7.726 7.726 7.7259998 7.7259998 0 0 1-7.726-7.726 7.7259998 7.7259998 0 0 1 7.726-7.726 7.7259998 7.7259998 0 0 1 7.726 7.726z" />
	<path fill="#AD712C" d="M389.92299 232.821a7.7259998 7.7259998 0 0 1-7.726 7.726 7.7259998 7.7259998 0 0 1-7.726-7.726 7.7259998 7.7259998 0 0 1 7.726-7.726 7.7259998 7.7259998 0 0 1 7.726 7.726z" />
	<path fill="#AD712C" d="M389.92299 263.72601a7.7259998 7.7259998 0 0 1-7.726 7.726 7.7259998 7.7259998 0 0 1-7.726-7.726 7.7259998 7.7259998 0 0 1 7.726-7.726 7.7259998 7.7259998 0 0 1 7.726 7.726z" />
	<path fill="#AD712C" d="M333.26299 78.293999a7.7259998 7.7259998 0 0 1-7.726 7.726 7.7259998 7.7259998 0 0 1-7.726-7.726 7.7259998 7.7259998 0 0 1 7.726-7.726 7.7259998 7.7259998 0 0 1 7.726 7.726z" />
	<path fill="#AD712C" d="M364.16899 62.841a7.7259998 7.7259998 0 0 1-7.726 7.725999 7.7259998 7.7259998 0 0 1-7.726-7.725999 7.7259998 7.7259998 0 0 1 7.726-7.726 7.7259998 7.7259998 0 0 1 7.726 7.726z" />
</svg>