<svg xmlns="http://www.w3.org/2000/svg" viewBox="0 0 48 48">
	<path fill="#2E9FFF" d="M24.87539625 47.3095c-5.7040575 0-10.9194825-2.08437375-14.95182787-5.53243125L0 43.13281l3.83378419-9.46221563c-1.33571231-2.94733875-2.08506476-6.21928125-2.08506476-9.67044562 0-12.87263363 10.35418695-23.30935313 23.12667682-23.30935313C37.64684813.69079562 48 11.12751512 48 24.00014875 48 36.87519812 37.647195 47.3095 24.87539625 47.3095zm12.62745188-23.376v-.06492c0-6.726216-4.74336563-11.52241744-12.92201438-11.52241744h-8.83338056v23.30935181h8.70250368c8.24218688.000375 13.05289125-4.99614375 13.05289125-11.72201437zm-12.8246325 5.99516625h-2.5837125V18.07473812h2.5837125c3.79476187 0 6.31355437 2.16345375 6.31355437 5.89467563v.06492187c0 3.76264688-2.5187925 5.89433063-6.31355437 5.89433063z" />
</svg>