<svg xmlns="http://www.w3.org/2000/svg" viewBox="0 0 48 48">
	<path fill="#4EC6E6" d="M23.860286-.00034629L40.883471 15.592377c5.489803 5.02851 5.643457 13.631078.336978 18.852654L30.000308 45.48527c-3.42851 3.373459-8.936448 3.349401-12.335282-.05137L6.6987794 34.449996c-5.1892558-5.196404-5.0471432-13.656506.313733-18.675856L23.860283-.00034629" />
	<path fill="#FFFFFF" d="M35.268702 20.93099L23.969261 9.914465 11.385035 21.865407c-1.30737 1.307363-1.4163456 5.100428.163545 6.680137l12.366276 11.984932.05437-5.447603-8.661783-8.280651c-.894552-.894349-.812783-1.938099.08176-2.832619l2.696513-2.63536 12.931429 12.48202 4.390655-4.358047c2.412123-2.424316 2.185931-6.202141-.139144-8.527226zm-2.915947 5.72303l-1.672709 1.672774-9.761427-9.478082 3.193579-3.336644 8.117074 7.735702c1.146298 1.146148 1.269616 2.260103.123483 3.40625z" />
</svg>