<svg xmlns="http://www.w3.org/2000/svg" viewBox="0 0 48 48">
	<path fill="#FFCC4D" d="M48 24c0 13.255058-10.744941 24-24 24C10.746353 48 0 37.255058 0 24 0 10.746353 10.746353-2e-7 24-2e-7 37.255059-2e-7 48 10.746353 48 24" />
	<path fill="#664500" d="M18.352941 21.882353c0 2.730353-1.579765 4.941176-3.529412 4.941176-1.949647 0-3.529411-2.210823-3.529411-4.941176 0-2.728942 1.579764-4.941177 3.529411-4.941177 1.949647 0 3.529412 2.212235 3.529412 4.941177m18.352941 0c0 2.730353-1.579764 4.941176-3.529412 4.941176-1.949647 0-3.529411-2.210823-3.529411-4.941176 0-2.728942 1.579764-4.941177 3.529411-4.941177 1.949648 0 3.529412 2.212235 3.529412 4.941177m-2.823529 13.411764H14.117647c-.779294 0-1.411765-.631059-1.411765-1.411764 0-.780706.632471-1.411765 1.411765-1.411765h19.764706c.780706 0 1.411764.631059 1.411764 1.411765 0 .780705-.631058 1.411764-1.411764 1.411764" />
</svg>