<svg xmlns="http://www.w3.org/2000/svg" viewBox="0 0 48 48">
	<path fill="#FDCB58" d="M48 24c0 13.255058-10.744941 24-24 24C10.746353 48 0 37.255058 0 24 0 10.746353 10.746353-2e-7 24-2e-7 37.255059-2e-7 48 10.746353 48 24" />
	<path fill="#664500" d="M34.567623 40.770211c-.06353-.252705-1.648941-6.182117-10.567058-6.182117-8.91953 0-10.504942 5.929412-10.567059 6.182117-.07765.306353.06071.624.334588.782118.275294.153882.619765.111529.845647-.108706.02682-.02682 2.758588-2.620235 9.386824-2.620235 6.626823 0 9.36 2.593412 9.385411 2.620235.13553.132706.316236.203294.496942.203294.118588 0 .238588-.02965.347294-.09035.276706-.158117.415058-.478588.337411-.786353m-13.8048-17.768332c-4.595294-4.595294-11.9802348-4.648941-12.2922348-4.648941-.7792941 0-1.4103529.631059-1.4103529 1.410353-.00141.777882.629647 1.411765 1.4089411 1.413176.040941 0 2.7176466.03106 5.6230586 1.040471-.837176.903529-1.386353 2.306823-1.386353 3.900706 0 2.730353 1.579765 4.941176 3.529412 4.941176 1.949647 0 3.529412-2.210823 3.529412-4.941176 0-.245647-.02682-.48-.05223-.715765.01835 0 .03529.0099.05223.0099.361412 0 .722823-.138353.998117-.413647.552-.552.552-1.444235 0-1.996235m18.766589-4.648941c-.312 0-7.69553.05365-12.292236 4.648941-.552.552-.552 1.444235 0 1.996235.275294.275294.636706.413647.998118.413647.01835 0 .03388-.0099.05082-.0099-.02259.235765-.05082.470118-.05082.715765 0 2.730353 1.579765 4.941176 3.529412 4.941176 1.949647 0 3.529411-2.210823 3.529411-4.941176 0-1.593883-.549176-2.997177-1.386352-3.900706 2.905411-1.009412 5.582117-1.040471 5.62447-1.040471.777882-.0014 1.408941-.635294 1.40753-1.413176-.0014-.779294-.631059-1.410353-1.410353-1.410353" />
</svg>