<svg xmlns="http://www.w3.org/2000/svg" viewBox="0 0 48 48">
	<path fill="#FFCC4D" d="M48 24c0 13.255059-10.744941 24-24 24S0 37.255059 0 24 10.744941 0 24 0s24 10.744941 24 24" />
	<path fill="#664500" d="M28.235294 34.588235c0 2.730353-1.898823 4.941177-4.235294 4.941177-2.339294 0-4.235294-2.210824-4.235294-4.941177 0-2.727529 1.896-4.941176 4.235294-4.941176 2.336471 0 4.235294 2.213647 4.235294 4.941176m13.411059-19.764706c-.430588 0-.854118-.194823-1.130824-.564705-3.727058-4.970824-8.556705-5.0809416-8.761411-5.0823534-.776471-.0084706-1.403294-.6437647-1.399059-1.4188235.0043-.7778824.631059-1.4047059 1.407529-1.4047059.259765 0 6.405177.070588 11.011765 6.2117648.468706.624.341647 1.509176-.282353 1.97647-.254118.190589-.550588.282353-.845647.282353m-35.2946824 0c-.2936471 0-.5915294-.09176-.8456471-.282353-.624-.467294-.749647-1.35247-.2823529-1.97647C9.8288471 6.4235294 15.975671 6.3529412 16.235435 6.3529412c.779294 0 1.411765.6324706 1.411765 1.4117647 0 .7778823-.628235 1.4089412-1.406118 1.4117647-.218823.00282-5.037176.1214118-8.7585879 5.0823534-.2781176.369882-.701647.564705-1.1308235.564705m12.0012704 4.941177C18.352941 22.104 16.997647 24 15.327529 24c-1.671529 0-3.025411-1.896-3.025411-4.235294 0-2.339294 1.353882-4.235294 3.025411-4.235294 1.670118 0 3.025412 1.896 3.025412 4.235294m16.941177-.282635c0 2.184-1.26353 3.952941-2.82353 3.952941-1.558588 0-2.823529-1.768941-2.823529-3.952941 0-2.182589 1.264941-3.952942 2.823529-3.952942 1.56 0 2.82353 1.770353 2.82353 3.952942" />
</svg>