<svg xmlns="http://www.w3.org/2000/svg" viewBox="0 0 48 48">
	<path fill="#FFCC4D" d="M48 24c0 13.255059-10.744941 24-24 24C10.746353 48 0 37.255059 0 24 0 10.746353 10.746353 0 24 0c13.255059 0 24 10.746353 24 24" />
	<path fill="#664500" d="M12.705882 16.941176s0-2.823529 2.82353-2.823529c2.823529 0 2.823529 2.823529 2.823529 2.823529v2.82353s0 2.823529-2.823529 2.823529c-2.82353 0-2.82353-2.823529-2.82353-2.823529zm16.941177 0s0-2.823529 2.823529-2.823529c2.82353 0 2.82353 2.823529 2.82353 2.823529v2.82353s0 2.823529-2.82353 2.823529c-2.823529 0-2.823529-2.823529-2.823529-2.823529zm-18.8256 21.7008c.251294.227295.626823.241412.89647.04094.05506-.04094 5.536942-4.094118 12.282353-4.094118 6.728471 0 12.228706 4.053176 12.282353 4.094118.269647.20047.645177.183529.896471-.04094.249882-.225882.306353-.598588.132706-.886588-.182118-.303529-4.541647-7.401882-13.31153-7.401882-8.769882 0-13.130823 7.098353-13.311529 7.401882-.173647.289412-.118588.660706.132706.886588" />
</svg>