<svg xmlns="http://www.w3.org/2000/svg" viewBox="0 0 48 48">
	<path fill="#4D4D4D" d="M13.94627437 18.40865l-1.03897312-1.03897313 9.47770312-9.4777033L23.4239775 8.9309465zm20.10832032.00013406l-9.47770313-9.47770368 1.03897313-1.03897294 9.47770312 9.4777035z" />
	<path fill="#F7CE4D" d="M0 17.30272h48V42.968H0z" />
	<path fill="#4D4D4D" d="M11.18221875 29.889215h1.89721875c.3245625 0 .51178125.31209375.51178125.6489375 0 .2870625-.1621875.62409375-.51178125.62409375h-1.89721875v2.50865625h3.532125c.3245625 0 .51178125.3369375.51178125.7239375 0 .3369375-.1621875.69890625-.51178125.69890625h-4.4431875c-.36196875 0-.71146875-.17475-.71146875-.51178125v-8.10028125c0-.3369375.34940625-.51178125.71146875-.51178125h4.4431875c.3495 0 .51178125.36196875.51178125.69890625 0 .38690625-.18721875.7239375-.51178125.7239375h-3.532125zm9.98446875 1.79728125l-1.82221875 3.20765625c-.087375.1498125-.2495625.262125-.44934375.262125-.43678125 0-1.060875-.36196875-1.060875-.8113125 0-.087375.03740625-.18721875.0999375-.29953125l2.15925-3.51965625-2.08434375-3.5071875c-.0748125-.12478125-.11221875-.23709375-.11221875-.34940625 0-.43678125.574125-.76134375 1.0359375-.76134375.2495625 0 .42440625.13725.53671875.34940625l1.6974375 3.0579375 1.6974375-3.0579375c.12478125-.21215625.28715625-.34940625.5491875-.34940625.4618125 0 1.0359375.3245625 1.0359375.76134375 0 .1123125-.03740625.224625-.11221875.34940625l-2.08434375 3.5071875 2.15925 3.51965625c.0624375.11240625.087375.21215625.087375.29953125 0 .44925-.61153125.8113125-1.060875.8113125-.19978125 0-.36196875-.11240625-.43678125-.262125zm6.50221875-5.2171875c0-.34940625.399375-.49921875.8113125-.49921875.399375 0 .8113125.1498125.8113125.49921875V34.581965c0 .3369375-.4119375.51178125-.8113125.51178125-.4119375 0-.8113125-.17475-.8113125-.51178125zm10.36275-.499125c.34940625 0 .51178125.3744375.51178125.7239375 0 .38690625-.18721875.7363125-.51178125.7363125H36.2094375v7.15171875c0 .3369375-.4119375.51178125-.8113125.51178125-.41184375 0-.81121875-.17475-.81121875-.51178125v-7.15171875h-1.8346875c-.3245625 0-.51178125-.3369375-.51178125-.7363125 0-.34940625.1621875-.7239375.51178125-.7239375z" />
	<path fill="#32A8EA" d="M26.284123 7.3158045a2.2841251 2.2841251 0 0 1-2.284125 2.2841251 2.2841251 2.2841251 0 0 1-2.284125-2.2841251 2.2841251 2.2841251 0 0 1 2.284125-2.2841251 2.2841251 2.2841251 0 0 1 2.284125 2.2841251z" />
</svg>