<svg xmlns="http://www.w3.org/2000/svg" viewBox="0 0 48 48">
	<path fill="#0391FD" d="M39.72413808 16.4930516v17.49600007c0 2.25351725-1.82648277 4.08000002-4.07917243 4.08000002H18.20689662L9.93103452 47.1725v-9.10344831h-5.8518621C1.82648278 38.06905169 0 36.24256892 0 33.98987926V16.4938792c0-2.25351725 1.82648277-4.08000002 4.07917243-4.08000002h31.56496563c2.25351725 0 4.08000002 1.82648277 4.08000002 4.07917243z" />
	<path fill="#4362A5" d="M43.92082775.82767224H12.35503453c-2.25268966 0-4.07917243 1.82648277-4.07917243 4.08000002v7.50620692h27.36910355c2.25268966 0 4.07917243 1.82648277 4.07917243 4.08000002v9.98896555h4.19668967c2.25268966 0 4.07917243-1.82648277 4.07917243-4.08000002V4.90767226c0-2.25351725-1.82648277-4.08000002-4.07917243-4.08000002z" />
	<path fill="#FFFFFF" d="M11.58620694 25.65525854a2.48275863 2.48275863 0 0 1-2.48275863 2.48275863 2.48275863 2.48275863 0 0 1-2.48275863-2.48275863 2.48275863 2.48275863 0 0 1 2.48275863-2.48275863 2.48275863 2.48275863 0 0 1 2.48275863 2.48275863z" />
	<path fill="#FFFFFF" d="M22.34482767 25.65525854a2.48275863 2.48275863 0 0 1-2.48275863 2.48275863 2.48275863 2.48275863 0 0 1-2.48275863-2.48275863 2.48275863 2.48275863 0 0 1 2.48275863-2.48275863 2.48275863 2.48275863 0 0 1 2.48275863 2.48275863z" />
	<path fill="#FFFFFF" d="M33.1034484 25.65525854a2.48275863 2.48275863 0 0 1-2.48275863 2.48275863 2.48275863 2.48275863 0 0 1-2.48275863-2.48275863 2.48275863 2.48275863 0 0 1 2.48275863-2.48275863 2.48275863 2.48275863 0 0 1 2.48275863 2.48275863z" />
</svg>