<svg xmlns="http://www.w3.org/2000/svg" viewBox="0 0 48 48">
	<path fill="#FFE9CC" d="M43.38438 0H14.769v9.2307693c0 1.0196537-.8265 1.8461537-1.84615 1.8461537H2.769v35.076923C2.772 47.172231 3.59677 47.997 4.61515 48h38.76923c1.01839-.003 1.84316-.827769 1.84616-1.846154V1.8461539C45.22754.8277692 44.40277.003 43.38438 0z" />
	<path fill="#FFA993" d="M12.92285 11.076923c1.01965 0 1.84615-.8265 1.84615-1.8461537V0l-12 11.076923h10.15385zm24.92307 12h-27.6923c-.50977 0-.92308.413308-.92308.923077s.41331.923077.92308.923077h27.6923c.50977 0 .92308-.413308.92308-.923077s-.41331-.923077-.92308-.923077zm0 5.538462h-27.6923c-.50977 0-.92308.413307-.92308.923077 0 .509769.41331.923077.92308.923077h27.6923c.50977 0 .92308-.413308.92308-.923077 0-.50977-.41331-.923077-.92308-.923077zm0 5.538461h-27.6923c-.50977 0-.92308.413308-.92308.923077S9.64385 36 10.15362 36h27.6923c.50977 0 .92308-.413308.92308-.923077s-.41331-.923077-.92308-.923077zm0 5.538462h-27.6923c-.50977 0-.92308.413307-.92308.923077 0 .509769.41331.923077.92308.923077h27.6923c.50977 0 .92308-.413308.92308-.923077 0-.50977-.41331-.923077-.92308-.923077zm0-22.153846H17.53823c-.50977 0-.92308.413307-.92308.923077 0 .509769.41331.923076.92308.923076h20.30769c.50977 0 .92308-.413307.92308-.923076 0-.50977-.41331-.923077-.92308-.923077zm-27.6923 1.846153h3.6923c.50977 0 .92308-.413307.92308-.923076 0-.50977-.41331-.923077-.92308-.923077h-3.6923c-.50977 0-.92308.413307-.92308.923077 0 .509769.41331.923076.92308.923076z" />
</svg>