<svg xmlns="http://www.w3.org/2000/svg" viewBox="0 0 48 48">
	<path fill="#FF5364" d="M27.7917848 23.63487898c-.8814628-2.61515622-3.71614148-4.02064342-6.3312977-3.13908692-2.45109997.82618399-3.8665186 3.38624879-3.26285525 5.9014347C19.99653553 32.6514152 26.5764942 38.26399468 32.60282153 43.033057c.4327675.34272862 1.06135317.26983555 1.4041755-.16293196.34272862-.4327675.26983554-1.06135317-.16293196-1.40417549-5.78450595-4.57717924-12.09060028-9.93594466-13.72563508-15.62048029-.45759612-1.59240453.46237446-3.2541418 2.054779-3.71173792 1.59240452-.45759613 3.2541418.46237446 3.71173792 2.05477899 1.0913349 3.79765431 6.51802766 8.49082537 11.68088123 12.57630427.4327675.34272863 1.06135317.26983555 1.40417549-.16293195.34272863-.4327675.26983555-1.06135317-.16293195-1.4041755-2.7263697-2.15250068-9.9459698-7.86505049-11.01528687-11.56282817z" />
	<path fill="#FF5364" d="M35.36713685 21.05851162c-2.17273835-6.6615652-9.212167-10.42455314-15.95824319-8.53083224-6.89701545 1.97898143-10.88383573 9.17450246-8.9047606 16.0715179.0014054.00487204.00281079.00983776.00421618.0147098 1.64103114 5.7005571-1.87685617 7.2815311-2.9981728 7.62931915-.5265541.16555535-.81915703.72668213-.65360167 1.25323623.16555535.5265541.72668213.81915702 1.25323623.65360167 3.0561687-.9553865 6.02435978-4.16942775 4.31933638-10.0898821-1.68085062-5.83416319 1.68609743-11.92616924 7.52016693-13.60701986.00309186-.00084324.00618373-.00178017.0091819-.0026234 5.76848447-1.62144933 11.77869662 1.64777703 13.55174106 7.37147629.0236106.0779525.05724636.15253204.09997032.22186478.10390543.17192648.31780632.53367476 6.74186 5.74646664.42827025.34825651 1.05788654.28342102 1.40614305-.14494292.3482565-.42827024.28342102-1.05788653-.14494292-1.40614304-2.3344523-1.89475152-5.74637294-4.7110664-6.24613087-5.1807489z" />
	<path fill="#FF5364" d="M31.63740989 22.52958384c-1.3803775-4.76662629-6.3551894-7.51988585-11.12724988-6.15824693-4.68567563 1.44661837-7.40529943 6.32239689-6.17426842 11.06925397 2.01880092 9.19436536.50968938 11.3170717-3.63181788 12.61228235-.5265541.16555536-.81915703.72668214-.65360167 1.25323623.16555535.5265541.72668213.81915703 1.25323623.65360167 5.7864735-1.79890368 7.04373853-5.5806302 4.99692343-14.94888958-.99436275-3.7147361 1.10791854-7.5548333 4.7730911-8.7186865 3.71379917-1.0543262 7.58181685 1.08908627 8.6567555 4.79707648.3997876 1.363138 1.46114077 3.23399783 9.64615251 9.71211232.43276751.34272863 1.06135318.26983555 1.4041755-.16293195.34272863-.4327675.26983555-1.06135317-.16293196-1.4041755-7.4293785-5.87632499-8.70060377-7.73725337-8.98046446-8.70463256z" />
	<path fill="#FF5364" d="M34.38776497 36.44110563c-3.38193892-2.56643592-9.04248917-6.85981937-10.4356089-11.70083782-.16152656-.5277721-.7204047-.8246849-1.24817681-.66306465-.51484249.15759146-.81231744.69473285-.67271502 1.21472845 1.57507134 5.48065988 7.56738815 10.02588984 11.14720647 12.7422344.72752537.523837 1.42797349 1.08421424 2.09872096 1.67897677.39697682.38348504 1.02968497.37252297 1.41317-.02445385.37411576-.38732645.37411576-1.00138971 0-1.38862247-.73192893-.6625025-1.50067917-1.28312427-2.3025967-1.85896083z" />
	<path fill="#FF5364" d="M28.97906124 43.39283773c-1.01010316-1.8739517-2.87065677-3.13768153-4.98493075-3.38596771-3.3979604 0-3.92357757 5.77644836-3.99759496 6.93374306-.03419791.55082056.38460935 1.02509402.93542991 1.05938562h.06399225c.52861534.00103063.96662965-.40981274.99942217-.93739746.12592325-2.0587141.91341208-5.0568869 1.99875063-5.0568869 1.48109737 0 2.5324254 1.42713026 3.37594258 2.57243227.27864268.3972579.58380046.77521505.91341208 1.13134177.39697682.38348504 1.02968497.37242927 1.41317-.02454754.37411576-.38732645.37411576-1.00129602 0-1.38862247-.2585924-.2852012-.49825883-.58707971-.71759391-.90348064z" />
	<path fill="#FF5364" d="M19.95053231 34.7061942c-.18785426-.51896497-.76088004-.78739513-1.279845-.59954087-.48814002.17670481-.75975574.69782472-.62493165 1.19917543.85550987 2.67240259-.82552814 7.91714374-3.35392474 8.7386431-.52674149.1648995-.82009396.7255578-.65528815 1.2522993.1648995.52674148.72555782.82009395 1.2522993.65528814.00693328-.00215494.01377286-.00440357.02061244-.0067459 3.84562508-1.23927598 5.70046342-7.91920498 4.6410778-11.2391192z" />
	<path fill="#FF5364" d="M41.2915263 21.06647551c-1.24920743-.3997876-2.23064056-1.99875063-3.36797867-3.82370094-2.40650214-3.88966074-5.70655346-9.21638319-14.928933-9.21638319-9.3784719.01105577-16.97855887 7.61114273-16.98952094 16.98970833 0 .55194488.4474773.99942217.99942217.99942217s.99942216-.4474773.99942216-.99942217c.00880713-8.27561278 6.71525122-14.98205687 14.990864-14.990864 8.1090268 0 10.94932707 4.58523683 13.23196719 8.27092813 1.34318141 2.16870956 2.50244367 4.04153694 4.44928843 4.67312078.52308747.17623634 1.08992951-.10493605 1.26616586-.62792982.17623634-.52308746-.10493605-1.0899295-.62792982-1.26616585-.00683958-.00234232-.01367916-.00449726-.02061244-.00674589z" />
	<path fill="#FF5364" d="M8.00384433 33.01119595c.55194487 0 .99942216-.4474773.99932847-.99942217 0-.15543652-.03625915-.3087181-.10587298-.44766467-.42649008-.79948152-.72790014-1.65958234-.8934555-2.55041443 0-.55194488-.44747728-.99942217-.99942216-.99942217-.55194487 0-.99942216.4474773-.99942216.99942217.16040224 1.20526546.53479907 2.37221053 1.10529514 3.44593117.16949046.33804398.51531095.5515701.89354919.5515701z" />
	<path fill="#FF5364" d="M7.48412981 11.8781065c.47127529.28726243 1.08627548.13819703 1.37353792-.33307826.00056215-.00093693.00112431-.00178016.00159278-.0027171.86750256-1.43115904 5.14083573-5.5146704 13.13602565-5.5146704 7.68328627 0 13.1499859 3.8916283 14.13535413 5.5146704.2864192.47193115.901232.62221456 1.37316315.33579536.47193113-.2864192.62221455-.901232.33579535-1.37316314-1.3711956-2.25865474-7.4254434-6.47605325-15.84431263-6.47605325-8.95254398 0-13.751588 4.67518202-14.8469517 6.4780208-.28520119.47146267-.13501147 1.08487009.33579535 1.3711956z" />
	<path fill="#FF5364" d="M13.40055537 3.94091248c.45768982-.19984696.84548473-.3997876 1.21322936-.59963456 1.5031152-.7575071 2.58442495-1.31123214 7.38150143-1.31123214 3.23905725-.17848497 6.47877035.34019892 9.50017899 1.52110423.38179856.14194475.76556468.2837958 1.16731984.42171175.10474866.03635284.21483782.0552788.32577021.05593466.55194487.00103062 1.0001717-.44560343 1.00120233-.9975483.00074954-.42780179-.27077248-.80856973-.67543212-.94723523-.38779491-.13388715-.75553954-.26983555-1.12328417-.3997876C28.94739304.41927745 25.47251076-.14409796 21.99528616.03129515c-5.28474802 0-6.60797285.6795546-8.28694961 1.54106082-.3377629.17389402-.69754365.35781318-1.11728784.54566745-.51287493.20387575-.76340975.78495911-.55962769 1.29783405.20387575.51287493.78495912.76340975 1.29783405.55962769.02623401-.01039991.05199956-.02192414.07720295-.03457268z" />
	<path fill="#FF5364" d="M40.03032618 17.32475586c.18785426.51896497.76088004.78739513 1.27984501.59954086.48814001-.1767048.75975573-.69782471.62493165-1.19917542-.56702944-1.46826144-1.27038204-2.88030713-2.10068852-4.21739851-.28922998-.47024467-.90488602-.61706144-1.37513069-.32783146-.47024466.28922999-.61706144.90488603-.32783146 1.3751307.74401532 1.19748895 1.37953426 2.45915754 1.898874 3.76973383z" />
</svg>