<svg xmlns="http://www.w3.org/2000/svg" viewBox="0 0 48 48">
	<path fill="#F0F0F0" d="M48 24a24 24 0 0 1-24 24A24 24 0 0 1 0 24 24 24 0 0 1 24 0a24 24 0 0 1 24 24z" />
	<path fill="#0052B4" d="M4.96125 9.38831C3.0760312 11.84109 1.6545 14.66812.82678125 17.73928H13.312219zm42.211969 8.35097c-.827719-3.07106-2.249344-5.89809-4.134469-8.35087l-8.350781 8.35087zM.82678125 30.261C1.6545937 33.33206 3.076125 36.15909 4.96125 38.61178l8.350687-8.35078zM38.611688 4.96134c-2.452782-1.88522-5.279719-3.30675-8.350875-4.13456v12.48534zM9.3883125 43.03866c2.4527815 1.88521 5.2798125 3.30675 8.3508745 4.13456V34.68797zM17.739094.82678c-3.071063.82781-5.898094 2.24934-8.3507815 4.13447l8.3507815 8.35078zm12.521812 46.34644c3.071063-.82781 5.898094-2.24935 8.350782-4.13447l-8.350782-8.35078zM34.687969 30.261l8.350781 8.35087c1.885125-2.45268 3.30675-5.27981 4.134469-8.35087z" />
	<path fill="#D80027" d="M47.796844 20.86959H27.1305V.20316C26.105719.06975 25.060969 0 24 0c-1.061156 0-2.105719.0697-3.130406.20316V20.8695H.20315625C.06975 21.89428 0 22.93903 0 24c0 1.06116.06975 2.10572.20315625 3.13041H20.8695v20.66643C21.894281 47.93025 22.938844 48 24 48c1.060969 0 2.105719-.0697 3.130406-.20316V27.1305h20.666438C47.93025 26.10572 48 25.06116 48 24c0-1.06097-.06975-2.10572-.203156-3.13041z" />
	<path fill="#D80027" d="M30.260906 30.261l10.709625 10.70962c.492563-.49237.962438-1.00715 1.41075-1.54078l-9.168937-9.16893h-2.951438zm-12.521812 0h-.000188L7.029375 40.97053c.492375.49256 1.0071563.96244 1.5407813 1.41075l9.1689377-9.16912zm0-12.52172v-.00019L7.0294687 7.02938c-.4925625.49237-.9624375 1.00715-1.41075 1.54078l9.1690313 9.16903h2.951344zm12.521812 0L40.970625 7.02947c-.492375-.49256-1.007156-.96244-1.540781-1.41066l-9.168938 9.16903z" />
</svg>