<svg xmlns="http://www.w3.org/2000/svg" viewBox="0 0 48 48">
	<path fill="#6DA544" d="M48 24a24 24 0 0 1-24 24A24 24 0 0 1 0 24 24 24 0 0 1 24 0a24 24 0 0 1 24 24z" />
	<path fill="#F0F0F0" d="M13.56525 28.695656c0 1.728844 1.401563 3.130406 3.130406 3.130406h9.391313c0 1.44075 1.167937 2.608688 2.608687 2.608688h3.130406c1.44075 0 2.608688-1.167938 2.608688-2.608688v-3.130406zM34.695656 13.56525v7.304344c0 1.150781-.936187 2.086969-2.086969 2.086969v3.130406c2.876907 0 5.217375-2.340563 5.217375-5.217375V13.56525zm-22.43475 7.304344c0 1.150781-.936187 2.086969-2.086969 2.086969v3.130406c2.876907 0 5.217375-2.340563 5.217375-5.217375V13.56525h-3.130406z" />
	<path fill="#F0F0F0" d="M30 13.56525h3.130406v7.304344H30zm-4.695656 4.173844c0 .287719-.234094.521719-.521719.521719s-.521719-.234094-.521719-.521719v-4.173938H21.1305v4.173938c0 .287719-.234094.521719-.521719.521719s-.521718-.234094-.521718-.521719v-4.173938h-3.130501v4.173938c0 2.013844 1.638375 3.652219 3.652219 3.652219.775594 0 1.494844-.24375 2.086969-.65775.592031.413906 1.311375.65775 2.086969.65775.156187 0 .30975-.01097.460781-.03019-.221812.913969-1.044937 1.595344-2.026031 1.595344v3.130406c2.876906 0 5.217375-2.340562 5.217375-5.217375v-7.304344h-3.130407v4.173938z" />
	<path fill="#F0F0F0" d="M16.956562 22.956562h4.695657v3.130407h-4.695657z" />
</svg>