<svg xmlns="http://www.w3.org/2000/svg" viewBox="0 0 48 48">
	<path fill="#F0F0F0" d="M48 24a24 24 0 0 1-24 24A24 24 0 0 1 0 24 24 24 0 0 1 24 0a24 24 0 0 1 24 24z" />
	<path fill="#FF9811" d="M24 0C14.484938 0 6.2634375 5.5373437 2.3814375 13.56525H45.618469C41.736562 5.5373437 33.514969 0 24 0z" />
	<path fill="#6DA544" d="M24 48c9.514969 0 17.736562-5.537344 21.618563-13.56525H2.3814375C6.2634375 42.462656 14.484938 48 24 48z" />
	<path fill="#0052B4" d="M32.347781 24A8.3477812 8.3477812 0 0 1 24 32.347781 8.3477812 8.3477812 0 0 1 15.652219 24 8.3477812 8.3477812 0 0 1 24 15.652219 8.3477812 8.3477812 0 0 1 32.347781 24z" />
	<path fill="#F0F0F0" d="M29.217375 24A5.2173748 5.2173748 0 0 1 24 29.217375 5.2173748 5.2173748 0 0 1 18.782625 24 5.2173748 5.2173748 0 0 1 24 18.782625 5.2173748 5.2173748 0 0 1 29.217375 24z" />
	<path fill="#0052B4" d="M24 17.561813l1.609594 3.650437 3.966-.431344L27.219094 24l2.3565 3.219094-3.966-.431344L24 30.438187l-1.609594-3.650437-3.966.43125 2.3565-3.219-2.3565-3.219094 3.966.431344z" />
</svg>