<svg xmlns="http://www.w3.org/2000/svg" xmlns:xlink="http://www.w3.org/1999/xlink" viewBox="0 0 400 400"><defs><linearGradient id="b" x1="50%" x2="50%" y1="10.4834541%" y2="0%"><stop offset="0%" stop-color="#B70000"/><stop offset="100%" stop-color="#FF2E2E"/></linearGradient><circle id="a" cx="200" cy="200" r="200"/><linearGradient id="d" x1="94.2262842%" x2="34.9055035%" y1="28.4907593%" y2="61.944442%"><stop offset="0%" stop-color="#B70000"/><stop offset="100%" stop-color="#FF2E2E"/></linearGradient><path id="e" d="M47.9669921 283.361585C50 294 106.5 348.100006 147 350c0 0 5.349173-22.829066 9.349173-60.829066l-108.3821809-5.809349z"/><linearGradient id="f" x1="88.5585139%" x2="5.2684286%" y1="50%" y2="100%"><stop offset="0%" stop-color="#B70000"/><stop offset="100%" stop-color="#FF2E2E"/></linearGradient><path id="g" d="M156.113083 289.529294C161.722555 266.879371 170.638687 233.449196 182 206L47.9669921 283.361585l108.1460909 6.167709z"/><linearGradient id="h" x1="95.265027%" x2="11.9836703%" y1="9.31339475%" y2="62.083356%"><stop offset="0%" stop-color="#B70000"/><stop offset="100%" stop-color="#FF2E2E"/></linearGradient><path id="i" d="M181.481525 207.904079L7.67353742 200.180926C6 216 27 271 47.9669921 283.361585l133.5145329-75.457506z"/><linearGradient id="j" x1="67.1571358%" x2="0%" y1="76.5608676%" y2="94.3080635%"><stop offset="0%" stop-color="#B70000"/><stop offset="100%" stop-color="#FF2E2E"/></linearGradient><path id="k" d="M181.590803 208.515352C188.841359 190.997841 214.492994 142.62562 218 137L7.67353742 200.180926"/><linearGradient id="l" x1="80.6692233%" x2="0%" y1="52.1781387%" y2="50%"><stop offset="0%" stop-color="#B70000"/><stop offset="100%" stop-color="#FF2E2E"/></linearGradient><path id="m" d="M222.803032 137.962014L25.6208864 64.5172895C-4 94-4 185 7.67353742 200.180926L222.803032 137.962014z"/><linearGradient id="n" x1="76.622759%" x2="4.68864364%" y1="50%" y2="28.8778411%"><stop offset="0%" stop-color="#B70000"/><stop offset="100%" stop-color="#FF2E2E"/></linearGradient><linearGradient id="o" x1="93.7402776%" x2="8.89805333%" y1="5.41509121%" y2="10.9954581%"><stop offset="0%" stop-color="#B70000"/><stop offset="100%" stop-color="#FF2E2E"/></linearGradient><path id="p" d="M294.436688 37.8034369C314.590205 15.2276093 328 0 328 0L143.6018.1479927 78.8000031.20000076C49 18 33 32.2586447 25.6208864 64.5172895L294.436688 37.8034369z"/><linearGradient id="q" x1="10.9389566%" x2="55.0490395%" y1="11.4532129%" y2="91.1340832%"><stop offset="0%" stop-color="#D13700"/><stop offset="100%" stop-color="#F94721"/></linearGradient><path id="r" d="M133.869995 334.920013S61.6806184 298.834824 25.58593 280.79223c-1.8619767-.930743-48.8673259 49.404649-9.7266279 63.30621C55 358 108 349 133.869995 334.920013z"/><linearGradient id="s" x1="11.961026%" y1="33.2900315%" y2="100%"><stop offset="0%" stop-color="#B70000"/><stop offset="100%" stop-color="#FF2E2E"/></linearGradient><path id="t" d="M133.869995 334.920013L49 203s-10.3108309 26.668855-17 48c-5.2712037 16.809384-9.0106462 32.08015-8.2179909 32.476373 36.1581284 18.074306 110.0879859 51.44364 110.0879859 51.44364z"/><linearGradient id="u" x1="4.79679953%" x2="78.8898107%" y1="0%" y2="76.4422829%"><stop offset="0%" stop-color="#B70000"/><stop offset="100%" stop-color="#FF2E2E"/></linearGradient><path id="v" d="M133.865442 334.917273C171 327 221 279 226.559998 259.76001L49 204l84.865442 130.917273z"/><linearGradient id="w" x1="11.9836705%" x2="85.8910618%" y1="20.0165789%" y2="85.8681926%"><stop offset="0%" stop-color="#B70000"/><stop offset="100%" stop-color="#FF2E2E"/></linearGradient><path id="x" d="M226.555289 259.760502s-93.00061-85.753657-140.179981-127.125237C85.8764941 132.197855 70.7924746 155.716616 62 173c-8.9352163 17.563971-14.2333494 31.678723-13.4146916 31.934664 58.8941926 18.412374 177.9699806 54.825838 177.9699806 54.825838z"/><linearGradient id="y" x1="0%" x2="95.6930989%" y1="3.65270201%" y2="50%"><stop offset="0%" stop-color="#B70000"/><stop offset="100%" stop-color="#FF2E2E"/></linearGradient><path id="z" d="M226.559998 259.76001C249 237 265 201 260 149L82 133l144.559998 126.76001z"/><linearGradient id="A" x1="20.672013%" x2="97.3570207%" y1="38.8371981%" y2="100%"><stop offset="0%" stop-color="#B70000"/><stop offset="100%" stop-color="#FF2E2E"/></linearGradient><path id="B" d="M260 149s-65.123369-77.191737-99-114c-.378718-.411492-21.690763 24.2336046-39 47-18.799148 24.726037-37.7764179 52.93021-37 53 57.842032 5.199284 175 14 175 14z"/><linearGradient id="C" x1="25.0561659%" y1="10.0003418%" y2="88.6450269%"><stop offset="0%" stop-color="#B70000"/><stop offset="100%" stop-color="#FF2E2E"/></linearGradient><path id="D" d="M260 149C260 57 211 12 193.973646.68048108 193.973646.68048108 177 18 158 38l102 111z"/></defs><g fill="none" fill-rule="evenodd"><mask id="c" fill="#fff"><use xlink:href="#a"/></mask><use fill="url(#b)" xlink:href="#a"/><g mask="url(#c)"><g transform="translate(-3 43)"><use fill="url(#d)" xlink:href="#e"/><use fill="#FD4B00" style="mix-blend-mode:lighten" xlink:href="#e"/></g><g transform="translate(-3 43)"><use fill="url(#f)" xlink:href="#g"/><use fill="#FD4B00" fill-opacity=".8" style="mix-blend-mode:lighten" xlink:href="#g"/></g><g transform="translate(-3 43)"><use fill="url(#h)" xlink:href="#i"/><use fill="#FD4B00" fill-opacity=".6" style="mix-blend-mode:lighten" xlink:href="#i"/></g><g transform="translate(-3 43)"><use fill="url(#j)" xlink:href="#k"/><use fill="#FD4B00" fill-opacity=".4" style="mix-blend-mode:lighten" xlink:href="#k"/></g><g transform="translate(-3 43)"><use fill="url(#l)" xlink:href="#m"/><use fill="#FD4B00" fill-opacity=".2" style="mix-blend-mode:lighten" xlink:href="#m"/></g><path fill="url(#n)" d="M217.997639 137.366948C247.997639 95.3669482 276.094955 56.2974912 296 34L25.6208864 64.5172895 217.997639 137.366948z" transform="translate(-3 43)"/><g transform="translate(-3 43)"><use fill="url(#o)" xlink:href="#p"/><use fill="#632003" fill-opacity=".1" xlink:href="#p"/></g></g><g mask="url(#c)"><g transform="translate(140 51)"><use fill="url(#q)" xlink:href="#r"/><use fill="#FD4B00" style="mix-blend-mode:lighten" xlink:href="#r"/></g><g transform="translate(140 51)"><use fill="url(#s)" xlink:href="#t"/><use fill="#FD4B00" fill-opacity=".8" style="mix-blend-mode:lighten" xlink:href="#t"/></g><g transform="translate(140 51)"><use fill="url(#u)" xlink:href="#v"/><use fill="#FD4B00" fill-opacity=".6" style="mix-blend-mode:lighten" xlink:href="#v"/></g><g transform="translate(140 51)"><use fill="url(#w)" xlink:href="#x"/><use fill="#FD4B00" fill-opacity=".4" style="mix-blend-mode:lighten" xlink:href="#x"/></g><g transform="translate(140 51)"><use fill="url(#y)" xlink:href="#z"/><use fill="#FD4B00" fill-opacity=".2" style="mix-blend-mode:lighten" xlink:href="#z"/></g><g transform="translate(140 51)"><use fill="url(#A)" xlink:href="#B"/><use fill="#FD4B00" fill-opacity="0" xlink:href="#B"/></g><g transform="translate(140 51)"><use fill="url(#C)" xlink:href="#D"/><use fill="#632003" fill-opacity=".1" xlink:href="#D"/></g></g><g fill="#FFF" mask="url(#c)"><path d="M75.6 43.211277h249.2c-27.600138 27.600138-52.699887 56.199852-75.3 85.8-22.600113 29.600148-41.999919 60.699837-58.2 93.3-16.200081 32.600163-28.599957 66.89982-37.2 102.9-8.600043 36.00018-12.700002 73.9998-12.3 114h12c0-40.800204 4.399956-78.899823 13.2-114.3s21.19992-68.999841 37.2-100.8c16.00008-31.800159 35.399886-62.299854 58.2-91.5 22.800114-29.200146 47.999862-57.599862 75.6-85.2v-16.2H75.6v12z"/></g></g></svg>