<svg xmlns="http://www.w3.org/2000/svg" viewBox="0 0 48 48">
	<path fill="#E69F5F" d="M41.37922553 41.37931008s-6.09351749 2.48275872-17.37931104 2.48275872c-11.28579356 0-17.37941449-2.48275872-17.37941449-2.48275872l2.18865526-27.35844937C9.44267253 6.10282591 16.05322452-.00000192 23.9965007-.00000192h.00662068c7.94337963 0 14.55393162 6.10282783 15.18734544 14.02086263z" />
	<path fill="#FFD7A3" d="M39.660741 42.826653l-.157862-.540724c-.07624-.261207-.330724-.421345-.592448-.388034l-.551793-4.138138c-.181241-1.359518-1.024345-2.540793-2.251035-3.154138l-1.78262-.891311c-.265552-.132827-.57-.015-.699931.236897l-3.527897-1.298069c-.675931-.22531-1.131724-.857793-1.131724-1.570241v-2.669173l3.564931-1.485414c1.850483-.770896 3.055759-2.578862 3.055759-4.583482v-.827587c1.371207 0 2.482758-1.111551 2.482758-2.482758s-1.111551-2.482759-2.482758-2.482759V14.89655c0-2.285276-1.852655-5.7931036-4.137931-5.7931036H16.551638c-2.285276 0-4.137931 3.5078276-4.137931 5.7931036v1.655172c-1.371207 0-2.4827595 1.111552-2.4827595 2.482759s1.1115525 2.482758 2.4827595 2.482758v.827587c0 2.00462 1.205276 3.812586 3.055655 4.583586l3.565035 1.485517v2.669069c0 .712448-.455897 1.344931-1.131725 1.570241l-3.527689 1.297966c-.128483-.252207-.432311-.370655-.697449-.238138l-1.625586.812793c-1.387241.693621-2.2295175 1.874586-2.4107585 3.234l-.551793 4.138138c-.261725-.03331-.516104.126828-.592449.388034l-.157862.540725c-.08452.289551.08172.592655.371173.677172l1.220689.355966v2.484931c0 .914069.7411045 1.655172 1.6551735 1.655172H36.413707c.914069 0 1.655172-.741103 1.655172-1.655172v-2.484931l1.220587-.356069c.289448-.08441.455689-.387621.371275-.677173z" />
	<path fill="#FFE1B2" d="M35.586121 16.551722V14.89655c0-2.285276-1.852655-5.7931036-4.137931-5.7931036H16.551638c-2.285276 0-4.137931 3.5078276-4.137931 5.7931036v1.655172c-1.371207 0-2.4827595 1.111552-2.4827595 2.482759s1.1115525 2.482758 2.4827595 2.482758v.827587c0 2.00462 1.205276 3.812586 3.055655 4.583586l5.347345 2.228069c1.008621.42031 2.090483.63662 3.183103.63662 1.092621 0 2.17438-.216413 3.183-.63662l5.347656-2.228173c1.850379-.770896 3.055655-2.578862 3.055655-4.583482v-.827587c1.371207 0 2.482758-1.111551 2.482758-2.482758s-1.111551-2.482759-2.482758-2.482759z" />
	<path fill="#623F33" d="M29.79301817 19.86206784c-.45517243 0-.82758624-.3724138-.82758624-.82758624v-.82758624c0-.45517243.3724138-.82758624.82758624-.82758624.45517243 0 .82758624.3724138.82758624.82758624v.82758624c0 .45517243-.37251726.82758624-.82758624.82758624z" />
	<path fill="#E4B07B" d="M23.99981104 25.6778267c-1.47134489 0-2.8476208-.36206899-3.77586222-.99362074-.37779312-.25696552-.47606898-.77182761-.21858622-1.14962073.25655174-.37737933.77182762-.4756552 1.14962074-.21858622.65058623.4424483 1.714138.70675865 2.8448277.70675865 1.1306897 0 2.19424147-.26431035 2.8448277-.70675865.3786207-.25779311.8926552-.1592069 1.14962074.21858622.25737932.37779312.1592069.8926552-.21858622 1.14962073-.92803452.63155175-2.30441389.99362073-3.77586222.99362073z" />
	<path fill="#FF6473" d="M39.01967371 42.71751703l-.6610345-4.95775882c-.1812414-1.3595173-1.02434488-2.5407932-2.25103458-3.15413806l-1.78262076-.89131038c-.30196553-.15103449-.65451727.02193104-.74317245.34779312-1.14724142 4.21665534-5.00193123 7.31751753-9.58210383 7.31751753-4.58120708 0-8.43672447-3.10241391-9.58293142-7.32072443-.08813793-.3242069-.4388276-.4962414-.7392414-.3460345l-1.62558628.81279314c-1.38724143.69362072-2.22951733 1.87458629-2.41075871 3.23400013l-.6736552 5.0520002c2.18627595.75289659 5.92882782 1.87800008 5.92882782 1.87800008V48h18.20689728v-3.31034496z" />
	<path fill="#F05467" d="M14.87587964 44.43682744c-.0505862-.98410348-.37913795-1.93500007-.97262073-2.72637942l-3.88520705-5.18027607c-.18755173.38627588-.31934484.79737935-.37706898 1.2296897l-.65596554 4.92010365z" />
	<path fill="#D4445A" d="M8.33908628 42.82665497c-.08451725.28955173.08172414.59275864.37117242.67717244l6.1861037 1.8045518v-.61872417c0-.39093105-.06144828-.77389658-.15113794-1.14962074L9.1739139 41.91486183c-.2894483-.0844138-.59255175.08172414-.67696555.37117242z" />
	<path fill="#F05467" d="M33.12384589 44.43682744c.0505862-.98410348.37913794-1.93500007.97262073-2.72637942l3.88520705-5.18027607c.18755173.38627588.31934484.79737935.37706898 1.2296897l.65596554 4.92010365z" />
	<path fill="#D4445A" d="M39.6607427 42.82665497c.08451725.28955173-.08172414.59275864-.37117243.67717244l-6.18620714 1.8045518v-.61872417c0-.39093105.06144828-.77389658.15113794-1.14962074l5.57131056-1.62517247c.28944829-.0844138.59255175.08172414.67696555.37117242z" />
	<path fill="#623F33" d="M18.20670736 19.86206784c-.45517243 0-.82758624-.3724138-.82758624-.82758624v-.82758624c0-.45517243.3724138-.82758624.82758624-.82758624.45517243 0 .82758624.3724138.82758624.82758624v.82758624c0 .45517243-.3724138.82758624-.82758624.82758624z" />
	<path fill="#E69F5F" d="M10.730603 11.68717l.02793 5.490828c7.810449 0 14.286104-2.440448 18.534621-4.638-1.320103 1.432034-3.305896 3.38131-6.120931 5.666897 0 0 7.368621-2.930069 11.496414-6.569069v-.000311c0-5.3990686-4.376793-9.7758617-9.775862-9.7758617h-4.386517c-5.418414 0-9.803276 4.4072069-9.775655 9.8255167z" />
</svg>