<svg xmlns="http://www.w3.org/2000/svg" viewBox="0 0 48 48">
	<path fill="#1EA361" d="M1.5e-7 43.68518774V9.52121219c0-1.98556513 1.63925457-3.59814204 3.6601202-3.59814204h34.7558607z" />
	<path fill="#FEDB43" d="M1.5e-7 44.40185797v-.7167621l38.4159809-37.76138263h.72948184c2.02086564 0 3.66086792 1.61193382 3.66086792 3.59713147v.71804826L4.38960219 47.99990813h-.72948184c-2.02086563 0-3.6601202-1.61202569-3.6601202-3.59805016" />
	<path fill="#5384C4" d="M4.38941526 47.99990813l17.01389041-16.72273397 17.01267539 16.72273397z" />
	<path fill="#FFFFFF" d="M38.41598106 47.99990813L21.40330567 31.27717416l4.38950858-4.31545534 17.01370349 16.72346892v.7167621C42.80651774 46.38733122 41.16632853 48 39.14546289 48h-.72948183z" />
	<path fill="#C2C2C1" d="M42.80651774 43.68518774L25.79281425 26.96171882l17.01370349-16.72282585z" />
	<path fill="#EFEFEF" d="M7.63521222 10.57494985c2.1779776-.98024244 4.90290304-.5803366 6.67151095 1.02332901-.55292947.55433767-1.12184119 1.09627302-1.69019212 1.63554417-1.76898177-1.72603515-5.09291413-.90693097-5.92193449 1.37573857-1.08436237 2.24638128.71742506 5.1998784 3.26729354 5.23203256 1.66869554.19108756 3.33262445-.90729844 3.68479454-2.54091336-1.1654886.00202112-2.32910792-.00872755-3.49207301.0086357-.03308604-.70472726-.03757229-1.41211872-.02205736-2.1194183 1.94590798.04970114 3.94060387-.10932413 5.85837937.07744558.14636369 1.3990733.04579707 2.8847791-.71976164 4.11205734-1.20035045 2.1964964-4.03453459 3.15533336-6.43336621 2.60090382-2.96512637-.60413067-5.1846952-3.59400793-4.78027906-6.55604887.20776914-2.089469 1.6443016-3.98325697 3.57768549-4.84930622" />
	<path fill="#DC4B3E" d="M35.32972613-.00000117h1.39138963c3.46833331.19549727 6.85918546 1.86062326 8.96136426 4.60052491 1.37680934 1.73072047 2.14498503 3.87861816 2.31751846 6.06041551v.80964168c-.08047198 4.22909846-2.83390375 7.70046125-5.2175943 10.99010712-2.67660485 3.71702055-5.14955295 7.76798499-5.83492006 12.34940114-.18356212.775742.03663765 1.8622769-.9070623 2.2131247-.22178865-.17014143-.48021495-.3105173-.63592497-.54790684-.2793621-2.5612164-.93042815-5.09064614-2.04236222-7.42972325-1.26138205-2.72511074-3.01755933-5.18793543-4.80177564-7.59811917-1.08613817-1.44519156-2.1105905-2.94100294-2.95792968-4.53538978-1.33129267-2.38914574-1.82683562-5.21274006-1.2826917-7.8936618.44600734-2.11693783 1.57298902-4.0780658 3.13317355-5.59454772 2.10199187-2.02047535 4.94458772-3.24306827 7.87681497-3.4238665m-.27085694 7.44929135c-1.6453297.36076964-3.02625143 1.79117028-3.16485765 3.4653913-.17290729 1.55855793.7553712 3.14045058 2.17666912 3.82873328 1.54074415.80082225 3.5641333.5554401 4.85084393-.60220142 1.20156547-1.0447345 1.63925457-2.84885831 1.01164784-4.30884078-.74256671-1.82709107-2.94708793-2.86759959-4.87430324-2.38308238" />
	<path fill="#802C27" d="M35.0588692 7.44929018c1.9272153-.48451721 4.13173652.55599131 4.87430323 2.38299051.62760673 1.46007434.18991763 3.26410628-1.01164784 4.30884078-1.2868041 1.15764152-3.31009978 1.4029318-4.85084393.60220142-1.42129792-.6882827-2.3495764-2.27017535-2.17666912-3.82873327.13860622-1.67412916 1.51952796-3.1045298 3.16485765-3.46529944" />
</svg>