<svg xmlns="http://www.w3.org/2000/svg" viewBox="0 0 48 48">
	<path fill="#28B446" d="M41.38222 13.14706v31.76078c0 1.70803-1.38544 3.09216-3.09216 3.09216H9.709662C8.001628 48 6.6175 46.61587 6.6175 44.90784V3.09216C6.617406 1.38413 8.001534 0 9.709662 0h18.525505z" />
	<path fill="#219B38" d="M34.94524135 11.2464591l-4.91635319 1.6149406 11.3533343 4.67729022V13.1470565z" />
	<path fill="#6ACE7C" d="M41.38222 13.14706H31.327329c-1.708128 0-3.092162-1.38413-3.092162-3.09217V0z" />
	<path fill="#FFFFFF" d="M31.604361 23.90123H16.394425c-.545626 0-.987752.44222-.987752.98776v13.23462c0 .54543.442126.98775.987752.98775h15.209936c.545626 0 .987752-.44222.987752-.98775V24.88899c0-.54544-.442126-.98776-.987752-.98776zM17.382177 30.2515h5.629511v2.50997h-5.629511zm7.604921 0h5.629511v2.50997h-5.629511zm5.629605-1.97541h-5.629511v-2.39935h5.629511zm-7.605015-2.39935v2.39925h-5.629511v-2.39925zm-5.629511 8.86014h5.629511v2.39926h-5.629511zm7.604921 2.39916v-2.39925h5.629511v2.39925z" />
</svg>