<svg xmlns="http://www.w3.org/2000/svg" viewBox="0 0 48 48">
	<path fill="#FBBC04" d="M22.909849.0714154c.34636-.070908 1.718164-.068181 2.045433-.070908 9.34081-.073636 22.295219 7.8735532 23.042484 22.9852116v18.867073C47.997766 45.248211 45.194159 48 41.787831 48c-2.454519 0-5.789939-3.144512-5.789939-6.136299V22.996628c-.34636-4.979948-4.382681-10.584434-11.178972-11.007157-.419996-.02727-1.374531-.04364-1.911798.02727" />
	<path fill="#4285F4" d="M47.992311 42.000063C47.992311 45.313665 45.305976 48 41.992375 48c-3.313602 0-5.994483-2.686335-5.994483-5.999937 0-3.313601 2.680881-5.999936 5.994483-5.999936 3.313601 0 5.999936 2.686335 5.999936 5.999936z" />
	<path fill="#EA4335" d="M23.234391 47.792729c3.436327 0 6.220843-2.732698 6.220843-6.100844 0-3.370874-2.852697-5.817211-6.286297-5.817211-.02182 0-.04364.0027-.06545.0027-5.90721-.409087-11.432606-5.609941-11.028974-12.738957 0 0 .0027-.03545.0082-.114544.340905-5.593577 5.113582-10.668978 11.154427-11.018065 3.436327 0 6.220844-2.4654287 6.220844-5.8335749 0-3.3681463-2.787244-6.1035719-6.223571-6.1035719-.13909 0-.278179-.00818-.417268 0C12.396324.4314116.123726 9.10132.001 23.836619v.09c0 14.953478 13.115316 23.863384 22.889758 23.863384h.343633z" />
</svg>