<svg xmlns="http://www.w3.org/2000/svg" viewBox="0 0 48 48">
	<path fill="#E0E0D3" d="M7.155276 0C6.258373 0 5.5245.73387 5.5245 1.63077l.000094 45.17414c0 .8969.653529 1.29693 1.45237.88912l1.714213-.87553c.798842-.4079 2.105806-.4079 2.904647 0l1.71412.87553c.798841.40791 2.105806.408 2.904647 0l1.714307-.87553c.798841-.4079 2.105806-.4079 2.904647 0l1.71412.87553c.798841.40791 2.105806.408 2.904647 0l1.714213-.87553c.798841-.4079 2.105806-.4079 2.904647 0l1.71412.87553c.798841.40791 2.105805.40791 2.904647 0l1.714213-.87553c.798841-.4079 2.105806-.4079 2.904647 0l1.71412.87553c.798841.40791 1.45237.008 1.45237-.88912V1.63077C42.47557.73387 41.741791 0 40.844794 0z" />
	<path fill="#5C6670" d="M28.4692699 7.0159463H10.626452c-.45027981 0-.81534115-.36506133-.81534115-.81534114s.36506134-.81534114.81534115-.81534114h17.8428179c.4502798 0 .81534114.36506133.81534114.81534114 0 .4502798-.36506133.81534114-.81534114.81534114zM22.03860298 11.56486924H10.626452c-.45027981 0-.81534115-.36506133-.81534115-.81534114 0-.4502798.36506134-.81534114.81534115-.81534114h11.41215098c.4502798 0 .81534114.36506133.81534114.81534114 0 .45037356-.36506133.81534114-.81534114.81534114zM28.4692699 16.11369844H10.626452c-.45027981 0-.81534115-.36506134-.81534115-.81534114 0-.45027981.36506134-.81534115.81534115-.81534115h17.8428179c.4502798 0 .81534114.36506134.81534114.81534115 0 .4502798-.36506133.81534114-.81534114.81534114zM22.03860298 20.66234013H10.626452c-.45027981 0-.81534115-.36506133-.81534115-.81534114s.36506134-.81534114.81534115-.81534114h11.41215098c.4502798 0 .81534114.36506133.81534114.81534114 0 .4502798-.36506133.81534114-.81534114.81534114zM17.00405659 25.21116932h-6.3776046c-.4502798 0-.81534114-.36506133-.81534114-.81534114 0-.4502798.36506134-.81534114.81534115-.81534114h6.37760459c.4502798 0 .81534114.36506133.81534114.81534114s-.36506133.81534114-.81534114.81534114zM22.03860298 29.75990477H10.626452c-.45027981 0-.81534115-.36506133-.81534115-.81534114s.36506134-.81534114.81534115-.81534114h11.41215098c.4502798 0 .81534114.36506133.81534114.81534114 0 .4502798-.36506133.81534114-.81534114.81534114z" />
	<path fill="#333E48" d="M37.44074119 7.0159463h-3.51036377c-.4502798 0-.81534114-.36506133-.81534114-.81534114s.36506133-.81534114.81534114-.81534114h3.51036377c.4502798 0 .81534114.36506133.81534114.81534114 0 .4502798-.36496758.81534114-.81534114.81534114zM37.44074119 11.56486924h-3.51036377c-.4502798 0-.81534114-.36506133-.81534114-.81534114 0-.4502798.36506133-.81534114.81534114-.81534114h3.51036377c.4502798 0 .81534114.36506133.81534114.81534114 0 .45037356-.36496758.81534114-.81534114.81534114zM37.44074119 16.11369844h-3.51036377c-.4502798 0-.81534114-.36506134-.81534114-.81534114 0-.45027981.36506133-.81534115.81534114-.81534115h3.51036377c.4502798 0 .81534114.36506134.81534114.81534115 0 .4502798-.36496758.81534114-.81534114.81534114zM37.44074119 20.66234013h-3.51036377c-.4502798 0-.81534114-.36506133-.81534114-.81534114s.36506133-.81534114.81534114-.81534114h3.51036377c.4502798 0 .81534114.36506133.81534114.81534114 0 .4502798-.36496758.81534114-.81534114.81534114zM37.44074119 25.21116932h-3.51036377c-.4502798 0-.81534114-.36506133-.81534114-.81534114 0-.4502798.36506133-.81534114.81534114-.81534114h3.51036377c.4502798 0 .81534114.36506133.81534114.81534114s-.36496758.81534114-.81534114.81534114zM37.44074119 29.75990477h-3.51036377c-.4502798 0-.81534114-.36506133-.81534114-.81534114s.36506133-.81534114.81534114-.81534114h3.51036377c.4502798 0 .81534114.36506133.81534114.81534114 0 .4502798-.36496758.81534114-.81534114.81534114zM35.77593402 33.83576673c.27581161 0 .49462341.2188118.49462341.49452966v.13331208c.51356086.07612475.97021565.22828052 1.37915184.45646729.18074942.10471841.34246766.28546783.34246766.57074817 0 .36149884-.2853741.63731046-.64677919.63731046-.11418713 0-.22837426-.0284999-.33299893-.08568723-.2663429-.14278079-.5326858-.25668667-.78946622-.32343646v1.44580787c1.44580787.38999875 2.06408714.97987187 2.06408714 2.04524346 0 1.06527784-.81796613 1.7501194-2.0164623 1.88324397v.50418589c0 .27571787-.2188118.49452967-.49462341.49452967-.27581162 0-.49452967-.2189993-.49452967-.49452967v-.51374836c-.67546659-.08559347-1.31277705-.32343646-1.87396275-.66581037-.19968686-.1237496-.32343647-.313874-.32343647-.57074817 0-.37096756.28537409-.64677918.65634165-.64677918.1235621 0 .25678043.04762485.37106131.1237496.39956122.25678043.77990376.4374361 1.21752736.53259205v-1.51246391c-1.36977687-.37096757-2.04505596-.8940909-2.04505596-2.02611852 0-1.0461529.7990287-1.7501194 1.99752486-1.8736815v-.11428089c0-.27553037.21871805-.49443591.49452967-.49443591zm-.44699857 3.08202138v-1.28427714c-.4566548.06656229-.65634165.29493656-.65634165.59934183 0 .29484281.13303082.49452967.65634165.68493531zm.89409089 1.66461968v1.32205827c.44699857-.0665623.67537284-.27590537.67537284-.61837303 0-.31378024-.16171824-.52293582-.67537284-.70368524z" />
	<path fill="#5C6670" d="M9.7126732 35.49469h17.352133v5.1027966H9.7126732z" />
</svg>