<svg xmlns="http://www.w3.org/2000/svg" viewBox="0 0 128 108">
	<path d="M76.16 99.893l-6.334 3.75v-7.836l6.335-3.741zm0 0" fill="#E19400" />
	<path d="M69.826 103.642l-12.31-3.92v-7.834l12.31 3.92zm0 0" fill="#FFBA23" />
	<path d="M69.826 95.807l-12.31-3.92 6.335-3.74 12.31 3.919zm0 0" fill="#FFD46B" />
	<path d="M60.283 91.888h3.598V90.81h-3.594zm0 0" fill="#E19400" />
	<path d="M63.88 91.888c0 .446-.804.805-1.798.805s-1.795-.36-1.795-.805c0-.442.8-.805 1.795-.805.994 0 1.799.363 1.799.805" fill="#E19400" />
	<path d="M63.88 90.81c0 .447-.804.806-1.798.806s-1.795-.36-1.795-.805c0-.446.8-.805 1.795-.805.994 0 1.799.359 1.799.805" fill="#FFD46B" />
	<path d="M63.518 89.87h3.598v-1.078h-3.598zm0 0" fill="#E19400" />
	<path d="M67.116 89.87c0 .446-.805.808-1.799.808-.994 0-1.799-.362-1.799-.808 0-.443.805-.805 1.8-.805.993 0 1.798.362 1.798.805" fill="#E19400" />
	<path d="M67.116 88.792c0 .443-.805.805-1.799.805-.994 0-1.799-.362-1.799-.805 0-.446.805-.805 1.8-.805.993 0 1.798.36 1.798.805" fill="#FFD46B" />
	<path d="M66.86 94.035h3.59v-1.081h-3.59zm0 0" fill="#E19400" />
	<path d="M70.45 94.035c0 .446-.802.805-1.796.805s-1.799-.36-1.799-.805c0-.446.805-.805 1.8-.805.993 0 1.795.359 1.795.805" fill="#E19400" />
	<path d="M70.45 92.954c0 .446-.802.809-1.796.809s-1.799-.363-1.799-.81c0-.442.805-.804 1.8-.804.993 0 1.795.362 1.795.805" fill="#FFD46B" />
	<path d="M69.973 92.156h3.591v-1.08h-3.59zm0 0" fill="#E19400" />
	<path d="M73.568 92.156c0 .446-.805.805-1.8.805-.99 0-1.795-.359-1.795-.805 0-.446.806-.805 1.796-.805.994 0 1.799.36 1.799.805" fill="#E19400" />
	<path d="M73.568 91.075c0 .446-.805.805-1.8.805-.99 0-1.795-.359-1.795-.805 0-.442.806-.805 1.796-.805.994 0 1.799.363 1.799.805" fill="#FFD46B" />
	<path d="M22.805 92.228l-6.334 3.75v-7.84l6.334-3.741zm0 0" fill="#C21E3F" />
	<path d="M16.471 95.977l-12.31-3.919v-7.835l12.31 3.92zm0 0" fill="#F52E45" />
	<path d="M16.471 88.139l-12.31-3.916 6.335-3.742 12.31 3.92zm0 0" fill="#FF4A66" />
	<path d="M6.932 84.227h3.594v-1.081H6.932zm0 0" fill="#B5112E" />
	<path d="M10.526 84.227c0 .442-.805.805-1.795.805-.994 0-1.8-.363-1.8-.805 0-.446.806-.805 1.8-.805.99 0 1.795.359 1.795.805" fill="#B5112E" />
	<path d="M10.526 83.146c0 .446-.805.805-1.795.805-.994 0-1.8-.36-1.8-.805 0-.446.806-.805 1.8-.805.99 0 1.795.359 1.795.805" fill="#FF4A66" />
	<path d="M10.167 82.205h3.59v-1.077h-3.59zm0 0" fill="#B5112E" />
	<path d="M13.757 82.205c0 .446-.8.809-1.795.809-.99 0-1.799-.363-1.799-.81 0-.441.809-.804 1.8-.804.993 0 1.798.363 1.798.805" fill="#B5112E" />
	<path d="M13.757 81.128c0 .446-.8.805-1.795.805-.99 0-1.799-.36-1.799-.805 0-.446.809-.805 1.8-.805.993 0 1.798.359 1.798.805" fill="#FF4A66" />
	<path d="M13.5 86.37h3.598v-1.077H13.5zm0 0" fill="#B5112E" />
	<path d="M17.098 86.37c0 .446-.805.805-1.799.805-.99 0-1.799-.36-1.799-.805 0-.442.81-.805 1.8-.805.993 0 1.798.363 1.798.805" fill="#B5112E" />
	<path d="M17.098 85.293c0 .442-.805.805-1.799.805-.99 0-1.799-.363-1.799-.805 0-.446.81-.805 1.8-.805.993 0 1.798.359 1.798.805" fill="#FF4A66" />
	<path d="M16.618 84.491h3.59v-1.077h-3.59zm0 0" fill="#B5112E" />
	<path d="M20.213 84.491c0 .446-.805.805-1.796.805-.994 0-1.799-.359-1.799-.805 0-.446.805-.805 1.8-.805.99 0 1.795.36 1.795.805" fill="#B5112E" />
	<path d="M20.213 83.414c0 .442-.805.805-1.796.805-.994 0-1.799-.363-1.799-.805 0-.446.805-.805 1.8-.805.99 0 1.795.36 1.795.805" fill="#FF4A66" />
	<path d="M27.757 104.25L34.09 108v-7.835l-6.334-3.742zm0 0" fill="#00A1D4" />
	<path d="M34.091 108l12.31-3.92v-7.834l-12.31 3.919zm0 0" fill="#0085B8" />
	<path d="M34.091 100.165l12.31-3.92-6.33-3.741-12.314 3.92zm0 0" fill="#30CCF5" />
	<path d="M43.634 96.246h-3.598v-1.077h3.598zm0 0" fill="#0085B8" />
	<path d="M40.036 96.246c0 .446.805.808 1.8.808.993 0 1.798-.362 1.798-.808 0-.443-.805-.805-1.799-.805-.994 0-1.799.362-1.799.805" fill="#0085B8" />
	<path d="M40.036 95.169c0 .445.805.805 1.8.805.993 0 1.798-.36 1.798-.805 0-.446-.805-.806-1.799-.806-.994 0-1.799.36-1.799.806" fill="#30CCF5" />
	<path d="M40.403 94.231h-3.598v-1.08h3.594zm0 0" fill="#0085B8" />
	<path d="M36.805 94.231c0 .442.805.805 1.795.805.994 0 1.799-.363 1.799-.805 0-.446-.805-.809-1.8-.809-.99 0-1.794.363-1.794.81" fill="#0085B8" />
	<path d="M36.805 93.15c0 .442.805.805 1.795.805.994 0 1.799-.359 1.799-.805 0-.446-.805-.805-1.8-.805-.99 0-1.794.36-1.794.805" fill="#30CCF5" />
	<path d="M37.062 98.392h-3.595v-1.077h3.595zm0 0" fill="#0085B8" />
	<path d="M33.467 98.392c0 .446.805.805 1.8.805.99 0 1.795-.359 1.795-.805 0-.446-.805-.805-1.796-.805-.994 0-1.799.36-1.799.805" fill="#0085B8" />
	<path d="M33.467 97.315c0 .442.805.805 1.8.805.99 0 1.795-.363 1.795-.805 0-.446-.805-.809-1.796-.809-.994 0-1.799.363-1.799.81" fill="#30CCF5" />
	<path d="M33.947 96.514H30.35v-1.08h3.598zm0 0" fill="#0085B8" />
	<path d="M30.35 96.514c0 .446.808.805 1.798.805.994 0 1.8-.359 1.8-.805 0-.446-.806-.805-1.8-.805-.99 0-1.799.359-1.799.805" fill="#0085B8" />
	<path d="M30.35 95.433c0 .446.808.809 1.798.809.994 0 1.8-.363 1.8-.809 0-.442-.806-.805-1.8-.805-.99 0-1.799.363-1.799.805" fill="#30CCF5" />
	<path d="M87.446 102.214l6.334 3.745v-7.835l-6.334-3.742zm0 0" fill="#F52E45" />
	<path d="M93.78 105.96l12.31-3.913V94.21l-12.31 3.919zm0 0" fill="#C21E3F" />
	<path d="M93.78 98.124l12.31-3.92-6.33-3.741-12.314 3.92zm0 0" fill="#FF4A66" />
	<path d="M103.324 94.209h-3.598v-1.081h3.598zm0 0" fill="#B5112E" />
	<path d="M99.726 94.209c0 .445.805.805 1.799.805.994 0 1.799-.36 1.799-.805 0-.446-.805-.806-1.8-.806-.993 0-1.798.36-1.798.806" fill="#B5112E" />
	<path d="M99.726 93.128c0 .446.805.808 1.799.808.994 0 1.799-.362 1.799-.808 0-.443-.805-.805-1.8-.805-.993 0-1.798.362-1.798.805" fill="#FF4A66" />
	<path d="M100.088 92.19h-3.594v-1.08h3.59zm0 0" fill="#B5112E" />
	<path d="M96.49 92.19c0 .442.805.805 1.8.805.993 0 1.798-.363 1.798-.805 0-.446-.805-.805-1.799-.805-.994 0-1.795.36-1.795.805" fill="#B5112E" />
	<path d="M96.49 91.11c0 .445.805.804 1.8.804.993 0 1.798-.359 1.798-.805 0-.442-.805-.805-1.799-.805-.994 0-1.795.363-1.795.805" fill="#FF4A66" />
	<path d="M96.755 96.355h-3.598v-1.08h3.594zm0 0" fill="#B5112E" />
	<path d="M93.157 96.355c0 .442.805.805 1.795.805.994 0 1.8-.363 1.8-.805 0-.446-.806-.809-1.8-.809-.99 0-1.795.363-1.795.81" fill="#B5112E" />
	<path d="M93.157 95.274c0 .446.805.805 1.795.805.994 0 1.8-.359 1.8-.805 0-.446-.806-.805-1.8-.805-.99 0-1.795.36-1.795.805" fill="#FF4A66" />
	<path d="M93.637 94.473h-3.598v-1.077h3.598zm0 0" fill="#B5112E" />
	<path d="M90.039 94.473c0 .446.805.809 1.799.809.994 0 1.799-.363 1.799-.809 0-.442-.805-.805-1.8-.805-.993 0-1.798.363-1.798.805" fill="#B5112E" />
	<path d="M90.039 93.392c0 .446.805.809 1.799.809.994 0 1.799-.363 1.799-.805 0-.446-.805-.805-1.8-.805-.993 0-1.798.359-1.798.805" fill="#FF4A66" />
	<path d="M18.644 73.49l-6.33 3.748v-7.835l6.33-3.741zm0 0" fill="#0085B8" />
	<path d="M12.314 77.238L0 73.32v-7.835l12.314 3.92zm0 0" fill="#00A1D4" />
	<path d="M12.314 69.403L0 65.484l6.334-3.742 12.31 3.92zm0 0" fill="#30CCF5" />
	<path d="M2.77 65.484h3.595v-1.077H2.77zm0 0" fill="#0085B8" />
	<path d="M6.365 65.484c0 .446-.805.809-1.796.809-.994 0-1.799-.363-1.799-.809 0-.442.805-.805 1.8-.805.99 0 1.795.363 1.795.805" fill="#0085B8" />
	<path d="M6.365 64.407c0 .446-.805.805-1.796.805-.994 0-1.799-.36-1.799-.805 0-.446.805-.805 1.8-.805.99 0 1.795.359 1.795.805" fill="#30CCF5" />
	<path d="M6.006 63.466H9.6v-1.077H6.006zm0 0" fill="#0085B8" />
	<path d="M9.6 63.466c0 .446-.805.809-1.8.809-.99 0-1.794-.363-1.794-.81 0-.441.805-.804 1.795-.804.994 0 1.799.363 1.799.805" fill="#0085B8" />
	<path d="M9.6 62.389c0 .442-.805.805-1.8.805-.99 0-1.794-.363-1.794-.805 0-.446.805-.805 1.795-.805.994 0 1.799.359 1.799.805" fill="#30CCF5" />
	<path d="M9.34 67.63h3.597v-1.076H9.335zm0 0" fill="#0085B8" />
	<path d="M12.937 67.63c0 .447-.805.806-1.799.806-.994 0-1.799-.36-1.799-.805 0-.446.805-.805 1.8-.805.993 0 1.798.359 1.798.805" fill="#0085B8" />
	<path d="M12.937 66.554c0 .442-.805.805-1.799.805-.994 0-1.799-.363-1.799-.805 0-.446.805-.81 1.8-.81.993 0 1.798.364 1.798.81" fill="#30CCF5" />
	<path d="M12.457 65.752h3.594v-1.08h-3.59zm0 0" fill="#0085B8" />
	<path d="M16.051 65.752c0 .446-.805.805-1.795.805-.994 0-1.799-.359-1.799-.805 0-.446.805-.805 1.8-.805.99 0 1.794.36 1.794.805" fill="#0085B8" />
	<path d="M16.051 64.671c0 .446-.805.806-1.795.806-.994 0-1.799-.36-1.799-.806 0-.442.805-.805 1.8-.805.99 0 1.794.363 1.794.805" fill="#30CCF5" />
	<path d="M30.958 77.416l-6.335 3.746v-7.835l6.335-3.742zm0 0" fill="#C21E3F" />
	<path d="M24.623 81.162l-12.31-3.916v-7.839l12.31 3.92zm0 0" fill="#F52E45" />
	<path d="M24.623 73.327l-12.31-3.92 6.331-3.741 12.314 3.919zm0 0" fill="#FF4A66" />
	<path d="M15.08 69.411h3.598v-1.08H15.08zm0 0" fill="#B5112E" />
	<path d="M18.678 69.411c0 .442-.805.805-1.799.805-.99 0-1.799-.363-1.799-.805 0-.446.809-.805 1.8-.805.993 0 1.798.359 1.798.805" fill="#B5112E" />
	<path d="M18.678 68.334c0 .442-.805.801-1.799.801-.99 0-1.799-.359-1.799-.805 0-.442.809-.805 1.8-.805.993 0 1.798.363 1.798.805" fill="#FF4A66" />
	<path d="M18.315 67.389h3.595v-1.077h-3.59zm0 0" fill="#B5112E" />
	<path d="M21.91 67.389c0 .446-.805.809-1.796.809-.994 0-1.799-.36-1.799-.805 0-.446.805-.81 1.8-.81.99 0 1.795.364 1.795.81" fill="#B5112E" />
	<path d="M21.91 66.312c0 .446-.805.805-1.796.805-.994 0-1.799-.36-1.799-.805 0-.446.805-.805 1.8-.805.99 0 1.795.359 1.795.805" fill="#FF4A66" />
	<path d="M21.656 71.554h3.591v-1.077h-3.59zm0 0" fill="#B5112E" />
	<path d="M25.247 71.554c0 .446-.805.805-1.795.805-.994 0-1.8-.359-1.8-.805 0-.442.806-.805 1.8-.805.99 0 1.795.363 1.795.805" fill="#B5112E" />
	<path d="M25.247 70.477c0 .446-.805.805-1.795.805-.994 0-1.8-.36-1.8-.805 0-.446.806-.805 1.8-.805.99 0 1.795.359 1.795.805" fill="#FF4A66" />
	<path d="M24.767 69.676h3.598v-1.078h-3.598zm0 0" fill="#B5112E" />
	<path d="M28.365 69.676c0 .446-.805.805-1.799.805-.994 0-1.799-.36-1.799-.805 0-.443.805-.805 1.799-.805.994 0 1.8.362 1.8.805" fill="#B5112E" />
	<path d="M28.365 68.598c0 .443-.805.805-1.799.805-.994 0-1.799-.362-1.799-.805 0-.446.805-.805 1.799-.805.994 0 1.8.36 1.8.805" fill="#FF4A66" />
	<path d="M24.673 67.555l-6.335 3.75v-7.84l6.335-3.74zm0 0" fill="#C21E3F" />
	<path d="M18.338 71.305l-12.31-3.92v-7.839l12.31 3.92zm0 0" fill="#F52E45" />
	<path d="M18.338 63.466l-12.31-3.92 6.335-3.741 12.31 3.923zm0 0" fill="#FF4A66" />
	<path d="M8.799 59.55h3.594v-1.077H8.799zm0 0" fill="#B5112E" />
	<path d="M12.397 59.55c0 .446-.81.805-1.803.805-.99 0-1.795-.359-1.795-.805 0-.446.805-.805 1.795-.805.994 0 1.799.36 1.799.805" fill="#B5112E" />
	<path d="M12.397 58.47c0 .445-.81.804-1.803.804-.99 0-1.795-.359-1.795-.8 0-.447.805-.806 1.795-.806.994 0 1.799.36 1.799.805" fill="#FF4A66" />
	<path d="M12.03 57.532h3.598v-1.081H12.03zm0 0" fill="#B5112E" />
	<path d="M15.628 57.532c0 .446-.805.805-1.799.805-.994 0-1.799-.359-1.799-.805 0-.446.805-.805 1.8-.805.993 0 1.798.359 1.798.805" fill="#B5112E" />
	<path d="M15.628 56.451c0 .446-.805.809-1.799.809-.994 0-1.799-.363-1.799-.809 0-.442.805-.805 1.8-.805.993 0 1.798.363 1.798.805" fill="#FF4A66" />
	<path d="M15.367 61.697h3.598v-1.08h-3.598zm0 0" fill="#B5112E" />
	<path d="M18.965 61.697c0 .442-.805.805-1.799.805-.994 0-1.799-.363-1.799-.805 0-.446.805-.809 1.8-.809.993 0 1.798.363 1.798.809" fill="#B5112E" />
	<path d="M18.965 60.616c0 .446-.805.805-1.799.805-.994 0-1.799-.359-1.799-.805 0-.442.805-.805 1.8-.805.993 0 1.798.36 1.798.805" fill="#FF4A66" />
	<path d="M18.482 59.819h3.598v-1.081h-3.598zm0 0" fill="#B5112E" />
	<path d="M22.08 59.819c0 .442-.805.8-1.8.8-.99 0-1.795-.358-1.795-.8 0-.446.806-.81 1.796-.81.994 0 1.799.364 1.799.81" fill="#B5112E" />
	<path d="M22.08 58.738c0 .446-.805.805-1.8.805-.99 0-1.795-.36-1.795-.805 0-.446.806-.805 1.796-.805.994 0 1.799.359 1.799.805" fill="#FF4A66" />
	<path d="M24.673 59.849l-6.335 3.75v-7.836l6.335-3.742zm0 0" fill="#E19400" />
	<path d="M18.338 63.598l-12.31-3.92v-7.834l12.31 3.92zm0 0" fill="#FFBA23" />
	<path d="M18.338 55.763l-12.31-3.92 6.335-3.741 12.31 3.92zm0 0" fill="#FFD46B" />
	<path d="M8.799 51.844h3.594v-1.077H8.799zm0 0" fill="#E19400" />
	<path d="M12.397 51.844c0 .446-.81.805-1.803.805-.99 0-1.795-.36-1.795-.805 0-.442.805-.805 1.795-.805.994 0 1.799.363 1.799.805" fill="#E19400" />
	<path d="M12.397 50.767c0 .442-.81.805-1.803.805-.99 0-1.795-.363-1.795-.805 0-.446.805-.81 1.795-.81.994 0 1.799.364 1.799.81" fill="#FFD46B" />
	<path d="M12.03 49.826h3.598v-1.078H12.03zm0 0" fill="#E19400" />
	<path d="M15.628 49.826c0 .445-.805.805-1.799.805-.994 0-1.799-.36-1.799-.805 0-.446.805-.806 1.8-.806.993 0 1.798.36 1.798.806" fill="#E19400" />
	<path d="M15.628 48.748c0 .443-.805.805-1.799.805-.994 0-1.799-.362-1.799-.805 0-.446.805-.808 1.8-.808.993 0 1.798.362 1.798.808" fill="#FFD46B" />
	<path d="M15.367 53.99h3.598v-1.08h-3.598zm0 0" fill="#E19400" />
	<path d="M18.965 53.99c0 .447-.805.806-1.799.806-.994 0-1.799-.36-1.799-.805 0-.446.805-.81 1.8-.81.993 0 1.798.364 1.798.81" fill="#E19400" />
	<path d="M18.965 52.913c0 .443-.805.802-1.799.802-.994 0-1.799-.36-1.799-.805 0-.443.805-.805 1.8-.805.993 0 1.798.362 1.798.805" fill="#FFD46B" />
	<path d="M18.482 52.112h3.598v-1.08h-3.598zm0 0" fill="#E19400" />
	<path d="M22.08 52.112c0 .442-.805.805-1.8.805-.99 0-1.795-.363-1.795-.805 0-.446.806-.809 1.796-.809.994 0 1.799.363 1.799.81" fill="#E19400" />
	<path d="M22.08 51.031c0 .446-.805.805-1.8.805-.99 0-1.795-.359-1.795-.805 0-.442.806-.805 1.796-.805.994 0 1.799.36 1.799.805" fill="#FFD46B" />
	<path d="M24.68 52.033l-6.33 3.745v-7.835l6.334-3.741zm0 0" fill="#0085B8" />
	<path d="M18.35 55.778L6.035 51.863v-7.84l12.313 3.92zm0 0" fill="#00A1D4" />
	<path d="M18.35 47.943l-12.314-3.92 6.334-3.74 12.314 3.922zm0 0" fill="#30CCF5" />
	<path d="M8.806 44.028h3.595v-1.081H8.81zm0 0" fill="#0085B8" />
	<path d="M12.4 44.028c0 .446-.805.805-1.795.805-.994 0-1.799-.36-1.799-.805 0-.446.805-.805 1.8-.805.99 0 1.795.359 1.795.805" fill="#0085B8" />
	<path d="M12.4 42.947c0 .446-.805.805-1.795.805-.994 0-1.799-.36-1.799-.805 0-.442.805-.805 1.8-.805.99 0 1.795.363 1.795.805" fill="#30CCF5" />
	<path d="M12.041 42.01h3.595v-1.081H12.04zm0 0" fill="#0085B8" />
	<path d="M15.636 42.01c0 .445-.805.804-1.796.804-.994 0-1.799-.359-1.799-.805 0-.446.805-.805 1.8-.805.99 0 1.795.36 1.795.805" fill="#0085B8" />
	<path d="M15.636 40.932c0 .442-.805.802-1.796.802-.994 0-1.799-.36-1.799-.805 0-.446.805-.806 1.8-.806.99 0 1.795.36 1.795.806" fill="#30CCF5" />
	<path d="M15.379 46.17h3.59v-1.076h-3.59zm0 0" fill="#0085B8" />
	<path d="M18.973 46.17c0 .447-.805.81-1.799.81-.99 0-1.795-.363-1.795-.81 0-.441.805-.804 1.795-.804.994 0 1.799.363 1.799.805" fill="#0085B8" />
	<path d="M18.973 45.094c0 .446-.805.805-1.799.805-.99 0-1.795-.36-1.795-.805 0-.446.805-.805 1.795-.805.994 0 1.799.359 1.799.805" fill="#30CCF5" />
	<path d="M18.493 44.296h3.594v-1.08h-3.59zm0 0" fill="#0085B8" />
	<path d="M22.087 44.296c0 .442-.8.801-1.795.801-.994 0-1.799-.359-1.799-.805 0-.442.805-.805 1.8-.805.993 0 1.794.363 1.794.805" fill="#0085B8" />
	<path d="M22.087 43.215c0 .442-.8.805-1.795.805-.994 0-1.799-.359-1.799-.805 0-.446.805-.805 1.8-.805.993 0 1.794.36 1.794.805" fill="#30CCF5" />
	<path d="M24.699 44.205l-6.334 3.746v-7.835l6.334-3.742zm0 0" fill="#358700" />
	<path d="M18.368 47.95L6.055 44.036v-7.838l12.31 3.919zm0 0" fill="#4AAB11" />
	<path d="M18.368 40.116l-12.317-3.92 6.334-3.741 12.31 3.92zm0 0" fill="#8FDE5E" />
	<path d="M8.825 36.2h3.594v-1.08H8.825zm0 0" fill="#358700" />
	<path d="M12.42 36.2c0 .443-.806.805-1.8.805-.99 0-1.795-.362-1.795-.805 0-.446.805-.805 1.795-.805.994 0 1.8.36 1.8.805" fill="#358700" />
	<path d="M12.42 35.12c0 .445-.806.808-1.8.808-.99 0-1.795-.363-1.795-.809 0-.442.805-.805 1.795-.805.994 0 1.8.363 1.8.805" fill="#8FDE5E" />
	<path d="M12.057 34.182h3.598v-1.08h-3.598zm0 0" fill="#358700" />
	<path d="M15.655 34.182c0 .442-.805.805-1.8.805-.99 0-1.795-.359-1.795-.805 0-.446.805-.809 1.796-.809.994 0 1.799.363 1.799.809" fill="#358700" />
	<path d="M15.655 33.101c0 .446-.805.805-1.8.805-.99 0-1.795-.359-1.795-.805 0-.446.805-.805 1.796-.805.994 0 1.799.36 1.799.805" fill="#8FDE5E" />
	<path d="M15.398 38.343h3.59v-1.077h-3.59zm0 0" fill="#358700" />
	<path d="M18.992 38.343c0 .446-.805.805-1.8.805-.993 0-1.794-.359-1.794-.805 0-.442.8-.805 1.795-.805.994 0 1.799.363 1.799.805" fill="#358700" />
	<path d="M18.992 37.266c0 .446-.805.805-1.8.805-.993 0-1.794-.359-1.794-.805 0-.446.8-.805 1.795-.805.994 0 1.799.36 1.799.805" fill="#8FDE5E" />
	<path d="M18.512 36.465h3.594v-1.077h-3.594zm0 0" fill="#358700" />
	<path d="M22.11 36.465c0 .446-.809.805-1.799.805-.994 0-1.8-.36-1.8-.805 0-.442.806-.805 1.8-.805.99 0 1.795.359 1.795.805" fill="#358700" />
	<path d="M22.11 35.388c0 .442-.809.805-1.799.805-.994 0-1.8-.363-1.8-.805 0-.446.806-.805 1.8-.805.99 0 1.795.359 1.795.805" fill="#8FDE5E" />
	<path d="M24.699 36.367l-6.334 3.745v-7.835l6.334-3.742zm0 0" fill="#E6D7D9" />
	<path d="M18.368 40.112L6.051 36.197v-7.84l12.317 3.92zm0 0" fill="#FAEEF0" />
	<path d="M18.368 32.277l-12.317-3.92 6.334-3.74L24.7 28.534zm0 0" fill="#FFFFFF" />
	<path d="M8.825 28.362h3.594v-1.078H8.825zm0 0" fill="#E6D7D9" />
	<path d="M12.42 28.362c0 .446-.806.805-1.8.805-.99 0-1.795-.36-1.795-.805 0-.446.805-.805 1.795-.805.994 0 1.8.359 1.8.805" fill="#E6D7D9" />
	<path d="M12.42 27.284c0 .443-.806.805-1.8.805-.99 0-1.795-.362-1.795-.805 0-.446.805-.808 1.795-.808.994 0 1.8.362 1.8.808" fill="#FFFFFF" />
	<path d="M12.057 26.343h3.598v-1.08h-3.598zm0 0" fill="#E6D7D9" />
	<path d="M15.655 26.343c0 .446-.805.805-1.8.805-.99 0-1.795-.359-1.795-.805 0-.446.805-.805 1.796-.805.994 0 1.799.36 1.799.805" fill="#E6D7D9" />
	<path d="M15.655 25.262c0 .446-.805.805-1.8.805-.99 0-1.795-.359-1.795-.805 0-.442.805-.805 1.796-.805.994 0 1.799.363 1.799.805" fill="#FFFFFF" />
	<path d="M15.398 30.508h3.59v-1.08h-3.59zm0 0" fill="#E6D7D9" />
	<path d="M18.992 30.508c0 .443-.805.805-1.8.805-.993 0-1.794-.362-1.794-.805 0-.446.8-.808 1.795-.808.994 0 1.799.362 1.799.808" fill="#E6D7D9" />
	<path d="M18.992 29.427c0 .446-.805.805-1.8.805-.993 0-1.794-.359-1.794-.805 0-.446.8-.805 1.795-.805.994 0 1.799.36 1.799.805" fill="#FFFFFF" />
	<path d="M18.512 28.626h3.594v-1.073h-3.594zm0 0" fill="#E6D7D9" />
	<path d="M22.11 28.626c0 .446-.809.809-1.799.809-.994 0-1.8-.363-1.8-.809 0-.442.806-.805 1.8-.805.99 0 1.795.363 1.795.805" fill="#E6D7D9" />
	<path d="M22.11 27.549c0 .446-.809.805-1.799.805-.994 0-1.8-.359-1.8-.805 0-.446.806-.805 1.8-.805.99 0 1.795.359 1.795.805" fill="#FFFFFF" />
	<path d="M24.699 28.535l-6.334 3.75v-7.831l6.334-3.742zm0 0" fill="#C21E3F" />
	<path d="M18.368 32.285L6.051 28.369V20.53l12.317 3.924zm0 0" fill="#F52E45" />
	<path d="M18.368 24.454L6.051 20.527l6.334-3.742L24.7 20.712zm0 0" fill="#FF4A66" />
	<path d="M8.825 20.534h3.594v-1.08H8.825zm0 0" fill="#B5112E" />
	<path d="M12.42 20.534c0 .446-.806.805-1.8.805-.99 0-1.795-.359-1.795-.805 0-.446.805-.805 1.795-.805.994 0 1.8.36 1.8.805" fill="#B5112E" />
	<path d="M12.42 19.453c0 .446-.806.809-1.8.809-.99 0-1.795-.363-1.795-.809 0-.442.805-.805 1.795-.805.994 0 1.8.363 1.8.805" fill="#FF4A66" />
	<path d="M12.057 18.516h3.598v-1.081h-3.598zm0 0" fill="#B5112E" />
	<path d="M15.655 18.516c0 .442-.805.805-1.8.805-.99 0-1.795-.363-1.795-.805 0-.446.805-.805 1.796-.805.994 0 1.799.359 1.799.805" fill="#B5112E" />
	<path d="M15.655 17.435c0 .446-.805.805-1.8.805-.99 0-1.795-.36-1.795-.805 0-.442.805-.805 1.796-.805.994 0 1.799.363 1.799.805" fill="#FF4A66" />
	<path d="M15.398 22.677h3.59V21.6h-3.59zm0 0" fill="#B5112E" />
	<path d="M18.992 22.677c0 .446-.805.809-1.8.809-.993 0-1.794-.363-1.794-.809 0-.446.8-.809 1.795-.809.994 0 1.799.363 1.799.81" fill="#B5112E" />
	<path d="M18.992 21.6c0 .446-.805.805-1.8.805-.993 0-1.794-.359-1.794-.805 0-.446.8-.805 1.795-.805.994 0 1.799.359 1.799.805" fill="#FF4A66" />
	<path d="M18.512 20.799h3.594v-1.077h-3.594zm0 0" fill="#B5112E" />
	<path d="M22.11 20.799c0 .446-.809.805-1.799.805-.994 0-1.8-.36-1.8-.805 0-.446.806-.805 1.8-.805.99 0 1.795.359 1.795.805" fill="#B5112E" />
	<path d="M22.11 19.722c0 .446-.809.805-1.799.805-.994 0-1.8-.36-1.8-.805 0-.446.806-.805 1.8-.805.99 0 1.795.359 1.795.805" fill="#FF4A66" />
	<path d="M19.09 18.901l-6.334 3.75v-7.839l6.334-3.738zm0 0" fill="#C21E3F" />
	<path d="M12.756 22.65L.446 18.732v-7.835l12.31 3.916zm0 0" fill="#F52E45" />
	<path d="M12.756 14.816L.446 10.893 6.78 7.15l12.306 3.923zm0 0" fill="#FF4A66" />
	<path d="M3.213 10.896H6.81V9.82H3.213zm0 0" fill="#B5112E" />
	<path d="M6.81 10.896c0 .446-.804.805-1.798.805-.99 0-1.796-.359-1.796-.805 0-.442.805-.805 1.796-.805.994 0 1.799.363 1.799.805" fill="#B5112E" />
	<path d="M6.81 9.82c0 .445-.804.804-1.798.804-.99 0-1.796-.359-1.796-.805 0-.446.805-.805 1.796-.805.994 0 1.799.36 1.799.805" fill="#FF4A66" />
	<path d="M6.448 8.882h3.594V7.8h-3.59zm0 0" fill="#B5112E" />
	<path d="M10.046 8.882c0 .442-.805.805-1.8.805-.993 0-1.798-.363-1.798-.809 0-.446.805-.805 1.799-.805.994 0 1.799.36 1.799.805" fill="#B5112E" />
	<path d="M10.046 7.8c0 .443-.805.806-1.8.806-.993 0-1.798-.363-1.798-.805 0-.446.805-.805 1.799-.805.994 0 1.799.359 1.799.805" fill="#FF4A66" />
	<path d="M9.789 13.04h3.59v-1.078H9.79zm0 0" fill="#B5112E" />
	<path d="M13.38 13.04c0 .45-.806.808-1.796.808-.994 0-1.799-.359-1.799-.805 0-.446.805-.805 1.8-.805.99 0 1.798.36 1.798.805" fill="#B5112E" />
	<path d="M13.38 11.962c0 .446-.806.809-1.796.809-.994 0-1.799-.363-1.799-.809 0-.442.805-.805 1.8-.805.99 0 1.798.363 1.798.805" fill="#FF4A66" />
	<path d="M12.903 11.165h3.59v-1.081h-3.59zm0 0" fill="#B5112E" />
	<path d="M16.497 11.165c0 .442-.805.805-1.799.805-.994 0-1.795-.36-1.795-.805 0-.446.801-.81 1.795-.81.994 0 1.8.364 1.8.81" fill="#B5112E" />
	<path d="M16.497 10.084c0 .446-.805.805-1.799.805-.994 0-1.795-.36-1.795-.805 0-.446.801-.805 1.795-.805.994 0 1.8.359 1.8.805" fill="#FF4A66" />
	<path d="M31.445 22.832l-6.33 3.75v-7.836l6.334-3.741zm0 0" fill="#E19400" />
	<path d="M25.115 26.581L12.8 22.662v-7.835l12.314 3.92zm0 0" fill="#FFBA23" />
	<path d="M25.115 18.746L12.8 14.827l6.335-3.742 12.313 3.92zm0 0" fill="#FFD46B" />
	<path d="M15.572 14.83h3.594v-1.08h-3.594zm0 0" fill="#E19400" />
	<path d="M19.166 14.83c0 .443-.805.806-1.795.806-.994 0-1.8-.363-1.8-.805 0-.446.806-.805 1.8-.805.99 0 1.795.359 1.795.805" fill="#E19400" />
	<path d="M19.166 13.75c0 .446-.805.805-1.795.805-.994 0-1.8-.36-1.8-.805 0-.446.806-.805 1.8-.805.99 0 1.795.359 1.795.805" fill="#FFD46B" />
	<path d="M18.807 12.813H22.4v-1.081h-3.594zm0 0" fill="#E19400" />
	<path d="M22.401 12.813c0 .442-.805.805-1.795.805-.994 0-1.8-.363-1.8-.81 0-.441.806-.804 1.8-.804.99 0 1.795.363 1.795.805" fill="#E19400" />
	<path d="M22.401 11.732c0 .446-.805.805-1.795.805-.994 0-1.8-.36-1.8-.805 0-.446.806-.805 1.8-.805.99 0 1.795.359 1.795.805" fill="#FFD46B" />
	<path d="M22.144 16.974h3.59v-1.081h-3.59zm0 0" fill="#E19400" />
	<path d="M25.738 16.974c0 .446-.805.805-1.799.805-.99 0-1.795-.36-1.795-.805 0-.442.805-.805 1.795-.805.994 0 1.8.359 1.8.805" fill="#E19400" />
	<path d="M25.738 15.893c0 .446-.805.809-1.799.809-.99 0-1.795-.363-1.795-.81 0-.441.805-.8 1.795-.8.994 0 1.8.359 1.8.8" fill="#FFD46B" />
	<path d="M25.258 15.095h3.595v-1.08h-3.59zm0 0" fill="#E19400" />
	<path d="M28.853 15.095c0 .446-.805.805-1.796.805-.994 0-1.799-.359-1.799-.805 0-.446.805-.805 1.8-.805.99 0 1.795.36 1.795.805" fill="#E19400" />
	<path d="M28.853 14.014c0 .446-.805.81-1.796.81-.994 0-1.799-.364-1.799-.81 0-.442.805-.805 1.8-.805.99 0 1.795.363 1.795.805" fill="#FFD46B" />
	<path d="M43.268 81.317l-6.331 3.749V77.23l6.33-3.742zm0 0" fill="#E19400" />
	<path d="M36.937 85.066l-12.314-3.92v-7.835l12.314 3.92zm0 0" fill="#FFBA23" />
	<path d="M36.937 77.23l-12.314-3.919 6.335-3.741 12.31 3.92zm0 0" fill="#FFD46B" />
	<path d="M27.394 73.315h3.594v-1.08h-3.594zm0 0" fill="#E19400" />
	<path d="M30.992 73.315c0 .442-.809.805-1.8.805-.993 0-1.798-.363-1.798-.805 0-.446.805-.809 1.799-.809.99 0 1.795.363 1.795.81" fill="#E19400" />
	<path d="M30.992 72.234c0 .446-.809.805-1.8.805-.993 0-1.798-.359-1.798-.805 0-.446.805-.805 1.799-.805.99 0 1.795.36 1.795.805" fill="#FFD46B" />
	<path d="M30.629 71.293h3.594v-1.077H30.63zm0 0" fill="#E19400" />
	<path d="M34.223 71.297c0 .442-.805.805-1.799.805-.99 0-1.795-.363-1.795-.805 0-.446.805-.809 1.795-.809.994 0 1.8.363 1.8.809" fill="#E19400" />
	<path d="M34.223 70.216c0 .446-.805.805-1.799.805-.99 0-1.795-.359-1.795-.805 0-.446.805-.805 1.795-.805.994 0 1.8.36 1.8.805" fill="#FFD46B" />
	<path d="M33.966 75.458h3.59v-1.077h-3.59zm0 0" fill="#E19400" />
	<path d="M37.56 75.458c0 .446-.804.805-1.798.805s-1.796-.359-1.796-.805c0-.446.802-.805 1.796-.805s1.799.36 1.799.805" fill="#E19400" />
	<path d="M37.56 74.381c0 .442-.804.805-1.798.805s-1.796-.363-1.796-.805c0-.446.802-.805 1.796-.805s1.799.36 1.799.805" fill="#FFD46B" />
	<path d="M37.077 73.58h3.598v-1.081H37.08zm0 0" fill="#E19400" />
	<path d="M40.675 73.58c0 .446-.805.805-1.8.805-.99 0-1.794-.36-1.794-.805 0-.446.805-.805 1.795-.805.994 0 1.799.359 1.799.805" fill="#E19400" />
	<path d="M40.675 72.499c0 .446-.805.809-1.8.809-.99 0-1.794-.363-1.794-.81 0-.441.805-.804 1.795-.804.994 0 1.799.363 1.799.805" fill="#FFD46B" />
	<path d="M38.177 17.291l-6.335 3.746v-7.835l6.335-3.742zm0 0" fill="#0085B8" />
	<path d="M31.842 21.037l-12.31-3.916V9.283l12.31 3.919zm0 0" fill="#00A1D4" />
	<path d="M31.842 13.202l-12.31-3.92 6.331-3.741 12.314 3.92zm0 0" fill="#30CCF5" />
	<path d="M22.299 9.286h3.598v-1.08H22.3zm0 0" fill="#0085B8" />
	<path d="M25.897 9.286c0 .446-.805.805-1.799.805-.99 0-1.799-.359-1.799-.805 0-.446.809-.805 1.799-.805.994 0 1.8.36 1.8.805" fill="#0085B8" />
	<path d="M25.897 8.205c0 .446-.805.81-1.799.81-.99 0-1.799-.364-1.799-.81 0-.442.809-.805 1.799-.805.994 0 1.8.363 1.8.805" fill="#30CCF5" />
	<path d="M25.534 7.268h3.595v-1.08h-3.591zm0 0" fill="#0085B8" />
	<path d="M29.129 7.268c0 .446-.802.805-1.796.805s-1.799-.359-1.799-.805c0-.446.805-.805 1.8-.805.993 0 1.795.359 1.795.805" fill="#0085B8" />
	<path d="M29.129 6.187c0 .446-.802.809-1.796.809s-1.799-.363-1.799-.809c0-.442.805-.805 1.8-.805.993 0 1.795.363 1.795.805" fill="#30CCF5" />
	<path d="M28.875 11.433h3.59v-1.08h-3.59zm0 0" fill="#0085B8" />
	<path d="M32.466 11.433c0 .442-.805.805-1.795.805-.994 0-1.8-.363-1.8-.805 0-.446.806-.809 1.8-.809.99 0 1.795.363 1.795.81" fill="#0085B8" />
	<path d="M32.466 10.352c0 .446-.805.805-1.795.805-.994 0-1.8-.359-1.8-.805 0-.446.806-.805 1.8-.805.99 0 1.795.36 1.795.805" fill="#30CCF5" />
	<path d="M31.986 9.55h3.598V8.475h-3.598zm0 0" fill="#0085B8" />
	<path d="M35.584 9.55c0 .447-.805.806-1.8.806-.993 0-1.798-.36-1.798-.805 0-.442.805-.805 1.799-.805.994 0 1.799.363 1.799.805" fill="#0085B8" />
	<path d="M35.584 8.474c0 .446-.805.805-1.8.805-.993 0-1.798-.36-1.798-.805 0-.446.805-.805 1.799-.805.994 0 1.799.359 1.799.805" fill="#30CCF5" />
	<path d="M109.352 79.703l6.334 3.749v-7.835l-6.334-3.742zm6.334 3.749L128 79.532v-7.838l-12.314 3.923zm0 0" fill="#0085B8" />
	<path d="M115.686 75.617L128 71.694l-6.334-3.742-12.314 3.923zm0 0" fill="#30CCF5" />
	<path d="M125.23 71.698h-3.598V70.62h3.598zm0 0" fill="#0085B8" />
	<path d="M121.632 71.698c0 .446.805.805 1.799.805.994 0 1.799-.36 1.799-.805 0-.446-.805-.805-1.8-.805-.993 0-1.798.359-1.798.805" fill="#0085B8" />
	<path d="M121.632 70.62c0 .443.805.806 1.799.806.994 0 1.799-.363 1.799-.806 0-.446-.805-.805-1.8-.805-.993 0-1.798.36-1.798.805" fill="#30CCF5" />
	<path d="M121.994 69.68H118.4v-1.082h3.594zm0 0" fill="#0085B8" />
	<path d="M118.4 69.68c0 .445.805.804 1.795.804.994 0 1.8-.359 1.8-.805 0-.446-.806-.805-1.8-.805-.99 0-1.795.36-1.795.805" fill="#0085B8" />
	<path d="M118.4 68.598c0 .446.805.81 1.795.81.994 0 1.8-.364 1.8-.81 0-.442-.806-.805-1.8-.805-.99 0-1.795.363-1.795.805" fill="#30CCF5" />
	<path d="M118.657 73.844h-3.594v-1.08h3.594zm0 0" fill="#0085B8" />
	<path d="M115.063 73.844c0 .443.805.805 1.795.805.994 0 1.8-.362 1.8-.805 0-.446-.806-.808-1.8-.808-.99 0-1.795.362-1.795.808" fill="#0085B8" />
	<path d="M115.063 72.763c0 .446.805.806 1.795.806.994 0 1.8-.36 1.8-.806 0-.442-.806-.805-1.8-.805-.99 0-1.795.363-1.795.805" fill="#30CCF5" />
	<path d="M115.539 71.962h-3.59v-1.077h3.59zm0 0" fill="#0085B8" />
	<path d="M111.949 71.962c0 .446.8.805 1.795.805.994 0 1.799-.359 1.799-.801 0-.446-.805-.809-1.8-.809-.993 0-1.794.363-1.794.809" fill="#0085B8" />
	<path d="M111.949 70.885c0 .446.8.805 1.795.805.994 0 1.799-.359 1.799-.805 0-.446-.805-.805-1.8-.805-.993 0-1.794.36-1.794.805" fill="#30CCF5" />
	<path d="M45.978 11.906l-6.335 3.749V7.824l6.335-3.742zm0 0" fill="#C21E3F" />
	<path d="M39.647 15.655l-12.318-3.92V3.9l12.31 3.92zm0 0" fill="#F52E45" />
	<path d="M39.647 7.824L27.329 3.897 33.664.155l12.31 3.92zm0 0" fill="#FF4A66" />
	<path d="M30.104 3.904h3.594v-1.08h-3.594zm0 0" fill="#B5112E" />
	<path d="M33.698 3.904c0 .442-.805.805-1.8.805-.99 0-1.794-.363-1.794-.805 0-.446.805-.805 1.795-.805.994 0 1.799.36 1.799.805" fill="#B5112E" />
	<path d="M33.698 2.823c0 .446-.805.805-1.8.805-.99 0-1.794-.359-1.794-.805 0-.446.805-.805 1.795-.805.994 0 1.799.36 1.799.805" fill="#FF4A66" />
	<path d="M33.335 1.882h3.598V.805h-3.598zm0 0" fill="#B5112E" />
	<path d="M36.933 1.882c0 .446-.805.809-1.799.809-.994 0-1.799-.363-1.799-.809 0-.442.805-.805 1.8-.805.993 0 1.798.363 1.798.805" fill="#B5112E" />
	<path d="M36.933.805c0 .446-.805.805-1.799.805-.994 0-1.799-.359-1.799-.805 0-.446.805-.805 1.8-.805.993 0 1.798.36 1.798.805" fill="#FF4A66" />
	<path d="M36.672 6.047h3.598V4.97h-3.598zm0 0" fill="#B5112E" />
	<path d="M40.27 6.047c0 .446-.805.81-1.799.81-.994 0-1.799-.364-1.799-.81 0-.442.805-.805 1.8-.805.993 0 1.798.36 1.798.805" fill="#B5112E" />
	<path d="M40.27 4.97c0 .442-.805.805-1.799.805-.994 0-1.799-.363-1.799-.805 0-.446.805-.805 1.8-.805.993 0 1.798.36 1.798.805" fill="#FF4A66" />
	<path d="M39.79 4.169h3.591V3.092h-3.59zm0 0" fill="#B5112E" />
	<path d="M43.385 4.169c0 .446-.805.805-1.8.805-.99 0-1.795-.36-1.795-.805 0-.446.806-.805 1.796-.805.994 0 1.799.359 1.799.805" fill="#B5112E" />
	<path d="M43.385 3.092c0 .442-.805.805-1.8.805-.99 0-1.795-.363-1.795-.805 0-.446.806-.805 1.796-.805.994 0 1.799.359 1.799.805" fill="#FF4A66" />
	<path d="M97.057 83.633l6.335 3.75v-7.835l-6.335-3.742zm0 0" fill="#FFBA23" />
	<path d="M103.392 87.383l12.31-3.92v-7.835l-12.31 3.92zm0 0" fill="#E19400" />
	<path d="M103.392 79.548l12.31-3.923-6.335-3.742-12.31 3.923zm0 0" fill="#FFD46B" />
	<path d="M112.931 75.628h-3.59v-1.077h3.59zm0 0" fill="#E19400" />
	<path d="M109.34 75.628c0 .446.802.805 1.796.805.99 0 1.795-.359 1.795-.805 0-.442-.805-.805-1.795-.805-.994 0-1.8.363-1.8.805" fill="#E19400" />
	<path d="M109.34 74.551c0 .446.802.805 1.796.805.99 0 1.795-.359 1.795-.805 0-.446-.805-.805-1.795-.805-.994 0-1.8.36-1.8.805" fill="#FFD46B" />
	<path d="M109.7 73.61h-3.598v-1.077h3.598zm0 0" fill="#E19400" />
	<path d="M106.102 73.61c0 .446.805.805 1.799.805.994 0 1.799-.359 1.799-.805 0-.442-.805-.805-1.8-.805-.993 0-1.798.36-1.798.805" fill="#E19400" />
	<path d="M106.102 72.53c0 .445.805.808 1.799.808.994 0 1.799-.363 1.799-.805 0-.446-.805-.805-1.8-.805-.993 0-1.798.359-1.798.805" fill="#FFD46B" />
	<path d="M106.362 77.775h-3.594v-1.08h3.59zm0 0" fill="#E19400" />
	<path d="M102.764 77.775c0 .446.81.805 1.8.805.993 0 1.798-.359 1.798-.805 0-.446-.805-.805-1.799-.805-.99 0-1.799.36-1.799.805" fill="#E19400" />
	<path d="M102.764 76.694c0 .446.81.809 1.8.809.993 0 1.798-.363 1.798-.809 0-.442-.805-.805-1.799-.805-.99 0-1.799.363-1.799.805" fill="#FFD46B" />
	<path d="M103.244 75.893h-3.59v-1.077h3.59zm0 0" fill="#E19400" />
	<path d="M99.65 75.893c0 .45.805.809 1.8.809.993 0 1.794-.36 1.794-.805 0-.446-.8-.805-1.795-.805-.994 0-1.799.359-1.799.805" fill="#E19400" />
	<path d="M99.65 74.816c0 .446.805.805 1.8.805.993 0 1.794-.36 1.794-.805 0-.446-.8-.805-1.795-.805-.994 0-1.799.359-1.799.805" fill="#FFD46B" />
	<path d="M97.072 75.768l6.335 3.75v-7.835l-6.335-3.742zm0 0" fill="#FFBA23" />
	<path d="M103.407 79.521l12.31-3.923v-7.831l-12.31 3.92zm0 0" fill="#E19400" />
	<path d="M103.407 71.683l12.31-3.92-6.331-3.742-12.314 3.92zm0 0" fill="#FFD46B" />
	<path d="M112.95 67.767h-3.598v-1.081h3.598zm0 0" fill="#E19400" />
	<path d="M109.352 67.767c0 .446.805.805 1.799.805.99 0 1.8-.36 1.8-.805 0-.446-.81-.805-1.8-.805-.994 0-1.799.359-1.799.805" fill="#E19400" />
	<path d="M109.352 66.686c0 .446.805.805 1.799.805.99 0 1.8-.359 1.8-.805 0-.446-.81-.805-1.8-.805-.994 0-1.799.359-1.799.805" fill="#FFD46B" />
	<path d="M109.715 65.749h-3.594v-1.081h3.59zm0 0" fill="#E19400" />
	<path d="M106.12 65.749c0 .442.806.805 1.796.805.994 0 1.799-.363 1.799-.805 0-.446-.805-.805-1.8-.805-.99 0-1.794.359-1.794.805" fill="#E19400" />
	<path d="M106.12 64.668c0 .446.806.805 1.796.805.994 0 1.799-.36 1.799-.805 0-.442-.805-.805-1.8-.805-.99 0-1.794.359-1.794.805" fill="#FFD46B" />
	<path d="M106.378 69.91h-3.595v-1.077h3.59zm0 0" fill="#E19400" />
	<path d="M102.783 69.91c0 .446.805.809 1.795.809.995 0 1.8-.363 1.8-.81 0-.441-.805-.804-1.8-.804-.99 0-1.795.363-1.795.805" fill="#E19400" />
	<path d="M102.783 68.833c0 .442.805.805 1.795.805.995 0 1.8-.363 1.8-.805 0-.446-.805-.805-1.8-.805-.99 0-1.795.359-1.795.805" fill="#FFD46B" />
	<path d="M103.263 68.031h-3.598v-1.077h3.598zm0 0" fill="#E19400" />
	<path d="M99.665 68.031c0 .446.805.806 1.8.806.993 0 1.798-.36 1.798-.806 0-.445-.805-.805-1.799-.805-.994 0-1.799.36-1.799.805" fill="#E19400" />
	<path d="M99.665 66.954c0 .443.805.805 1.8.805.993 0 1.798-.362 1.798-.805 0-.446-.805-.805-1.799-.805-.994 0-1.799.36-1.799.805" fill="#FFD46B" />
	<path d="M97.072 67.926l6.335 3.749V63.84l-6.335-3.742zm0 0" fill="#00A1D4" />
	<path d="M103.407 71.675l12.31-3.92v-7.834l-12.31 3.919zm0 0" fill="#0085B8" />
	<path d="M103.407 63.84l12.31-3.92-6.331-3.741-12.314 3.92zm0 0" fill="#30CCF5" />
	<path d="M112.95 59.924h-3.598v-1.08h3.598zm0 0" fill="#0085B8" />
	<path d="M109.352 59.924c0 .446.805.805 1.799.805.99 0 1.8-.359 1.8-.805 0-.446-.81-.805-1.8-.805-.994 0-1.799.36-1.799.805" fill="#0085B8" />
	<path d="M109.352 58.847c0 .442.805.805 1.799.805.99 0 1.8-.363 1.8-.809 0-.446-.81-.805-1.8-.805-.994 0-1.799.36-1.799.805" fill="#30CCF5" />
	<path d="M109.715 57.902h-3.594v-1.077h3.59zm0 0" fill="#0085B8" />
	<path d="M106.12 57.902c0 .446.806.81 1.796.81.994 0 1.799-.364 1.799-.806 0-.446-.805-.805-1.8-.805-.99 0-1.794.36-1.794.805" fill="#0085B8" />
	<path d="M106.12 56.825c0 .446.806.805 1.796.805.994 0 1.799-.359 1.799-.805 0-.442-.805-.805-1.8-.805-.99 0-1.794.363-1.794.805" fill="#30CCF5" />
	<path d="M106.378 62.067h-3.595V60.99h3.59zm0 0" fill="#0085B8" />
	<path d="M102.783 62.067c0 .446.805.81 1.795.81.995 0 1.8-.364 1.8-.81 0-.442-.805-.805-1.8-.805-.99 0-1.795.363-1.795.805" fill="#0085B8" />
	<path d="M102.783 60.99c0 .442.805.805 1.795.805.995 0 1.8-.363 1.8-.805 0-.446-.805-.805-1.8-.805-.99 0-1.795.36-1.795.805" fill="#30CCF5" />
	<path d="M103.263 60.189h-3.598v-1.077h3.598zm0 0" fill="#0085B8" />
	<path d="M99.665 60.189c0 .446.805.805 1.8.805.993 0 1.798-.359 1.798-.805 0-.446-.805-.805-1.799-.805-.994 0-1.799.359-1.799.805" fill="#0085B8" />
	<path d="M99.665 59.112c0 .442.805.805 1.8.805.993 0 1.798-.363 1.798-.805 0-.446-.805-.805-1.799-.805-.994 0-1.799.359-1.799.805" fill="#30CCF5" />
	<path d="M97.038 60.098l6.335 3.75v-7.835l-6.335-3.742zm0 0" fill="#FAEEF0" />
	<path d="M103.373 63.848l12.31-3.92v-7.835l-12.31 3.92zm0 0" fill="#E6D7D9" />
	<path d="M103.373 56.013l12.31-3.92-6.331-3.742-12.314 3.92zm0 0" fill="#FFFFFF" />
	<path d="M112.916 52.097h-3.598v-1.08h3.598zm0 0" fill="#E6D7D9" />
	<path d="M109.318 52.097c0 .442.805.805 1.799.805.99 0 1.8-.359 1.8-.805 0-.446-.81-.809-1.8-.809-.994 0-1.799.363-1.799.809" fill="#E6D7D9" />
	<path d="M109.318 51.016c0 .446.805.805 1.799.805.99 0 1.8-.359 1.8-.805 0-.446-.81-.805-1.8-.805-.994 0-1.799.36-1.799.805" fill="#FFFFFF" />
	<path d="M109.68 50.079h-3.593v-1.081h3.59zm0 0" fill="#E6D7D9" />
	<path d="M106.087 50.079c0 .442.805.805 1.795.805.994 0 1.799-.363 1.799-.805 0-.446-.805-.805-1.8-.805-.99 0-1.794.359-1.794.805" fill="#E6D7D9" />
	<path d="M106.087 48.998c0 .446.805.805 1.795.805.994 0 1.799-.36 1.799-.805 0-.446-.805-.805-1.8-.805-.99 0-1.794.359-1.794.805" fill="#FFFFFF" />
	<path d="M106.344 54.24h-3.595v-1.077h3.59zm0 0" fill="#E6D7D9" />
	<path d="M102.75 54.24c0 .446.804.809 1.794.809.994 0 1.8-.363 1.8-.809 0-.446-.806-.805-1.8-.805-.99 0-1.795.359-1.795.805" fill="#E6D7D9" />
	<path d="M102.75 53.163c0 .446.804.805 1.794.805.994 0 1.8-.36 1.8-.805 0-.446-.806-.805-1.8-.805-.99 0-1.795.359-1.795.805" fill="#FFFFFF" />
	<path d="M103.23 52.362H99.63v-1.078h3.598zm0 0" fill="#E6D7D9" />
	<path d="M99.631 52.362c0 .446.805.805 1.8.805.993 0 1.798-.36 1.798-.805 0-.446-.805-.805-1.799-.805-.994 0-1.799.359-1.799.805" fill="#E6D7D9" />
	<path d="M99.631 51.284c0 .443.805.805 1.8.805.993 0 1.798-.362 1.798-.805 0-.446-.805-.808-1.799-.808-.994 0-1.799.362-1.799.808" fill="#FFFFFF" />
	<path d="M103.626 50.23l6.334 3.75v-7.836l-6.334-3.741zm0 0" fill="#4AAB11" />
	<path d="M109.96 53.98l12.31-3.92v-7.835l-12.31 3.92zm0 0" fill="#358700" />
	<path d="M109.96 46.144l12.31-3.92-6.334-3.74-12.31 3.919zm0 0" fill="#8FDE5E" />
	<path d="M119.5 42.229h-3.594v-1.081h3.594zm0 0" fill="#358700" />
	<path d="M115.906 42.229c0 .442.805.805 1.799.805.99 0 1.795-.363 1.795-.805 0-.446-.805-.81-1.795-.81-.994 0-1.8.364-1.8.81" fill="#358700" />
	<path d="M115.906 41.148c0 .446.805.805 1.799.805.99 0 1.795-.36 1.795-.805 0-.446-.805-.805-1.795-.805-.994 0-1.8.359-1.8.805" fill="#8FDE5E" />
	<path d="M116.268 40.207h-3.598v-1.078h3.598zm0 0" fill="#358700" />
	<path d="M112.67 40.207c0 .446.805.805 1.8.805.99 0 1.798-.36 1.798-.805 0-.443-.808-.805-1.799-.805-.994 0-1.799.362-1.799.805" fill="#358700" />
	<path d="M112.67 39.13c0 .445.805.804 1.8.804.99 0 1.798-.359 1.798-.805 0-.446-.808-.805-1.799-.805-.994 0-1.799.36-1.799.805" fill="#8FDE5E" />
	<path d="M112.931 44.372h-3.598V43.29h3.598zm0 0" fill="#358700" />
	<path d="M109.333 44.372c0 .446.805.805 1.8.805.993 0 1.798-.36 1.798-.805 0-.446-.805-.805-1.799-.805-.994 0-1.799.359-1.799.805" fill="#358700" />
	<path d="M109.333 43.29c0 .447.805.81 1.8.81.993 0 1.798-.363 1.798-.81 0-.441-.805-.804-1.799-.804-.994 0-1.799.363-1.799.805" fill="#8FDE5E" />
	<path d="M109.813 42.493h-3.59v-1.08h3.59zm0 0" fill="#358700" />
	<path d="M106.219 42.493c0 .442.805.805 1.799.805.99 0 1.795-.363 1.795-.805 0-.446-.805-.805-1.795-.805-.994 0-1.8.36-1.8.805" fill="#358700" />
	<path d="M106.219 41.412c0 .446.805.81 1.799.81.99 0 1.795-.364 1.795-.81 0-.442-.805-.805-1.795-.805-.994 0-1.8.363-1.8.805" fill="#8FDE5E" />
	<path d="M103.592 42.403l6.334 3.749v-7.835l-6.334-3.742zm0 0" fill="#FFBA23" />
	<path d="M109.926 46.148l12.31-3.916v-7.838l-12.31 3.923zm0 0" fill="#E19400" />
	<path d="M109.926 38.317l12.31-3.923-6.334-3.742-12.31 3.923zm0 0" fill="#FFD46B" />
	<path d="M119.47 34.397h-3.598V33.32h3.594zm0 0" fill="#E19400" />
	<path d="M115.872 34.397c0 .446.805.81 1.799.81.99 0 1.795-.364 1.795-.81 0-.442-.805-.805-1.795-.805-.994 0-1.8.36-1.8.805" fill="#E19400" />
	<path d="M115.872 33.32c0 .446.805.805 1.799.805.99 0 1.795-.359 1.795-.805 0-.446-.805-.805-1.795-.805-.994 0-1.8.36-1.8.805" fill="#FFD46B" />
	<path d="M116.234 32.38h-3.598v-1.078h3.598zm0 0" fill="#E19400" />
	<path d="M112.636 32.38c0 .445.805.804 1.8.804.993 0 1.798-.359 1.798-.805 0-.442-.805-.805-1.799-.805-.994 0-1.799.363-1.799.805" fill="#E19400" />
	<path d="M112.636 31.302c0 .442.805.805 1.8.805.993 0 1.798-.363 1.798-.805 0-.446-.805-.805-1.799-.805-.994 0-1.799.36-1.799.805" fill="#FFD46B" />
	<path d="M112.893 36.544h-3.59v-1.077h3.59zm0 0" fill="#E19400" />
	<path d="M109.303 36.544c0 .446.801.805 1.795.805.994 0 1.8-.359 1.8-.805 0-.446-.806-.805-1.8-.805s-1.795.36-1.795.805" fill="#E19400" />
	<path d="M109.303 35.467c0 .442.801.805 1.795.805.994 0 1.8-.363 1.8-.805 0-.446-.806-.809-1.8-.809s-1.795.363-1.795.81" fill="#FFD46B" />
	<path d="M109.78 34.666h-3.591v-1.081h3.59zm0 0" fill="#E19400" />
	<path d="M106.185 34.666c0 .446.805.805 1.799.805.99 0 1.795-.36 1.795-.805 0-.446-.805-.805-1.795-.805-.994 0-1.8.359-1.8.805" fill="#E19400" />
	<path d="M106.185 33.585c0 .446.805.805 1.799.805.99 0 1.795-.36 1.795-.805 0-.446-.805-.805-1.795-.805-.994 0-1.8.359-1.8.805" fill="#FFD46B" />
	<path d="M103.573 34.594l6.335 3.75v-7.836l-6.335-3.741zm0 0" fill="#F52E45" />
	<path d="M109.908 38.343l12.31-3.92V26.59l-12.31 3.92zm0 0" fill="#C21E3F" />
	<path d="M109.908 30.508l12.31-3.919-6.335-3.742-12.31 3.92zm0 0" fill="#FF4A66" />
	<path d="M119.45 26.593h-3.597v-1.081h3.598zm0 0" fill="#B5112E" />
	<path d="M115.853 26.593c0 .442.805.805 1.799.805.994 0 1.799-.363 1.799-.805 0-.446-.805-.805-1.8-.805-.993 0-1.798.359-1.798.805" fill="#B5112E" />
	<path d="M115.853 25.512c0 .446.805.805 1.799.805.994 0 1.799-.36 1.799-.805 0-.446-.805-.805-1.8-.805-.993 0-1.798.359-1.798.805" fill="#FF4A66" />
	<path d="M116.216 24.574h-3.595v-1.08h3.59zm0 0" fill="#B5112E" />
	<path d="M112.621 24.574c0 .443.802.806 1.796.806s1.799-.363 1.799-.806c0-.445-.805-.808-1.8-.808-.993 0-1.795.363-1.795.808" fill="#B5112E" />
	<path d="M112.621 23.494c0 .446.802.805 1.796.805s1.799-.36 1.799-.805c0-.446-.805-.805-1.8-.805-.993 0-1.795.359-1.795.805" fill="#FF4A66" />
	<path d="M112.878 28.736h-3.594v-1.077h3.594zm0 0" fill="#B5112E" />
	<path d="M109.284 28.736c0 .446.805.805 1.795.805.994 0 1.8-.36 1.8-.805 0-.442-.806-.805-1.8-.805-.99 0-1.795.363-1.795.805" fill="#B5112E" />
	<path d="M109.284 27.659c0 .442.805.805 1.795.805.994 0 1.8-.363 1.8-.805 0-.446-.806-.805-1.8-.805-.99 0-1.795.359-1.795.805" fill="#FF4A66" />
	<path d="M109.76 26.857h-3.59V25.78h3.59zm0 0" fill="#B5112E" />
	<path d="M106.166 26.857c0 .446.805.805 1.799.805.994 0 1.795-.359 1.795-.805 0-.446-.801-.805-1.795-.805-.994 0-1.8.36-1.8.805" fill="#B5112E" />
	<path d="M106.166 25.776c0 .446.805.81 1.799.81.994 0 1.795-.364 1.795-.806 0-.446-.801-.805-1.795-.805-.994 0-1.8.36-1.8.805" fill="#FF4A66" />
	<path d="M109.284 24.983l6.33 3.749v-7.831l-6.33-3.742zm0 0" fill="#FAEEF0" />
	<path d="M115.615 28.732l12.313-3.92v-7.834L115.615 20.9zm0 0" fill="#E6D7D9" />
	<path d="M115.615 20.9l12.313-3.922-6.334-3.742-12.31 3.92zm0 0" fill="#FFFFFF" />
	<path d="M125.158 16.981h-3.594v-1.08h3.594zm0 0" fill="#E6D7D9" />
	<path d="M121.564 16.981c0 .446.805.805 1.795.805.994 0 1.799-.359 1.799-.805 0-.446-.805-.805-1.8-.805-.99 0-1.794.36-1.794.805" fill="#E6D7D9" />
	<path d="M121.564 15.9c0 .446.805.806 1.795.806.994 0 1.799-.36 1.799-.806 0-.446-.805-.805-1.8-.805-.99 0-1.794.36-1.794.805" fill="#FFFFFF" />
	<path d="M121.926 14.963h-3.598v-1.08h3.595zm0 0" fill="#E6D7D9" />
	<path d="M118.328 14.963c0 .442.805.805 1.8.805.993 0 1.795-.363 1.795-.805 0-.446-.802-.805-1.796-.805s-1.799.36-1.799.805" fill="#E6D7D9" />
	<path d="M118.328 13.882c0 .446.805.805 1.8.805.993 0 1.795-.359 1.795-.805 0-.442-.802-.805-1.796-.805s-1.799.363-1.799.805" fill="#FFFFFF" />
	<path d="M118.59 19.124h-3.599v-1.077h3.598zm0 0" fill="#E6D7D9" />
	<path d="M114.991 19.124c0 .446.805.81 1.799.81.994 0 1.8-.364 1.8-.81 0-.442-.806-.805-1.8-.805s-1.799.363-1.799.805" fill="#E6D7D9" />
	<path d="M114.991 18.047c0 .442.805.805 1.799.805.994 0 1.8-.363 1.8-.805 0-.446-.806-.805-1.8-.805s-1.799.36-1.799.805" fill="#FFFFFF" />
	<path d="M115.471 17.246h-3.594v-1.077h3.594zm0 0" fill="#E6D7D9" />
	<path d="M111.877 17.246c0 .446.805.805 1.799.805.99 0 1.795-.359 1.795-.805 0-.446-.805-.805-1.795-.805-.994 0-1.8.359-1.8.805" fill="#E6D7D9" />
	<path d="M111.877 16.169c0 .442.805.805 1.799.805.99 0 1.795-.363 1.795-.805 0-.446-.805-.805-1.795-.805-.994 0-1.8.359-1.8.805" fill="#FFFFFF" />
	<path d="M102.916 19.177l6.334 3.746v-7.835l-6.33-3.742zm6.334 3.746l12.314-3.916V11.17l-12.314 3.919zm0 0" fill="#358700" />
	<path d="M109.25 15.088l12.314-3.92-6.335-3.741-12.31 3.92zm0 0" fill="#8FDE5E" />
	<path d="M118.793 11.172H115.2v-1.08h3.594zm0 0" fill="#358700" />
	<path d="M115.199 11.172c0 .442.805.805 1.795.805.994 0 1.8-.363 1.8-.805 0-.446-.806-.805-1.8-.805-.99 0-1.795.36-1.795.805" fill="#358700" />
	<path d="M115.199 10.091c0 .446.805.81 1.795.81.994 0 1.8-.364 1.8-.81 0-.442-.806-.805-1.8-.805-.99 0-1.795.363-1.795.805" fill="#8FDE5E" />
	<path d="M115.558 9.154h-3.594v-1.08h3.594zm0 0" fill="#358700" />
	<path d="M111.964 9.154c0 .442.805.805 1.799.805.99 0 1.795-.359 1.795-.805 0-.446-.805-.809-1.795-.809-.994 0-1.8.363-1.8.809" fill="#358700" />
	<path d="M111.964 8.073c0 .446.805.805 1.799.805.99 0 1.795-.359 1.795-.805 0-.446-.805-.805-1.795-.805-.994 0-1.8.36-1.8.805" fill="#8FDE5E" />
	<path d="M112.224 13.315h-3.598v-1.077h3.598zm0 0" fill="#358700" />
	<path d="M108.626 13.315c0 .446.805.805 1.8.805.99 0 1.798-.359 1.798-.805 0-.442-.808-.805-1.799-.805-.994 0-1.799.363-1.799.805" fill="#358700" />
	<path d="M108.626 12.238c0 .446.805.805 1.8.805.99 0 1.798-.359 1.798-.805 0-.446-.808-.805-1.799-.805-.994 0-1.799.36-1.799.805" fill="#8FDE5E" />
	<path d="M109.106 11.437h-3.594V10.36h3.594zm0 0" fill="#358700" />
	<path d="M105.512 11.437c0 .446.805.805 1.795.805.994 0 1.8-.36 1.8-.805 0-.442-.806-.805-1.8-.805-.99 0-1.795.363-1.795.805" fill="#358700" />
	<path d="M105.512 10.356c0 .446.805.809 1.795.809.994 0 1.8-.363 1.8-.805 0-.446-.806-.805-1.8-.805-.99 0-1.795.359-1.795.805" fill="#8FDE5E" />
	<path d="M90.636 23.104l6.334 3.75V19.01l-6.334-3.742zm0 0" fill="#FFBA23" />
	<path d="M96.97 26.854l12.314-3.92V15.1L96.97 19.011zm0 0" fill="#E19400" />
	<path d="M96.97 19.015l12.314-3.916-6.334-3.742-12.314 3.92zm0 0" fill="#FFD46B" />
	<path d="M106.514 15.1h-3.595v-1.078h3.59zm0 0" fill="#E19400" />
	<path d="M102.916 15.1c0 .445.808.804 1.799.804.994 0 1.799-.359 1.799-.805 0-.442-.805-.805-1.8-.805-.99 0-1.795.363-1.795.805" fill="#E19400" />
	<path d="M102.916 14.022c0 .442.808.805 1.799.805.994 0 1.799-.359 1.799-.805 0-.446-.805-.809-1.8-.809-.99 0-1.795.363-1.795.809" fill="#FFD46B" />
	<path d="M103.278 13.08h-3.594v-1.076h3.594zm0 0" fill="#E19400" />
	<path d="M99.684 13.08c0 .447.805.806 1.795.806.994 0 1.8-.36 1.8-.805 0-.446-.806-.805-1.8-.805-.99 0-1.795.359-1.795.805" fill="#E19400" />
	<path d="M99.684 12.004c0 .442.805.805 1.795.805.994 0 1.8-.363 1.8-.805 0-.446-.806-.805-1.8-.805-.99 0-1.795.359-1.795.805" fill="#FFD46B" />
	<path d="M99.941 17.246h-3.594v-1.081h3.594zm0 0" fill="#E19400" />
	<path d="M96.347 17.246c0 .446.805.805 1.799.805.99 0 1.795-.359 1.795-.805 0-.446-.805-.805-1.795-.805-.994 0-1.8.359-1.8.805" fill="#E19400" />
	<path d="M96.347 16.165c0 .446.805.805 1.799.805.99 0 1.795-.359 1.795-.805 0-.446-.805-.805-1.795-.805-.994 0-1.8.36-1.8.805" fill="#FFD46B" />
	<path d="M96.827 15.368h-3.595v-1.081h3.591zm0 0" fill="#E19400" />
	<path d="M93.232 15.368c0 .442.802.805 1.796.805s1.799-.363 1.799-.805c0-.446-.805-.81-1.8-.81-.993 0-1.795.364-1.795.81" fill="#E19400" />
	<path d="M93.232 14.287c0 .446.802.805 1.796.805s1.799-.36 1.799-.805c0-.446-.805-.805-1.8-.805-.993 0-1.795.359-1.795.805" fill="#FFD46B" />
	<path d="M95.912 13.625l6.335 3.75V9.54l-6.335-3.742zm0 0" fill="#00A1D4" />
	<path d="M102.247 17.374l12.31-3.919V5.62l-12.31 3.92zm0 0" fill="#0085B8" />
	<path d="M102.247 9.54l12.31-3.924-6.335-3.741-12.31 3.923zm0 0" fill="#30CCF5" />
	<path d="M111.786 5.62h-3.59V4.543h3.59zm0 0" fill="#0085B8" />
	<path d="M108.192 5.62c0 .446.805.805 1.799.805.99 0 1.795-.359 1.795-.805 0-.446-.805-.805-1.795-.805-.994 0-1.8.36-1.8.805" fill="#0085B8" />
	<path d="M108.192 4.543c0 .446.805.805 1.799.805.99 0 1.795-.359 1.795-.805 0-.446-.805-.805-1.795-.805-.994 0-1.8.359-1.8.805" fill="#30CCF5" />
	<path d="M108.555 3.602h-3.599V2.525h3.599zm0 0" fill="#0085B8" />
	<path d="M104.956 3.602c0 .446.81.805 1.8.805.993 0 1.799-.36 1.799-.805 0-.442-.806-.805-1.8-.805-.99 0-1.799.359-1.799.805" fill="#0085B8" />
	<path d="M104.956 2.525c0 .442.81.805 1.8.805.993 0 1.799-.363 1.799-.805 0-.446-.806-.805-1.8-.805-.99 0-1.799.359-1.799.805" fill="#30CCF5" />
	<path d="M105.217 7.767h-3.594V6.686h3.59zm0 0" fill="#0085B8" />
	<path d="M101.623 7.767c0 .446.805.805 1.795.805.994 0 1.8-.36 1.8-.805 0-.446-.806-.805-1.8-.805-.99 0-1.795.359-1.795.805" fill="#0085B8" />
	<path d="M101.623 6.69c0 .442.805.805 1.795.805.994 0 1.8-.363 1.8-.809 0-.442-.806-.805-1.8-.805-.99 0-1.795.363-1.795.805" fill="#30CCF5" />
	<path d="M102.103 5.889h-3.598V4.808h3.598zm0 0" fill="#0085B8" />
	<path d="M98.505 5.889c0 .445.805.805 1.799.805.99 0 1.799-.36 1.799-.805 0-.446-.809-.806-1.8-.806-.993 0-1.798.36-1.798.806" fill="#0085B8" />
	<path d="M98.505 4.808c0 .446.805.805 1.799.805.99 0 1.799-.36 1.799-.805 0-.446-.809-.805-1.8-.805-.993 0-1.798.359-1.798.805" fill="#30CCF5" />
</svg>