<svg xmlns="http://www.w3.org/2000/svg" viewBox="0 0 1024 202">
	<path fill="#FFFFFF" d="M203.31096 197.1142h-91.74902v-11.14586q2.89572-.30539 7.01072-.76346 4.11496-.45805 6.24866-1.52682 3.20058-1.67951 4.57221-4.88587 1.37166-3.20636 1.37166-9.46636V97.87001q0-15.5737-5.79144-23.36058-5.63906-7.9395-16.76478-7.9395-6.09626 0-11.430537 1.8322-5.181846 1.83224-10.211263 5.34391-4.41978 3.05367-7.163112 6.26003-2.590942 3.20636-4.419818 5.6493v81.99092q0 5.34391 1.524057 9.00831 1.524095 3.51175 5.029455 5.34395 2.438514 1.37412 6.096265 2.44294 3.657789 1.06877 7.163149 1.52685v11.14586H2.1336956v-11.14586q3.8101795-.30539 7.6203591-.76346 3.9625703-.61074 6.7059023-1.52682 4.877027-1.67951 6.705902-5.19122 1.828876-3.51178 1.828876-9.16101V80.46411q0-4.73317-2.438513-9.31374-2.438514-4.58044-6.401084-7.48146-2.743332-1.8322-7.0107211-3.05363-4.1149985-1.2215-9.1444158-1.67951v-11.1459l72.6981539-3.96975 2.286085 2.2902v22.13915h.609638q4.267389-3.81709 10.363654-9.16104 6.096302-5.34388 11.278148-8.70293 5.63905-3.6644 14.78347-6.26007 9.14442-2.59555 19.50811-2.59555 24.8423 0 37.1873 14.19953 12.49735 14.04688 12.49735 37.40742v74.81484q0 5.64926 1.67648 9.00828 1.67649 3.35905 6.24869 5.34395 2.43852 1.06877 5.94388 2.13759 3.65775 1.06877 8.23 1.52685z" />
	<path fill="#FFFFFF" d="M381.16989 160.62287q-5.33424 8.70296-12.95459 16.48981-7.46794 7.63415-17.06958 13.13076-10.21127 5.80195-20.72735 8.70293Q320.05469 202 306.49047 202q-22.55624 0-39.01619-6.41265-16.30755-6.41272-26.97604-17.25324-10.66849-10.84048-16.00273-25.49809-5.18185-14.81027-5.18185-32.06351 0-15.57369 5.63906-29.77327 5.79148-14.35222 16.30755-25.49809 10.36368-10.84051 26.0616-17.55859 15.85033-6.71807 35.35843-6.71807 21.33698 0 35.05361 5.19122 13.71662 5.19126 22.70864 14.35223 8.6872 8.70296 12.64978 20.61225 3.96258 11.75664 3.96258 24.73471v9.92439H274.02778q0 31.30012 12.04015 47.63721 12.04016 16.33716 38.25416 16.33716 14.32626 0 25.75678-7.78689 11.43052-7.9395 19.5081-20.00149zm-58.21947-58.01968q0-9.16101-.91443-18.78006-.91445-9.61905-3.20055-15.72639-2.59092-7.17611-7.16313-10.84048-4.41981-3.6644-11.27812-3.6644-11.73534 0-18.74606 11.90929-7.01072 11.90929-7.62035 37.71277z" />
	<path fill="#FFFFFF" d="M482.97777 202q-21.18459 0-37.49211-6.1073-16.15518-6.26003-26.67122-16.94786-10.51609-10.84051-15.69793-25.65078-5.18185-14.81027-5.18185-32.2162 0-15.87904 6.2487-30.23127 6.40108-14.35227 17.22198-25.19278 11.12572-11.14587 27.58568-17.71125 16.61234-6.71807 36.5777-6.71807 28.04288 0 44.35037 10.68782 16.30757 10.53517 16.30757 28.5518 0 10.99321-5.79145 17.71128-5.79148 6.71804-19.96532 6.71804-11.43053 0-19.20328-5.49657-7.62036-5.4966-7.62036-14.35222 0-7.4815 2.43851-14.81027 2.43855-7.32885 2.89576-11.14594-1.67648-2.74829-4.26743-4.12245-2.5909-1.52681-8.07756-1.52681-6.8583 0-12.49739 3.20636-5.63902 3.20629-10.51604 11.29856-4.72464 7.63411-7.62036 20.45956-2.74334 12.82538-2.74334 30.84204 0 27.1776 12.64978 43.82011 12.80221 16.64247 30.4814 16.64247 16.9172 0 26.82365-7.4815 10.05883-7.63415 17.83162-21.5283l11.4305 7.9395q-4.7246 9.3137-11.27811 17.10055-6.55351 7.63415-15.69789 13.5888-9.6017 6.26003-19.50815 9.46639Q496.08476 202 482.97777 202z" />
	<path fill="#FFFFFF" d="M675.16297 190.09075q-9.75401 4.27513-20.87973 7.63419-11.12569 3.51167-27.12843 3.51167-23.77554 0-35.35846-11.60394-11.43051-11.60391-11.43051-33.13225V62.75283H552.9326V46.26305h28.04288V.00001h49.53226v46.26304h42.67393v16.48978h-42.36911v83.67046q0 17.86398 4.87703 25.34548 5.02941 7.48146 17.83162 7.48146 4.115 0 11.4305-.61073 7.31558-.61074 10.21126-1.37416z" />
	<path fill="#FFFFFF" d="M860.33749 193.90784q-6.70591 2.90098-15.85036 5.34391-9.14438 2.4429-19.35564 2.4429-18.74608 0-27.58568-5.49656-8.83963-5.6493-12.04013-16.03174h-.91446q-5.18185 5.19126-10.05887 8.85558-4.7246 3.66441-10.21127 6.26007-7.16311 3.35906-13.86905 4.88587-6.55351 1.67947-18.44126 1.67947-17.67916 0-30.17658-10.38243-12.49735-10.53517-12.49735-27.78841 0-9.9244 2.74334-16.79516 2.74333-7.02339 7.77275-12.36734 4.5722-4.88587 10.51608-8.09219 6.09626-3.20636 13.25941-5.95469 13.71662-5.03852 32.91991-10.38243 19.20325-5.49661 28.04289-9.77178V85.65537q0-3.8171-.60964-10.07717-.6096-6.25995-2.5909-10.53509-2.1337-4.88591-6.70594-8.24496-4.57217-3.35898-12.04014-3.35898-6.7059 0-11.27811 1.98485-4.41982 1.83224-7.16315 3.8171.45721 3.05363 2.59094 9.3137 2.13369 6.26 2.13369 12.06199 0 2.59562-1.37166 6.56534-1.37167 3.81709-3.96261 6.10737-3.50532 3.05367-7.92514 4.73318-4.26739 1.67955-13.25941 1.67955-12.80217 0-19.35568-6.10738-6.55348-6.26003-6.55348-16.18443 0-8.55023 6.70587-15.26834 6.85833-6.87073 16.61238-11.29856 9.60166-4.58049 22.09901-7.02342 12.49739-2.59563 23.16586-2.59563 14.78347 0 27.12847 1.83216 12.34495 1.67955 22.25144 7.17616 9.44919 5.34395 14.93586 15.57373 5.63905 10.07705 5.63905 26.41417 0 17.25324-.76202 40.91913-.60964 23.66593-.60964 31.14743 0 6.87076 1.9813 10.84052 2.1337 3.96975 6.40108 5.95464 2.59091 1.22147 8.07757 1.52685 5.63906.1527 10.21127.1527zm-75.74627-79.54805q-8.53482 2.90101-16.91717 6.71807-8.38242 3.66444-13.71662 7.78688-5.63909 4.2751-8.83964 10.99321-3.20054 6.56534-3.20054 15.57366 0 11.90933 5.33424 17.25324 5.48666 5.34391 13.4118 5.34391 8.38243 0 13.71663-3.35902 5.48666-3.51171 9.60166-8.55027z" />
	<path fill="#FFFFFF" d="M1023.8702 73.59331q0 11.60394-7.1632 20.4596-7.1631 8.70297-18.89838 8.70297-11.12572 0-18.89847-5.6493-7.62036-5.64926-7.62036-16.64247 0-5.34391.76203-8.24492.76206-3.05363 1.37163-5.64926-7.01069.30538-14.78344 4.88583-7.77275 4.58052-13.71666 12.21472v83.82315q0 5.34388 1.67649 8.85559 1.67648 3.51174 5.63909 5.4966 3.35293 1.67955 10.82086 2.90101 7.62036 1.06878 10.97329 1.22151v11.14586H872.07284v-11.14586q3.81015-.30539 7.62033-.76346 3.9626-.61074 6.70594-1.52682 4.87698-1.67951 6.7059-5.19122 1.82887-3.51178 1.82887-9.16101V80.46411q0-5.49664-2.59094-9.7717-2.5909-4.42787-6.24865-7.0235-2.74334-1.8322-7.01072-3.05363-4.115-1.2215-9.14442-1.67951v-11.1459l72.69812-3.96975 2.28608 2.2902v22.13915h.60964q10.51612-12.21467 22.25144-19.08544 11.88775-7.02342 24.68991-7.02342 14.17386 0 22.70866 8.85558 8.6872 8.70297 8.6872 22.59712z" />
	<path fill="#FFD43B" d="M1023.9104 169.56893c-.6054 8.02708-4.1224 14.76076-10.5509 20.20101-6.327 5.44808-13.54762 7.86489-21.66151 7.25076-8.21537-.62188-1.73798-14.72247-7.28523-20.96712-5.43813-6.33853-21.20927-2.90483-20.59619-11.03335.61304-8.12878 4.08313-14.91707 10.41018-20.36507 6.43619-5.54193 13.76194-8.00194 21.97731-7.38006 8.11394.61417 14.88614 4.14134 20.31664 10.58147 5.5319 6.44791 7.9952 13.68533 7.3897 21.71236z" />
</svg>