<svg xmlns="http://www.w3.org/2000/svg" viewBox="0 0 1024 1024">
	<path fill="#343A40" d="M1024 511.999912a512 512 0 0 1-512 512.00013A512 512 0 0 1 0 511.999912 512 512 0 0 1 512-.000085a512 512 0 0 1 512 511.999997z" />
	<path fill="#FFFFFF" d="M712.9639 710.999922H477.8663v-28.51222q7.42-.78119 17.9643-1.95296 10.5442-1.17169 16.0116-3.90576 8.201-4.29634 11.7158-12.49856 3.5147-8.20211 3.5147-24.21585v-182.79094q0-39.83917-14.8399-59.75864-14.4496-20.31012-42.9581-20.31012-15.6211 0-29.2896 4.68699-13.2779 4.68692-26.1653 13.67025-11.3254 7.81153-18.3548 16.01371-6.639 8.20214-11.3254 14.45144v209.7409q0 13.67032 3.9053 23.04419 3.9053 8.98329 12.8874 13.67029 6.2485 3.51518 15.6211 6.24922 9.3727 2.73403 18.3549 3.90584v28.51222H197.4674v-28.51222q9.7632-.78119 19.5264-1.95296 10.1537-1.56227 17.1832-3.90576 12.4969-4.29634 17.1832-13.27971 4.6863-8.9833 4.6863-23.4347v-227.31698q0-12.10795-6.2484-23.82535-6.2485-11.71737-16.4022-19.13836-7.0295-4.68691-17.9643-7.81156-10.5442-3.12461-23.4316-4.29638v-28.51226l186.2817-10.15506 5.8579 5.85872v56.63395h1.5621q10.9348-9.76449 26.5559-23.43481 15.6211-13.67017 28.8991-22.26293 14.4495-9.37394 37.8812-16.01382 23.4316-6.6398 49.9875-6.6398 63.656 0 95.2888 36.32383 32.0232 35.93333 32.0232 95.69193v191.38366q0 14.45143 4.2959 23.04419 4.2958 8.59268 16.0116 13.67021 6.2484 2.73407 15.2306 5.46811 9.3727 2.73403 21.0884 3.90584z" />
	<path fill="#FFD43B" d="M831.7707 640.612232c-1.5497 20.51203-10.552 37.71904-27.0068 51.62102-16.1951 13.92154-34.6772 20.09763-55.4462 18.52815-21.0285-1.58907-4.4487-37.62112-18.6477-53.57847-13.9198-16.19732-54.2886-7.42292-52.7193-28.19459 1.5692-20.77168 10.4514-38.11827 26.6466-52.0399 16.4745-14.16162 35.226-20.44788 56.2545-18.85878 20.769 1.56949 38.1035 10.58268 52.0036 27.03961 14.1599 16.47666 20.4649 34.97094 18.9153 55.48296z" />
</svg>