<svg xmlns="http://www.w3.org/2000/svg" viewBox="0 0 48 48">
	<path fill="#FF9800" d="M12 0H7.2v48H12zm9.6 0h-4.8v48h4.8zm9.6 0h-4.8v48h4.8zm9.6 0H36v48h4.8z" />
	<path fill="#43A047" d="M6 42h36c2.6390628 0 4.8-2.1609372 4.8-4.8V10.8C46.8 8.1609372 44.6390628 6 42 6H6c-2.6390628 0-4.8 2.1609372-4.8 4.8v26.4C1.2 39.8390628 3.3609372 42 6 42z" />
	<path fill="#FFEB3B" d="M12 10.8c-.7218744 0-1.2.4781256-1.2 1.2 0 .7218756.4781256 1.2 1.2 1.2.7218756 0 1.2-.4781244 1.2-1.2 0-.7218744-.4781244-1.2-1.2-1.2zm4.8 0c-.7218744 0-1.2.4781256-1.2 1.2 0 .7218756.4781256 1.2 1.2 1.2.7218756 0 1.2-.4781244 1.2-1.2 0-.7218744-.4781244-1.2-1.2-1.2zm4.8 0c-.7218744 0-1.2.4781256-1.2 1.2 0 .7218756.4781256 1.2 1.2 1.2.7218756 0 1.2-.4781244 1.2-1.2 0-.7218744-.4781244-1.2-1.2-1.2zm4.8 0c-.7218744 0-1.2.4781256-1.2 1.2 0 .7218756.4781256 1.2 1.2 1.2.7218756 0 1.2-.4781244 1.2-1.2 0-.7218744-.4781244-1.2-1.2-1.2zm4.8 0c-.7218744 0-1.2.4781256-1.2 1.2 0 .7218756.4781256 1.2 1.2 1.2.7218756 0 1.2-.4781244 1.2-1.2 0-.7218744-.4781244-1.2-1.2-1.2zm4.8 0c-.7218744 0-1.2.4781256-1.2 1.2 0 .7218756.4781256 1.2 1.2 1.2.7218756 0 1.2-.4781244 1.2-1.2 0-.7218744-.4781244-1.2-1.2-1.2zm4.8 0c-.7218744 0-1.2.4781256-1.2 1.2 0 .7218756.4781256 1.2 1.2 1.2.7218756 0 1.2-.4781244 1.2-1.2 0-.7218744-.4781244-1.2-1.2-1.2zm-33.6 0c-.7218744 0-1.2.4781256-1.2 1.2 0 .7218756.4781256 1.2 1.2 1.2.7218756 0 1.2-.4781244 1.2-1.2 0-.7218744-.4781244-1.2-1.2-1.2zm33.6 4.8c-.7218744 0-1.2.4781256-1.2 1.2 0 .7218756.4781256 1.2 1.2 1.2.7218756 0 1.2-.4781244 1.2-1.2 0-.7218744-.4781244-1.2-1.2-1.2zm0 4.8c-.7218744 0-1.2.4781256-1.2 1.2 0 .7218756.4781256 1.2 1.2 1.2.7218756 0 1.2-.4781244 1.2-1.2 0-.7218744-.4781244-1.2-1.2-1.2zM7.2 30c-.7218744 0-1.2.4781256-1.2 1.2 0 .7218756.4781256 1.2 1.2 1.2.7218756 0 1.2-.4781244 1.2-1.2 0-.7218744-.4781244-1.2-1.2-1.2zm0-14.4c-.7218744 0-1.2.4781256-1.2 1.2 0 .7218756.4781256 1.2 1.2 1.2.7218756 0 1.2-.4781244 1.2-1.2 0-.7218744-.4781244-1.2-1.2-1.2zm0 4.8c-.7218744 0-1.2.4781256-1.2 1.2 0 .7218756.4781256 1.2 1.2 1.2.7218756 0 1.2-.4781244 1.2-1.2 0-.7218744-.4781244-1.2-1.2-1.2zm0 4.8c-.7218744 0-1.2.4781256-1.2 1.2 0 .7218756.4781256 1.2 1.2 1.2.7218756 0 1.2-.4781244 1.2-1.2 0-.7218744-.4781244-1.2-1.2-1.2zm4.8 9.6c-.7218744 0-1.2.4781256-1.2 1.2 0 .7218756.4781256 1.2 1.2 1.2.7218756 0 1.2-.4781244 1.2-1.2 0-.7218744-.4781244-1.2-1.2-1.2zm24 0c-.7218744 0-1.2.4781256-1.2 1.2 0 .7218756.4781256 1.2 1.2 1.2.7218756 0 1.2-.4781244 1.2-1.2 0-.7218744-.4781244-1.2-1.2-1.2zm4.8-9.6c-.7218744 0-1.2.4781256-1.2 1.2 0 .7218756.4781256 1.2 1.2 1.2.7218756 0 1.2-.4781244 1.2-1.2 0-.7218744-.4781244-1.2-1.2-1.2zm0 4.8c-.7218744 0-1.2.4781256-1.2 1.2 0 .7218756.4781256 1.2 1.2 1.2.7218756 0 1.2-.4781244 1.2-1.2 0-.7218744-.4781244-1.2-1.2-1.2zM7.2 34.8c-.7218744 0-1.2.4781256-1.2 1.2 0 .7218756.4781256 1.2 1.2 1.2.7218756 0 1.2-.4781244 1.2-1.2 0-.7218744-.4781244-1.2-1.2-1.2zm33.6 0c-.7218744 0-1.2.4781256-1.2 1.2 0 .7218756.4781256 1.2 1.2 1.2.7218756 0 1.2-.4781244 1.2-1.2 0-.7218744-.4781244-1.2-1.2-1.2zm-24 0c-.7218744 0-1.2.4781256-1.2 1.2 0 .7218756.4781256 1.2 1.2 1.2.7218756 0 1.2-.4781244 1.2-1.2 0-.7218744-.4781244-1.2-1.2-1.2zm4.8 0c-.7218744 0-1.2.4781256-1.2 1.2 0 .7218756.4781256 1.2 1.2 1.2.7218756 0 1.2-.4781244 1.2-1.2 0-.7218744-.4781244-1.2-1.2-1.2zm4.8 0c-.7218744 0-1.2.4781256-1.2 1.2 0 .7218756.4781256 1.2 1.2 1.2.7218756 0 1.2-.4781244 1.2-1.2 0-.7218744-.4781244-1.2-1.2-1.2zm4.8 0c-.7218744 0-1.2.4781256-1.2 1.2 0 .7218756.4781256 1.2 1.2 1.2.7218756 0 1.2-.4781244 1.2-1.2 0-.7218744-.4781244-1.2-1.2-1.2z" />
</svg>