<svg xmlns="http://www.w3.org/2000/svg" viewBox="0 0 48 48">
	<path fill="#B0B3F0" d="M30.49978 6.4994648c0 3.5892772-2.909819 6.4990972-6.499463 6.4990972-3.589279 0-6.499099-2.90982-6.499099-6.4990972 0-3.5892776 2.90982-6.49909732 6.499099-6.49909732 3.589644 0 6.499463 2.90981972 6.499463 6.49909732zm0 0" />
	<path fill="#3F4CDE" d="M30.49978 41.500903C30.49978 45.09018 27.589961 48 24.000682 48c-3.589644 0-6.499464-2.90982-6.499464-6.499097 0-3.589647 2.90982-6.499467 6.499464-6.499467 3.589279 0 6.499098 2.90982 6.499098 6.499467zm0 0" />
	<path fill="#6E75E3" d="M30.49978 23.999814c0 3.589647-2.909819 6.499467-6.499098 6.499467-3.589644 0-6.499464-2.90982-6.499464-6.499467 0-3.589277 2.90982-6.499097 6.499464-6.499097 3.589279 0 6.499098 2.90982 6.499098 6.499097zm0 0" />
	<path fill="#B0B3F0" d="M48 6.4990953c0 3.5896467-2.90982 6.4994667-6.499098 6.4994667-3.589644 0-6.499464-2.90982-6.499464-6.4994667 0-3.5892776 2.90982-6.4990973 6.499464-6.4990973C45.09018-.000002 48 2.9098177 48 6.4990953zm0 0" />
	<path fill="#3F4CDE" d="M48 41.500903C48 45.09018 45.09018 48 41.500902 48c-3.589644 0-6.499464-2.90982-6.499464-6.499097 0-3.589647 2.90982-6.499467 6.499464-6.499467C45.09018 35.001436 48 37.911256 48 41.500903zm0 0" />
	<path fill="#6E75E3" d="M48 23.999814c0 3.589647-2.90982 6.499467-6.499098 6.499467-3.589644 0-6.499464-2.90982-6.499464-6.499467 0-3.589277 2.90982-6.499097 6.499464-6.499097C45.09018 17.500717 48 20.410537 48 23.999814zm0 0" />
	<path fill="#B0B3F0" d="M12.998562 6.4994648c0 3.5892772-2.90982 6.4990972-6.4994639 6.4990972C2.9098201 12.998562 0 10.088742 0 6.4994648 0 2.9101872 2.9098201.00036748 6.4990981.00036748c3.5896439 0 6.4994639 2.90981972 6.4994639 6.49909732zm0 0" />
	<path fill="#3F4CDE" d="M12.998561 41.500903C12.998561 45.09018 10.088376 48 6.4990979 48 2.9098201 48 0 45.09018 0 41.500903c0-3.589647 2.9098201-6.499467 6.4990979-6.499467 3.5892781 0 6.4994631 2.90982 6.4994631 6.499467zm0 0" />
	<path fill="#6E75E3" d="M12.998561 23.999814c0 3.589647-2.910185 6.499467-6.4994631 6.499467C2.9098201 30.499281 0 27.589461 0 23.999814c0-3.589277 2.9098201-6.499097 6.4990979-6.499097 3.5892781 0 6.4994631 2.90982 6.4994631 6.499097zm0 0" />
</svg>