<svg xmlns="http://www.w3.org/2000/svg" viewBox="0 0 28 48">
	<path fill="#D8D8D8" d="M27.124812 40.285942H.875188V3.5499959c0-1.4875829 1.231171-2.69315094 2.74873-2.69315094h20.752165c1.517559 0 2.748729 1.20556804 2.748729 2.69315094zm0 0" />
	<path fill="#54596E" d="M27.124812 40.285942v-.857338H1.749875V3.5499959c.0019-1.013308.840141-1.8343452 1.874043-1.8358131h20.752165c1.033901.00214 1.872041.8225051 1.874042 1.8358131V40.285942h.874687v-.857338.857338H28V3.5499959C27.999487 1.5886202 26.377798.0004929 24.376083 0H3.623918C1.622703.0004929.000501 1.5886202 0 3.5499959V40.285942c0 .22856.09112.443867.256348.60573.165224.162346.385023.251115.61884.251115h26.249624c.233817 0 .453616-.08882.618839-.250633.165226-.161852.256349-.37717.256349-.606212zm0 0" />
	<path fill="#FFFFFF" d="M24.376083 47.143155H3.623918c-1.517559 0-2.74873-1.205568-2.74873-2.693151v-4.164062h26.249624v4.164062c0 1.487583-1.23117 2.693151-2.748729 2.693151zm0 0" />
	<path fill="#54596E" d="M24.376083 47.143155v-.857338H3.623918c-1.033902-.0021-1.872041-.822505-1.874043-1.835813v-3.307217h24.50025v3.307217c-.0019 1.013308-.840141 1.834345-1.874042 1.836306V48c2.001715-.000504 3.623416-1.58862 3.623917-3.549996v-4.164062c0-.226107-.09363-.446814-.256349-.606213-.16272-.159409-.388527-.251125-.618839-.251125H.875188c-.230312 0-.456119.09129-.61884.251125C.093127 39.839128 0 40.060328 0 40.285942v4.164062C.000501 46.410887 1.622703 47.999507 3.623918 48h20.752165zm0 0" />
	<path fill="#999999" d="M15.749875 43.714307c0 .947082-.783564 1.714665-1.749876 1.714665-.966309 0-1.749874-.767583-1.749874-1.714665 0-.9466.783565-1.714182 1.749874-1.714182.966312 0 1.749876.767582 1.749876 1.714182zm0 0" />
</svg>