<svg xmlns="http://www.w3.org/2000/svg" viewBox="0 0 48 48">
	<path fill="#57A4FF" d="M19.2 31.2L5.6 21.73594.8 18.4V44c0 1.76719 1.4328125 3.2 3.2 3.2l12.160156-12.8zm0 0" />
	<path fill="#57A4FF" d="M28.8 31.2l3.039844 3.2L44 47.2c1.767187 0 3.2-1.43281 3.2-3.2V18.4l-4.8 3.33594zm0 0" />
	<path fill="#57A4FF" d="M5.6 15.2H4c-1.7671875 0-3.2 1.43281-3.2 3.2l4.8 3.33594zm0 0" />
	<path fill="#57A4FF" d="M44 15.2h-1.6v6.53594L47.2 18.4c0-1.76719-1.432813-3.2-3.2-3.2zm0 0" />
	<path fill="#57A4FF" d="M28.8 31.2h-9.6l-3.039844 3.2L4 47.2h40L31.839844 34.4zm0 0" />
	<path fill="#57A4FF" d="M37.6 7.2h4.8L36 .8v4.8c.0027.88242.717578 1.59727 1.6 1.6zm0 0" />
	<path fill="#1E81CE" d="M44 14.4h-.8V7.2c0-.0175781-.00898-.0320312-.00977-.0496094-.00469-.071875-.01914-.1429687-.042968-.2113281-.00899-.0253906-.015235-.0503906-.026563-.075-.0375-.084375-.089844-.1617187-.154297-.228125l-6.4-6.4c-.066793-.0644531-.144527-.1167969-.229683-.1542969-.023047-.0113281-.048047-.0175781-.071875-.0265625-.069922-.0246093-.142969-.0390625-.216797-.0429687C36.030469.00898438 36.016797 0 36 0H8C6.2328125 0 4.8 1.4328125 4.8 3.2v11.2H4c-2.2082031.00273-3.99726562 1.791797-4 4V44c.00273438 2.208203 1.7917969 3.997266 4 4h40c2.208203-.00273 3.997266-1.791797 4-4V18.4c-.00273-2.208203-1.791797-3.997266-4-4zM19.544141 32h8.911718l13.680078 14.4H5.8640625zM44 16c1.171484-.0004 2.171875.844922 2.367187 2L43.2 20.205469V16zm-3.53125-9.6H37.6c-.441797 0-.8-.3582031-.8-.8V2.73125zM6.4 3.2c0-.8835938.7164062-1.6 1.6-1.6h27.2v4c0 1.3253906 1.074609 2.4 2.4 2.4h4v13.317578L28.548828 30.4h-9.097656L6.4 21.317578zM4 16h.8v4.205469l-3.1671875-2.201563C1.8261719 16.847266 2.8273438 16 4 16zM1.6 44V19.930469l16.378516 11.39414L3.6800781 46.378516C2.4890625 46.218359 1.6 45.201562 1.6 44zm42.719922 2.378516L30.021484 31.324609 46.4 19.930469V44c0 1.201562-.889063 2.218359-2.080078 2.378516zm0 0" />
	<path fill="#1E81CE" d="M16.8 6.4h14.4c.441797 0 .8-.3582031.8-.8 0-.4417969-.358203-.8-.8-.8H16.8c-.441797 0-.8.3582031-.8.8 0 .4417969.358203.8.8.8zm0 0" />
	<path fill="#1E81CE" d="M9.6 10.4c0 .441797.3582031.8.8.8h27.2c.441797 0 .8-.358203.8-.8 0-.4417969-.358203-.8-.8-.8H10.4c-.4417969 0-.8.3582031-.8.8zm0 0" />
	<path fill="#1E81CE" d="M37.6 14.4H10.4c-.4417969 0-.8.358203-.8.8 0 .441797.3582031.8.8.8h27.2c.441797 0 .8-.358203.8-.8 0-.441797-.358203-.8-.8-.8zm0 0" />
	<path fill="#1E81CE" d="M37.6 19.2H10.4c-.4417969 0-.8.358203-.8.8 0 .441797.3582031.8.8.8h27.2c.441797 0 .8-.358203.8-.8 0-.441797-.358203-.8-.8-.8zm0 0" />
	<path fill="#1E81CE" d="M32.8 24H15.2c-.441797 0-.8.358203-.8.8 0 .441797.358203.8.8.8h17.6c.441797 0 .8-.358203.8-.8 0-.441797-.358203-.8-.8-.8zm0 0" />
	<path fill="#1E81CE" d="M8.8 8c.4417969 0 .8-.3582031.8-.8V5.6c0-.4417969.3582031-.8.8-.8H12c.441797 0 .8-.3582031.8-.8 0-.4417969-.358203-.8-.8-.8h-1.6C9.0746094 3.2 8 4.2746094 8 5.6v1.6c0 .4417969.3582031.8.8.8zm0 0" />
</svg>