<svg xmlns="http://www.w3.org/2000/svg" viewBox="0 0 48 48">
	<path fill="#E0E0E0" d="M29.16059571 31.98048152l2.82557773-2.82691647 12.01382596 12.0195197-2.82557773 2.82691523z" />
	<path fill="#E0E0E0" d="M35.97606126 19.99560056A15.98803003 15.99560503 0 0 1 19.98802998 35.9912056 15.98803003 15.99560503 0 0 1 3.99999995 19.99560056 15.98803003 15.99560503 0 0 1 19.98802998 3.99999491a15.98803003 15.99560503 0 0 1 15.98803128 15.99560565z" />
	<path fill="#fafafa" d="M33.59875232 19.99604681a13.61500109 13.62145234 0 0 1-13.6150011 13.6214511 13.61500109 13.62145234 0 0 1-13.6150017-13.6214511A13.61500109 13.62145234 0 0 1 19.98375121 6.3745941a13.61500109 13.62145234 0 0 1 13.6150011 13.62145271z" />
	<path fill="#E0E0E0" d="M26.77794302 25.30014599c-1.66275513-2.05343642-4.10992283-3.28509776-6.75194554-3.28509776-2.64202146 0-5.08818915 1.23166134-6.75194304 3.28509776-.39370503.41288628-.29478002 1.13168884.09592501 1.43960386.39370503.40988754 1.07719259.30491628 1.3719726-.103975 1.36797512-1.64554889 3.20560027-2.60928271 5.26305918-2.60928271 2.05746016 0 3.93505407.96373382 5.30402917 2.6092827.19885127.20394377.79840257.60983255 1.37297261.20394377.4616538-.32391127.39070629-1.12569134.09592501-1.53957637z" />
	<path fill="#E0E0E0" d="M16.02199591 16.51655779a1.49887762 1.49958787 0 0 1-1.49887762 1.49958887 1.49887762 1.49958787 0 0 1-1.49887762-1.49958887 1.49887762 1.49958787 0 0 1 1.49887762-1.49958762 1.49887762 1.49958787 0 0 1 1.49887762 1.49958762z" />
	<path fill="#E0E0E0" d="M27.01376554 16.51655779a1.49887762 1.49958787 0 0 1-1.49887762 1.49958887 1.49887762 1.49958787 0 0 1-1.49887762-1.49958887 1.49887762 1.49958787 0 0 1 1.49887762-1.49958762 1.49887762 1.49958787 0 0 1 1.49887762 1.49958762z" />
	<path fill="#47E6B1" d="M.89368247 44.28733829h.22005193v1.24832652H.89368247z" />
	<path fill="#47E6B1" d="M1.62816315 44.80176879v.22005193H.37983663v-.22005193z" />
	<path fill="#47E6B1" d="M26.42321746 1.151893h.22005193v1.24832652h-.22005193z" />
	<path fill="#47E6B1" d="M27.1576999 1.66573884v.22005193h-1.24832652v-.22005193z" />
	<path fill="#4D8AF0" d="M45.127044 46.365544a.26979772.26979772 0 0 1-.1504-.32598.12992428.12992428 0 0 0 .006-.0299.13519148.13519148 0 0 0-.24288-.0895.12992428.12992428 0 0 0-.0152.0263.26979772.26979772 0 0 1-.32599.15041.12992428.12992428 0 0 0-.0298-.006.13519148.13519148 0 0 0-.0896.24288.12992428.12992428 0 0 0 .0263.0152.26979772.26979772 0 0 1 .15041.32598.12992428.12992428 0 0 0-.006.0298.13519148.13519148 0 0 0 .24287.0895.12992428.12992428 0 0 0 .0152-.0263.26979772.26979772 0 0 1 .32598-.15041.12992428.12992428 0 0 0 .0299.006.13519148.13519148 0 0 0 .0895-.24287.12992428.12992428 0 0 0-.0263-.0152z" opacity="0.5" />
	<path fill="#FDD835" d="M7.9985541 34.364524a.26979772.26979772 0 0 1-.15041-.32599.12992428.12992428 0 0 0 .006-.0298.13519148.13519148 0 0 0-.24288-.0895.12992428.12992428 0 0 0-.0152.0263.26979772.26979772 0 0 1-.32598.15041.12992428.12992428 0 0 0-.0299-.006.13519148.13519148 0 0 0-.0895.24287.12992428.12992428 0 0 0 .0263.0152.26979772.26979772 0 0 1 .15041.32598.12992428.12992428 0 0 0-.006.0299.13519148.13519148 0 0 0 .24288.0895.12992428.12992428 0 0 0 .0152-.0263.26979772.26979772 0 0 1 .32598-.1504.12992428.12992428 0 0 0 .0299.006.13519148.13519148 0 0 0 .0895-.24288.12992428.12992428 0 0 0-.0263-.0152z" opacity="0.5" />
	<path fill="#FDD835" d="M38.923454 5.142093a.26979772.26979772 0 0 1-.15041-.32598.12992428.12992428 0 0 0 .006-.0298.13519148.13519148 0 0 0-.24288-.0895.12992428.12992428 0 0 0-.0152.0263.26979772.26979772 0 0 1-.32598.15041.12992428.12992428 0 0 0-.0299-.006.13519148.13519148 0 0 0-.0895.24287.12992428.12992428 0 0 0 .0263.0152.26979772.26979772 0 0 1 .15041.32598.12992428.12992428 0 0 0-.006.0299.13519148.13519148 0 0 0 .24288.0895.12992428.12992428 0 0 0 .0152-.0263.26979772.26979772 0 0 1 .32598-.1504.12992428.12992428 0 0 0 .0298.006.13519148.13519148 0 0 0 .0895-.24288.12992428.12992428 0 0 0-.0263-.0152z" opacity="0.5" />
	<path fill="#F55F44" d="M48 19.556088a.44068912.44068912 0 0 1-.440689.440689.44068912.44068912 0 0 1-.440689-.440689.44068912.44068912 0 0 1 .440689-.440689A.44068912.44068912 0 0 1 48 19.556088z" opacity="0.5" />
	<path fill="#F55F44" d="M13.944061 44.849179a.44068912.44068912 0 0 1-.440689.440689.44068912.44068912 0 0 1-.440689-.440689.44068912.44068912 0 0 1 .440689-.440689.44068912.44068912 0 0 1 .440689.440689z" opacity="0.5" />
	<path fill="#F55F44" d="M43.474304 29.081509a.44068912.44068912 0 0 1-.440689.440689.44068912.44068912 0 0 1-.440689-.440689.44068912.44068912 0 0 1 .440689-.440689.44068912.44068912 0 0 1 .440689.440689z" opacity="0.5" />
	<path fill="#4D8AF0" d="M5.5405274 6.7907366a.44068912.44068912 0 0 1-.4406891.4406891.44068912.44068912 0 0 1-.4406892-.4406891.44068912.44068912 0 0 1 .4406892-.4406891.44068912.44068912 0 0 1 .4406891.4406891z" opacity="0.5" />
	<path fill="#47E6B1" d="M.88137823 18.812222a.44068912.44068912 0 0 1-.44068911.440689A.44068912.44068912 0 0 1 0 18.812222a.44068912.44068912 0 0 1 .44068912-.440689.44068912.44068912 0 0 1 .44068911.440689z" opacity="0.5" />
</svg>