<svg xmlns="http://www.w3.org/2000/svg" viewBox="0 0 48 48">
	<path fill="#2196F3" d="M27.210885 41.4534621c0 1.85034018-1.41496602 3.2653062-3.2653062 3.2653062s-3.2653062-1.41496602-3.2653062-3.2653062 1.41496602-3.2653062 3.2653062-3.2653062 3.2653062 1.41496602 3.2653062 3.2653062zM0 18.48747516l3.91836744 3.91836744c11.21088462-10.77551046 28.95238164-10.77551046 40.16326626 0l3.91836744-3.91836744C34.61224572 5.5350939 13.27891188 5.5350939 0 18.48747516z" />
	<path fill="#2196F3" d="M6.96598656 25.45346172l3.91836744 3.91836744c7.40136072-6.96598656 18.93877596-6.96598656 26.23129314 0l3.91836744-3.91836744c-9.57823152-9.14285736-24.59864004-9.14285736-34.06802802 0z" />
	<path fill="#2196F3" d="M13.93197312 32.41944828l3.91836744 3.91836744c3.48299328-3.15646266 8.81632674-3.15646266 12.29932002 0l3.8095239-3.91836744c-5.65986408-5.22448992-14.36734728-5.22448992-20.02721136 0z" />
	<path fill="#F9F9F9" d="M1.70285681 4.8747247l3.07853058-3.07853057L46.11066216 43.1254689l-3.07853058 3.07853057z" />
</svg>