<svg xmlns="http://www.w3.org/2000/svg" viewBox="0 0 48 48">
	<path fill="#AB47BC" d="M43.1854494 9.6s1.2 27.6-18.9796872 38.4C3.613575 37.2 4.813575 9.6 4.813575 9.6 14.4088878 9.6 23.9995122 0 23.9995122 0s8.3953128 9.6 19.1859372 9.6z" />
	<path fill="#F3E5F5" d="M22.4245122 28.1531256c0-1.3593756.1640628-2.4375.4968756-3.2390628.3328116-.80625.9421872-1.5984372 1.8234372-2.3765628.8859372-.7781244 1.4765628-1.4156244 1.7671872-1.9031244.2953128-.4921884.4406256-1.0078128.4406256-1.5515628 0-1.6359372-.7640628-2.45625-2.2875-2.45625-.7218756 0-1.2984384.2203128-1.7343756.6609372-.4359372.4406256-.6609372 1.05-.6796872 1.8281256h-4.2515628c.018756-1.8515628.6234372-3.3 1.8093756-4.3453128C20.994825 13.725 22.6166994 13.2 24.6651378 13.2c2.0718744 0 3.675.4968756 4.8234372 1.4906256 1.1390628.99375 1.7109372 2.3906244 1.7109372 4.2046872 0 .825-.1828128 1.5984372-.5578128 2.3296872-.3703116.7359372-1.0218744 1.5468756-1.95 2.4375l-1.18125 1.1156256c-.7453116.7078116-1.1718744 1.5375-1.2796872 2.4890616l-.056244.8859384zm-.4265628 4.4484372c0-.6468756.225-1.1765628.6703128-1.5984372.4406256-.4218756 1.0125-.6328128 1.70625-.6328128.69375 0 1.2609372.2109372 1.70625.6328128.4453128.4218744.6656256.9515616.6656256 1.5984372 0 .6328128-.2156256 1.1625-.6515628 1.575-.4359372.4125-1.0125.6234372-1.7203128.6234372-.7125 0-1.2890628-.2109372-1.725-.6234372-.43125-.4125-.6515628-.9421872-.6515628-1.575z" />
</svg>