<svg xmlns="http://www.w3.org/2000/svg" viewBox="0 0 48 48">
	<path fill="#000000" d="M43.791802 6.8751431c-.142407-3.7153746-3.40816-4.4946106-3.40816-4.4946106S29.064713.67485332 24.106081.05562422c-4.960233-.62243037-4.651418 4.18419528-4.651418 4.18419528S20.581116 39.273459 20.69792 43.612862c.132808 5.169842 4.958632 4.337803 4.958632 4.337803l17.0536-2.948937c3.100944-.62083 3.254552-4.49301 3.254552-4.49301S43.95021 10.931332 43.791802 6.8751431c-.142407-3.7153746.158408 4.0561889 0 0zM39.977223 36.634936L27.29663 37.948597s-3.692974.563227-3.776178-3.923383c-.0608-3.305756-.792036-22.241041-.792036-22.241041s-.254413-3.4721632 3.545766-3.1873495c3.878581.2880133 13.171817.9952473 13.171817.9952473s2.488116.5920282 2.596922 3.4273592c.116804 3.081744 1.190454 20.196145 1.190454 20.196145s.280015 2.812932-3.256152 3.419361zm-31.0430538-5.10424l-2.3425096.166408s-2.3633107.320016-2.4177133-2.265706c-.038402-1.905689-.2752128-12.722195-.2752128-12.722195s-.1632077-2.001693 2.2673062-1.838487c.6160288.04 1.4896697.09601 2.4545148.153608-.0336015-1.793684-.0624028-3.361758-.0848038-4.555414-1.3376626-.100805-2.5889213-.209608-3.4833632-.304012-3.2113504-.3536181-3.0145411 2.342509-3.0145411 2.342509s.3872181 19.837728.4592214 22.269842c.088004 2.899336 3.2097503 2.428914 3.2097503 2.428914l3.332956-.356817c-.0288013-1.438467-.067203-3.272154-.1056049-5.31865zm9.3172368-18.031243c-.0112-.252812-.0528-.483223-.116805-.689633-1.025648-.0832-3.600169-.753635-4.425808.118405-.523224.548827-.307214 1.705681-.294413 2.363312 1.104051.0624 1.867287.105604 1.867287.105604s1.592074.340816 1.660878 1.972892c.0736 1.779285.064 11.74615.064 11.74615s.179208 1.625677-2.080098 1.969693l-1.185655.08801c.0064.353616.0128.63843.016.84964.0496 2.841733 3.072144 1.931289 4.968233 1.74728.163207-3.01454-.126406-6.120285-.193609-9.136427-.0816-3.710573-.112006-7.427547-.280013-11.134921-.0112-.252812.102404 2.268905 0 0z" />
	<path fill="#000000" d="M19.232252 34.935656l-3.41616.329616s-3.185749.45762-3.254552-3.21295c-.0496-2.708927-.369618-18.063246-.369618-18.063246s-.22081-2.838533 3.048143-2.611322c.840039.0576 1.995293.152006 3.252952.252811-.094404-2.9457365-.169608-5.2690468-.208009-6.4659021-1.721681-.1680076-3.344157-.3376167-4.544213-.4752216-4.320203-.4896231-4.0481903 3.3297559-4.0481903 3.3297559s.5136243 28.1645168.6144293 31.6062778c.116805 4.113793 4.320202 3.452963 4.320202 3.452963l4.837027-.619229c-.048-1.601676-.129606-4.291401-.232011-7.523553zm6.950725-25.1419771c-.604827-.048002-1.339263-.008-1.787283.4640231-.473622.496022-.481623 1.200055-.454421 1.836885 1.71368.148806 2.956939.259212 2.956939.259212s2.140899.481622 2.238503 2.801731c.09921 2.523319.712033 16.23436.712033 16.23436s.240012 2.305708-2.803331 2.803331l-2.304108.220811c.305615 3.601768 4.963434 2.081697 7.345944 1.835285-.24481-5.416252-1.003246-22.167437-1.174455-26.10042-1.806484-.140808-3.531364-.2704144-4.729821-.3552181-.118406-.00961 1.198457.084804 0 0z" />
</svg>