<svg xmlns="http://www.w3.org/2000/svg" viewBox="0 0 48 48">
	<path fill="#3D3D3D" d="M35.326722 29.799172l1.386639-3.506533h4.00377l-1.900082-5.319221 2.376394-6.009577L48 33.035951h-5.01959l-1.163115-3.236779z" />
	<path fill="#5A0FC8" d="M31.044344 33.036l7.286558-18.072134-4.830738.000024-4.984426 11.678618-3.544426-11.678593h-3.71314l-3.80577 11.678593-2.683918-5.321705-2.428844 7.482836 2.466 4.232361h4.754041l3.439106-10.473197 3.279 10.473197z" />
	<path fill="#3D3D3D" d="M4.5854755 26.832098h2.9754836c.9013279 0 1.7039262-.100598 2.4077951-.301795l.7694998-2.370688 2.150632-6.625721c-.163869-.259734-.350951-.505311-.561246-.7367-1.104222-1.222251-2.7197957-1.833356-4.8467711-1.833356H0v18.072113h4.5854755zm3.9385082-7.71059c.4313114.43409.6469426 1.014984.6469426 1.74273 0 .733328-.1896639 1.314934-.5689672 1.744819-.4158197.477664-1.1814836.716484-2.2969426.716484h-1.719541v-4.855205h1.7321803c1.0395984 0 1.775041.217058 2.2063279.651172z" />
</svg>