<svg xmlns="http://www.w3.org/2000/svg" viewBox="0 0 48 48">
	<path fill="#FFE01B" d="M0 0h48v48H0z" />
	<path fill="#000000" d="M14.5722304 24.85857492h1.71588902v1.71594624h1.71468657v1.71474375h-8.5722304v-1.71474375h1.71468657v-3.43068999h3.43057558v1.71474375zm22.28731808 15.42788384h1.71228168V38.571715h-1.71228168zm-20.5726315-15.42788384h1.71468656v-1.71474375h-1.71468656zm23.99719486 15.42788384h1.71588902V38.571715h-1.71588902zm-20.56661928 1.71354126h3.42696825v-1.71474375h-3.42696825zm15.4261669 0v-1.71474375h-1.71588901v1.71474375zm-6.85634138 0h1.71468657v-3.4294875h-1.71468657zM14.5722304 19.71554615v1.71474375h5.14285726v-1.71474375zm-1.71228168 1.71354127v-1.71474375H9.42937314v3.4294875h1.71468657v-1.71474375zm5.14165482-3.4294875H6.00240489V6.00120358h11.99919866zM16.28691698 7.71594733H7.71468657v8.5701113h8.5722304zM9.42937314 38.571715h5.14165482v-5.14302877H9.42937314zm17.14205592-1.71594623V38.571715h1.71709146v-1.71594623zM14.5722304 9.43069109H9.43057558v5.1406238h5.14165482zm27.42656801-3.4294875v11.9995988H29.99959975V6.0012036zm-1.71468657 1.71474375h-8.56982552v8.5701113h8.56982552zM6 29.99799624h12.0004011v11.99959881H6zm1.71588902 10.28846252h8.5722304v-8.57251628h-8.5722304zm0-20.5709126H6v8.57251627h1.71588902zm22.28371073 8.5701113v1.71233878h1.71468657v-1.71233878zm-5.14285726 6.85777252v-1.71474375h-1.71348413v1.71594624h-3.42696825v3.43068999h3.42696825v1.71474375h1.71348413v-3.43068999h1.71588902v-1.71474375h-1.71588902zm-5.13924993-22.28445387h3.42696825v-1.71714872h-3.42696825zM33.4289729 26.57331868h3.43177803v1.71474375h1.71348412v-5.14182629h-1.71348412v-3.43068999h-1.71709146v5.14302877h-5.13924993v1.71594624h1.71468657v1.71474375h1.71468657v-1.71474375h-.00480978zm1.71468657 5.1406238h-1.71588902v-1.71594624h-1.71468657v3.43069h-5.14165482v1.71594623h3.43177803v3.43068999h1.71468657v1.71474375h1.71468657v-3.43068999h6.85513894v-1.71474375h-5.14165482v-3.43069zm0 0h1.71709145v-3.42828502h-1.71709146zm-13.71388523 0v-1.71594624h1.71228168v-1.71233878h1.71348413V26.5709137h1.71588901v-3.43069h5.14165482v-3.43068998h-1.71468657v1.71474375h-1.71468657v-6.85657004h-1.71468657v-3.43069h1.71468657V6.0000011h-1.71468657v3.4294875H24.8543376V6.0000011h-5.14165482v3.4294875h1.71468657V7.71474486h1.71228168v3.42708254h1.71468657v5.14302877h1.71468657v1.71474375H24.8543376v3.4294875h-1.71468657v-3.4294875h-1.71228168v-1.71354126h-1.71468657v3.4294875h1.71468657v1.71474375h-1.71468657v5.14423126h1.71468657v-3.43068999h1.71228168v3.43069h-1.71228168v1.71474374h-1.71468657v5.13942132h3.42696825v-1.71474375zm18.8543376 1.71474375v-1.71474375h-3.42696825v1.71474375zM38.56942527 9.4306911h-5.14045238v5.1406238h5.14045238zM24.85674249 31.71394248h3.43177803v-1.71594624h-1.71709146v-1.71233878h-1.71588902v3.42828502zm3.43057559-3.42828502V26.5709137H26.5702266v1.71474375zm10.28210719-6.85657004h3.43057558v-1.71474375h-3.43057558zm1.71468657 13.71434256h1.71588901v-1.71474375h-1.71588901zm0-10.28485506h1.71588901v-1.71474375h-1.71588901zm-15.42736935-8.57251627h-1.71348413v1.71474375h1.71348413z" />
</svg>