<?xml version="1.0" encoding="UTF-8" standalone="no"?>
<!-- Generator: Adobe Illustrator 19.0.0, SVG Export Plug-In . SVG Version: 6.00 Build 0)  -->

<svg
   xmlns:dc="http://purl.org/dc/elements/1.1/"
   xmlns:cc="http://creativecommons.org/ns#"
   xmlns:rdf="http://www.w3.org/1999/02/22-rdf-syntax-ns#"
   xmlns:svg="http://www.w3.org/2000/svg"
   xmlns="http://www.w3.org/2000/svg"
   xmlns:sodipodi="http://sodipodi.sourceforge.net/DTD/sodipodi-0.dtd"
   xmlns:inkscape="http://www.inkscape.org/namespaces/inkscape"
   version="1.1"
   id="Capa_1"
   x="0px"
   y="0px"
   viewBox="0 0 48 48"
   xml:space="preserve"
   sodipodi:docname="rainbow.svg"
   width="48"
   height="48"
   inkscape:version="0.92.3 (2405546, 2018-03-11)"><metadata
   id="metadata49"><rdf:RDF><cc:Work
       rdf:about=""><dc:format>image/svg+xml</dc:format><dc:type
         rdf:resource="http://purl.org/dc/dcmitype/StillImage" /><dc:title /></cc:Work></rdf:RDF></metadata><defs
   id="defs47" /><sodipodi:namedview
   pagecolor="#ffffff"
   bordercolor="#666666"
   borderopacity="1"
   objecttolerance="10"
   gridtolerance="10"
   guidetolerance="10"
   inkscape:pageopacity="0"
   inkscape:pageshadow="2"
   inkscape:window-width="1366"
   inkscape:window-height="705"
   id="namedview45"
   showgrid="false"
   inkscape:showpageshadow="false"
   inkscape:zoom="10.429825"
   inkscape:cx="26.231672"
   inkscape:cy="23.702971"
   inkscape:window-x="-8"
   inkscape:window-y="-8"
   inkscape:window-maximized="1"
   inkscape:current-layer="Capa_1" />





















<g
   id="g60"
   transform="translate(0,0.05)"><path
     inkscape:connector-curvature="0"
     id="path2"
     d="M 48,24 H 46.399969 C 46.399969,11.628844 36.371156,1.60003 24,1.60003 11.628844,1.60003 1.600031,11.628844 1.600031,24 H 0 C 0,10.744781 10.744781,0 24,0 37.255219,0 48,10.744781 48,24 Z"
     style="fill:#ed1c24;stroke-width:0.09375" /><path
     inkscape:connector-curvature="0"
     id="path4"
     d="M 44.800031,24 H 43.2 C 43.2,13.396031 34.603969,4.8 24,4.8 13.396031,4.8 4.8,13.396031 4.8,24 H 3.199969 C 3.199969,12.512812 12.512812,3.19997 24,3.19997 35.487187,3.19997 44.800031,12.512812 44.800031,24 Z"
     style="fill:#ffaf46;stroke-width:0.09375" /><path
     inkscape:connector-curvature="0"
     id="path6"
     d="m 41.599969,24 h -1.600031 c 0,-8.836781 -7.163251,-16.000031 -16.000032,-16.000031 C 15.163125,7.999969 7.999969,15.163219 7.999969,24 H 6.400031 C 6.400031,14.28 14.28,6.400031 24,6.400031 33.72,6.400031 41.599969,14.28 41.599969,24 Z"
     style="fill:#ffda44;stroke-width:0.09375" /><path
     inkscape:connector-curvature="0"
     id="path8"
     d="M 38.4,24 H 36.799969 C 36.799969,16.930406 31.069594,11.200031 24,11.200031 16.930406,11.200031 11.200031,16.930406 11.200031,24 H 9.6 C 9.6,16.047188 16.047187,9.6 24,9.6 c 7.952812,0 14.4,6.447188 14.4,14.4 z"
     style="fill:#64c37d;stroke-width:0.09375" /><path
     inkscape:connector-curvature="0"
     id="path10"
     d="M 35.200031,24 H 33.6 c 0,-5.301563 -4.298438,-9.6 -9.6,-9.6 -5.301563,0 -9.6,4.298437 -9.6,9.6 h -1.600031 c 0,-6.185625 5.014406,-11.200031 11.200031,-11.200031 6.185625,0 11.200031,5.014406 11.200031,11.200031 z"
     style="fill:#006df0;stroke-width:0.09375" /><path
     inkscape:connector-curvature="0"
     id="path12"
     d="m 31.999969,24 h -1.600032 c 0,-3.534375 -2.865562,-6.400031 -6.400031,-6.400031 -3.534468,0 -6.399937,2.865656 -6.399937,6.400031 h -1.600031 c 0,-4.418437 3.581624,-7.999969 7.999968,-7.999969 4.418344,0 8.000063,3.581532 8.000063,7.999969 z"
     style="fill:#933ec5;stroke-width:0.09375" /><g
     transform="scale(0.09375)"
     id="g14">
</g><g
     transform="scale(0.09375)"
     id="g16">
</g><g
     transform="scale(0.09375)"
     id="g18">
</g><g
     transform="scale(0.09375)"
     id="g20">
</g><g
     transform="scale(0.09375)"
     id="g22">
</g><g
     transform="scale(0.09375)"
     id="g24">
</g><g
     transform="scale(0.09375)"
     id="g26">
</g><g
     transform="scale(0.09375)"
     id="g28">
</g><g
     transform="scale(0.09375)"
     id="g30">
</g><g
     transform="scale(0.09375)"
     id="g32">
</g><g
     transform="scale(0.09375)"
     id="g34">
</g><g
     transform="scale(0.09375)"
     id="g36">
</g><g
     transform="scale(0.09375)"
     id="g38">
</g><g
     transform="scale(0.09375)"
     id="g40">
</g><g
     transform="scale(0.09375)"
     id="g42">
</g><path
     inkscape:connector-curvature="0"
     id="path2-5"
     d="M 48,23.9 H 46.399969 C 46.399969,36.271156 36.371156,46.29997 24,46.29997 11.628844,46.29997 1.600031,36.271156 1.600031,23.9 H 0 c 0,13.255219 10.744781,24 24,24 13.255219,0 24,-10.744781 24,-24 z"
     style="fill:#ed1c24;stroke-width:0.09375" /><path
     inkscape:connector-curvature="0"
     id="path4-2"
     d="M 44.800031,23.9 H 43.2 C 43.2,34.503969 34.603969,43.1 24,43.1 13.396031,43.1 4.8,34.503969 4.8,23.9 H 3.199969 c 0,11.487188 9.312843,20.80003 20.800031,20.80003 11.487187,0 20.800031,-9.312842 20.800031,-20.80003 z"
     style="fill:#ffaf46;stroke-width:0.09375" /><path
     inkscape:connector-curvature="0"
     id="path6-2"
     d="m 41.599969,23.9 h -1.600031 c 0,8.836781 -7.163251,16.000031 -16.000032,16.000031 -8.836781,0 -15.999937,-7.16325 -15.999937,-16.000031 H 6.400031 C 6.400031,33.62 14.28,41.499969 24,41.499969 33.72,41.499969 41.599969,33.62 41.599969,23.9 Z"
     style="fill:#ffda44;stroke-width:0.09375" /><path
     inkscape:connector-curvature="0"
     id="path8-2"
     d="m 38.4,23.9 h -1.600031 c 0,7.069594 -5.730375,12.799969 -12.799969,12.799969 -7.069594,0 -12.799969,-5.730375 -12.799969,-12.799969 H 9.6 c 0,7.952812 6.447187,14.4 14.4,14.4 7.952812,0 14.4,-6.447188 14.4,-14.4 z"
     style="fill:#64c37d;stroke-width:0.09375" /><path
     inkscape:connector-curvature="0"
     id="path10-8"
     d="M 35.200031,23.9 H 33.6 c 0,5.301563 -4.298438,9.6 -9.6,9.6 -5.301563,0 -9.6,-4.298437 -9.6,-9.6 h -1.600031 c 0,6.185625 5.014406,11.200031 11.200031,11.200031 6.185625,0 11.200031,-5.014406 11.200031,-11.200031 z"
     style="fill:#006df0;stroke-width:0.09375" /><path
     inkscape:connector-curvature="0"
     id="path12-6"
     d="m 31.999969,23.9 h -1.600032 c 0,3.534375 -2.865562,6.400031 -6.400031,6.400031 -3.534468,0 -6.399937,-2.865656 -6.399937,-6.400031 h -1.600031 c 0,4.418437 3.581624,7.999969 7.999968,7.999969 4.418344,0 8.000063,-3.581532 8.000063,-7.999969 z"
     style="fill:#933ec5;stroke-width:0.09375" /></g></svg>