<svg xmlns="http://www.w3.org/2000/svg" viewBox="0 0 48 48">
	<path fill="#EFC75E" d="M24.41854888 36.40805372c2.34345491 0 4.26847747 1.92502256 4.2685306 4.2685306 0 2.3434549-1.92502187 7.32341542-4.26847678 7.32341542-2.3434549 0-4.2685306-4.97990808-4.26847746-7.32341612-.00005382-2.34350734 1.9040365-4.24759766 4.26842364-4.2685299z" />
	<path fill="#DEB957" d="M20.35928828 39.33739823l.12554033.12554033c2.17610322 2.17610321 5.7332025 2.1761039 7.90930572 6.9e-7l.08367585-.08367585c-.5440258-1.71580638-2.15517098-2.95027744-4.08019354-2.95027744-1.86222583-.02093224-3.473371 1.21353881-4.03832836 2.90841227z" />
	<path fill="#F26C4F" d="M24.00006341 23.6861909c7.15606443 0 12.9519581 4.37313869 12.9519581 11.152529v3.22229035c0 6.77939032-5.7959468-3.70357255-12.95201123-3.70357255s-12.95201054 10.52482666-12.95201054 3.70357186V34.8387192c.00010557-6.77938962 5.79605236-11.15247518 12.95206367-11.1525283z" />
	<path fill="#F4F0D3" d="M24.00006368.00013642c2.17610321 0 8.59980452 7.38615946 8.62073676 20.75665616-.02093224 8.68348064-1.23452418 12.95201123-1.23452418 12.95201123-.94157904 4.87535313-3.6826403 4.9380436-7.3652806 4.93809673-3.68263962.00005244-6.44458-.04186518-7.36528062-4.93809673 0 0-1.21359193-4.31039508-1.23452418-12.99387571 2.7e-7-13.34945794 6.38189048-20.7356708 8.57887282-20.71479168z" />
	<path fill="#E8E4C8" d="M31.59549243 31.61642956c-1.00437576 5.06363706-3.85004512 5.1473129-7.65822575 5.1473129-3.85004512 0-6.69571378-.04181204-7.65822575-5.1473129l-.18828393-.8160387c.29294514 1.92502255.56495804 2.90841295.56495804 2.90841295.92070062 4.89623155 3.682641 4.93804291 7.36528061 4.93809673 3.6826403.00005313 6.40276933-.08367584 7.36528061-4.93809673 0 0 .56490492-2.02963065.94157904-6.13075643-.35568875 2.69924991-.73236287 4.03838218-.73236287 4.03838218z" />
	<path fill="#8BA0AB" d="M24.00006341 14.01931988c2.05050976 0 3.70351942 1.65300966 3.70357255 3.70357254 0 2.05050977-1.65300966 3.70351942-3.70357255 3.70357255-2.05050976 0-3.70351942-1.65300966-3.70357255-3.70357255-.00005312-2.05056288 1.6739419-3.72455791 3.70357255-3.70357254z" />
	<path fill="#F26C4F" d="M24.43948113 26.5527925c1.04618712 0 1.90409031 2.86654847 1.90409031 7.97210314 0 5.10555468-.85790319 7.34434837-1.92502256 7.32341613-1.04618643-7e-7-1.92502255-2.2179677-1.92502255-7.32341613.02093224-5.12638066.85790319-7.97210314 1.9459548-7.97210314z" />
	<path fill="#324D5B" d="M22.01229725 15.7141409c.52309356-.52309357 1.23447105-.81603871 1.98781929-.81603871.75324198 0 1.46472572.29294514 1.98781929.8160387.52309356.52309357.8160387 1.23447106.8160387 1.9878193 0 .75324197-.29294514 1.46472572-.8160387 1.98781928-.52309357.52309356-1.23447106.8160387-1.9878193.8160387-.75324197 0-1.46472572-.29294514-1.98781928-.8160387-.52309356-.52309356-.8160387-1.23447105-.8160387-1.98781929-.00005314-.7532951.29294514-1.46472572.8160387-1.98781929m-.62770165-.62770165c-.66956613.66956614-1.0880516 1.59021293-1.06711937 2.61546781 0 2.05050977 1.65300966 3.70351942 3.70357255 3.70357255 1.00432264 0 1.94590168-.39755323 2.61546781-1.06711937.66956613-.66956613 1.0880516-1.59021292 1.06711937-2.6154678 0-2.05050977-1.65300966-3.70351942-3.70357255-3.70357255-1.02525488-.02093224-1.94590168.39755323-2.61546781 1.06711936z" />
	<path fill="#F26C4F" d="M18.12044104 6.92605244c1.59026605 1.21359194 3.82911287 1.9459548 6.29816124 1.9459548 2.1551707-.0209325 4.12205775-.56495831 5.64952708-1.50653735C28.01746048 2.55291376 25.27645234.0211218 24.00006368.00013642c-1.23452419-.02087911-3.849992 2.38537252-5.87962264 6.92591602z" />
</svg>