<svg xmlns="http://www.w3.org/2000/svg" viewBox="0 0 48 48">
	<path fill="#F78422" d="M0 .00000132h47.99999868V48H0z" />
	<path fill="#FFFFFF" d="M31.1981935 16.76357447C24.69298761 10.2583686 16.0374606 6.67572885 6.82613204 6.67572885v6.77747176c7.40099748 0 14.35457313 2.87759225 19.57976077 8.10277988 5.2250823 5.22518764 8.10277988 12.17876329 8.10277988 19.57976076h6.77747176c-.00010532-9.21132856-3.58274506-17.8669609-10.08795095-24.37216678z" />
	<path fill="#FFFFFF" d="M6.75588008 18.144705v6.77747176c8.94011594 0 16.21356449 7.27334323 16.21356449 16.21366982h6.77747176c0-12.6773732-10.31366305-22.99114158-22.99103625-22.99114158z" />
	<path fill="#FFFFFF" d="M16.42242454 36.46993728a4.85423207 4.85423207 0 0 1-4.85423196 4.85423197 4.85423207 4.85423207 0 0 1-4.85423207-4.85423197 4.85423207 4.85423207 0 0 1 4.85423207-4.85423196 4.85423207 4.85423207 0 0 1 4.85423196 4.85423196z" />
</svg>