<svg xmlns="http://www.w3.org/2000/svg" xmlns:xlink="http://www.w3.org/1999/xlink" viewBox="0 0 48 48">
	<defs>
		<linearGradient id="e" x1="176.04924" x2="176.04924" y1="488.67999" y2="-13.984" gradientTransform="matrix(.1 0 0 .09998 -.00507812 4.9e-7)" gradientUnits="userSpaceOnUse" xlink:href="#a" />
		<linearGradient id="h" x1="96.049248" x2="96.049248" y1="488.67999" y2="-13.984" gradientTransform="matrix(.1 0 0 .09998 -.00507812 4.9e-7)" gradientUnits="userSpaceOnUse" xlink:href="#a" />
	</defs>
	<linearGradient id="a">
		<stop offset="0" stop-color="#E93E3A" />
		<stop offset=".35" stop-color="#ED683C" />
		<stop offset=".7" stop-color="#F3903F" />
		<stop offset="1" stop-color="#FDC70C" />
	</linearGradient>
	<linearGradient id="b" x1="240.04924" x2="240.04924" y1="488.67999" y2="-13.984" gradientTransform="matrix(.1 0 0 .09998 -.00507812 4.9e-7)" gradientUnits="userSpaceOnUse" xlink:href="#a" />
	<linearGradient id="c" x1="348.04926" x2="348.04926" y1="488.67999" y2="-13.984" gradientTransform="matrix(.1 0 0 .09998 -.00507812 4.9e-7)" gradientUnits="userSpaceOnUse" xlink:href="#a" />
	<linearGradient id="d" x1="360.04926" x2="360.04926" y1="488.67999" y2="-13.984" gradientTransform="matrix(.1 0 0 .09998 -.00507812 4.9e-7)" gradientUnits="userSpaceOnUse" xlink:href="#a" />
	<linearGradient id="i" x1="176.04924" x2="176.04924" y1="488.67999" y2="-13.984" gradientTransform="matrix(.1 0 0 .09998 -.00507812 4.9e-7)" gradientUnits="userSpaceOnUse" xlink:href="#a" />
	<linearGradient id="f" x1="256.04926" x2="256.04926" y1="488.67999" y2="-13.984" gradientTransform="matrix(.1 0 0 .09998 -.00507812 4.9e-7)" gradientUnits="userSpaceOnUse" xlink:href="#a" />
	<linearGradient id="g" x1="336.04926" x2="336.04926" y1="488.67999" y2="-13.984" gradientTransform="matrix(.1 0 0 .09998 -.00507812 4.9e-7)" gradientUnits="userSpaceOnUse" xlink:href="#a" />
	<linearGradient id="k" x1="96.049248" x2="96.049248" y1="488.67999" y2="-13.984" gradientTransform="matrix(.1 0 0 .09998 -.00507812 4.9e-7)" gradientUnits="userSpaceOnUse" xlink:href="#a" />
	<linearGradient id="j" x1="252.20125" x2="252.20125" y1="488.68799" y2="-13.976" gradientTransform="matrix(.1 0 0 .09998 -.00507812 4.9e-7)" gradientUnits="userSpaceOnUse" xlink:href="#a" />
	<path fill="url(#b)" d="M43.200041 26.416345V7.1983869c-.0027-2.2077081-1.792189-3.9963702-4.000004-3.9991036h-4.000004v-.7998208c0-1.325094-1.07461-2.39946201-2.400002-2.39946201-1.325782 0-2.400002 1.07436801-2.400002 2.39946201v.7998208h-6.400006v-.7998208c0-1.325094-1.07461-2.39946201-2.400002-2.39946201-1.325783 0-2.400002 1.07436801-2.400002 2.39946201v.7998208h-6.400007v-.7998208c0-1.325094-1.074609-2.39946201-2.400002-2.39946201-1.3257826 0-2.4000025 1.07436801-2.4000025 2.39946201v.7998208H4.0000037C1.7917986 3.2020133.00234376 4.9906788 0 7.1983869V32.79265c.0023437 2.207708 1.7917986 3.99637 4.0000037 3.999103H24.040648c.361328 5.52923 4.465629 10.090317 9.926962 11.032683 5.461334.942367 10.857432-1.979634 13.051576-7.067946 2.194141-5.087923.615234-11.016672-3.819145-14.340145zM32.00003 2.3994625c0-.441698.358204-.799821.800001-.799821.441797 0 .800001.358123.800001.799821v3.199283c0 .441698-.358204.7998207-.800001.7998207-.441797 0-.800001-.3581227-.800001-.7998207zm-11.20001 0c0-.441698.358203-.799821.800001-.799821.441797 0 .800001.358123.800001.799821v3.199283c0 .441698-.358204.7998207-.800001.7998207-.441798 0-.800001-.3581227-.800001-.7998207zm-11.2000109 0c0-.441698.3582037-.799821.8000009-.799821.441798 0 .8.358123.8.799821v3.199283c0 .441698-.358202.7998207-.8.7998207-.4417972 0-.8000009-.3581227-.8000009-.7998207zM4.0000037 4.7989247h4.0000038v.7998208c0 1.325093 1.0742199 2.3994622 2.4000025 2.3994622 1.325393 0 2.400002-1.0743692 2.400002-2.3994622v-.7998208h6.400007v.7998208c0 1.325093 1.074219 2.3994622 2.400002 2.3994622 1.325392 0 2.400002-1.0743692 2.400002-2.3994622v-.7998208h6.400006v.7998208c0 1.325093 1.07422 2.3994622 2.400002 2.3994622 1.325392 0 2.400002-1.0743692 2.400002-2.3994622v-.7998208h4.000004c1.325392 0 2.400002 1.0743682 2.400002 2.3994622v3.9991041H1.6000014V7.1983869c0-1.325094 1.0742199-2.3994622 2.4000023-2.3994622zM1.6000014 32.79265V12.797132H41.600039V25.38884c-3.590237-1.902307-7.900008-1.855053-11.447667.125363-3.547269 1.980415-5.848443 5.62413-6.111724 9.677909H4.0000037c-1.3257824 0-2.4000023-1.074368-2.4000023-2.399462zM36.000034 46.389602c-5.743755 0-10.400009-4.655207-10.400009-10.39767 0-5.742462 4.656254-10.397669 10.400009-10.397669 5.743756 0 10.40001 4.655207 10.40001 10.397669-.0066 5.73973-4.658988 10.39103-10.40001 10.39767zm0 0" />
	<path fill="url(#c)" d="M36.800035 33.739704v-4.146337h-1.600002v4.146337c-.677735.241742-1.210938.774826-1.453126 1.452408H31.20003v1.599641h2.546877c.370313 1.052889 1.419142 1.710554 2.528127 1.585192 1.109377-.125753 1.984769-1.000557 2.110159-2.109683.12539-1.109127-.532032-2.15772-1.585158-2.527558zm-.800001 3.052049c-.441797 0-.800001-.358123-.800001-.799821s.358204-.79982.800001-.79982c.441797 0 .800001.358122.800001.79982s-.358204.799821-.800001.799821zm0 0" />
	<path fill="url(#d)" d="M36.000034 26.394084c-5.301958 0-9.600009 4.297084-9.600009 9.597848 0 5.300765 4.298051 9.597849 9.600009 9.597849s9.600009-4.297084 9.600009-9.597849c-.0059-5.298421-4.300785-9.59199-9.600009-9.597848zm0 17.596056c-4.418363 0-8.000007-3.580839-8.000007-7.998208 0-4.417368 3.581644-7.998207 8.000007-7.998207 4.417973 0 8.000007 3.580839 8.000007 7.998207-.0051 4.415417-3.583987 7.993521-8.000007 7.998208zm0 0" />
	<path fill="url(#e)" d="M17.600016 15.996415c-1.767579 0-3.200003 1.432491-3.200003 3.199283 0 1.766791 1.432424 3.199282 3.200003 3.199282 1.76719 0 3.200004-1.432491 3.200004-3.199282 0-1.766792-1.432814-3.199283-3.200004-3.199283zm0 4.798924c-.883984 0-1.600001-.716245-1.600001-1.599641 0-.883396.716017-1.599642 1.600001-1.599642.883595 0 1.600003.716246 1.600003 1.599642s-.716408 1.599641-1.600003 1.599641zm0 0" />
	<path fill="url(#f)" d="M25.600025 22.39498c1.767189 0 3.200002-1.432491 3.200002-3.199282 0-1.766792-1.432813-3.199283-3.200002-3.199283-1.76758 0-3.200003 1.432491-3.200003 3.199283 0 1.766791 1.432423 3.199282 3.200003 3.199282zm0-4.798924c.883595 0 1.600001.716246 1.600001 1.599642s-.716406 1.599641-1.600001 1.599641c-.883985 0-1.600002-.716245-1.600002-1.599641 0-.883396.716017-1.599642 1.600002-1.599642zm0 0" />
	<path fill="url(#g)" d="M33.600032 22.39498c1.76719 0 3.200003-1.432491 3.200003-3.199282 0-1.766792-1.432813-3.199283-3.200003-3.199283-1.76758 0-3.200003 1.432491-3.200003 3.199283 0 1.766791 1.432423 3.199282 3.200003 3.199282zm0-4.798924c.883595 0 1.600001.716246 1.600001 1.599642s-.716406 1.599641-1.600001 1.599641c-.883985 0-1.600002-.716245-1.600002-1.599641 0-.883396.716017-1.599642 1.600002-1.599642zm0 0" />
	<path fill="url(#h)" d="M9.6000091 15.996415c-1.7675798 0-3.2000031 1.432491-3.2000031 3.199283 0 1.766791 1.4324233 3.199282 3.2000031 3.199282 1.7671899 0 3.2000029-1.432491 3.2000029-3.199282 0-1.766792-1.432813-3.199283-3.2000029-3.199283zm0 4.798924c-.8839852 0-1.6000016-.716245-1.6000016-1.599641 0-.883396.7160164-1.599642 1.6000016-1.599642.8835949 0 1.6000009.716246 1.6000009 1.599642s-.716406 1.599641-1.6000009 1.599641zm0 0" />
	<path fill="url(#i)" d="M17.600016 23.994622c-1.767579 0-3.200003 1.432491-3.200003 3.199283 0 1.766791 1.432424 3.199283 3.200003 3.199283 1.76719 0 3.200004-1.432492 3.200004-3.199283 0-1.766792-1.432814-3.199283-3.200004-3.199283zm0 4.798924c-.883984 0-1.600001-.716245-1.600001-1.599641 0-.883396.716017-1.599642 1.600001-1.599642.883595 0 1.600003.716246 1.600003 1.599642s-.716408 1.599641-1.600003 1.599641zm0 0" />
	<path fill="url(#j)" d="M24.532837 30.210026l.532811-1.506694c-.633203-.22534-1.057813-.82169-1.063672-1.493415-.0059-.671724.408594-1.275496 1.037892-1.51138.628906-.236275 1.338282-.05389 1.776173.455757l1.213282-1.040001c-.875392-1.020085-2.294924-1.384456-3.553519-.911906-1.258985.472551-2.087892 1.681264-2.075002 3.025494.01289 1.34384.864454 2.536932 2.132035 2.985269zm0 0" />
	<path fill="url(#k)" d="M9.6000091 23.994622c-1.7675798 0-3.2000031 1.432491-3.2000031 3.199283 0 1.766791 1.4324233 3.199283 3.2000031 3.199283 1.7671899 0 3.2000029-1.432492 3.2000029-3.199283 0-1.766792-1.432813-3.199283-3.2000029-3.199283zm0 4.798924c-.8839852 0-1.6000016-.716245-1.6000016-1.599641 0-.883396.7160164-1.599642 1.6000016-1.599642.8835949 0 1.6000009.716246 1.6000009 1.599642s-.716406 1.599641-1.6000009 1.599641zm0 0" />
</svg>