<svg xmlns="http://www.w3.org/2000/svg" viewBox="0 0 48 48">
	<path fill="#D8D8D8" d="M40.799863 21.59978v24H6.5134945c-1.3879342 0-2.5135708-1.12518-2.5135708-2.51357v-18.9724c0-1.38839 1.1256366-2.51403 2.5135708-2.51403zm0 0" />
	<path fill="#54596E" d="M40.799863 21.59978h-.800168v23.19983H6.5134945c-.9452784-.002-1.7115719-.76766-1.7134029-1.7134v-18.9724c.00183-.9462.7681245-1.71249 1.7134029-1.71386H40.799863v-.80017h-.800168.800168v-.80017H6.5134945c-1.8301322.00094-3.3128231 1.48315-3.3132808 3.31374v18.9724c.000457 1.83059 1.4831486 3.31282 3.3132808 3.31374H40.799863c.213774 0 .414274-.0833.565794-.23437.151061-.15107.234374-.35202.234374-.5658V21.59978c0-.21057-.0856-.41656-.234374-.56579-.149231-.14878-.355224-.23438-.565794-.23438zm0 0" />
	<path fill="#FFFFFF" d="M47.199833 24.11381v18.9724c0 1.38793-1.125637 2.51357-2.513114 2.51357h-3.886856v-24h3.886856c1.387477 0 2.513114 1.12564 2.513114 2.51403zm0 0" />
	<path fill="#54596E" d="M47.199833 24.11381h-.800169v18.9724c-.0018.94574-.768125 1.71203-1.712945 1.7134h-3.086688V22.39949l3.086688.00047c.945279.002 1.711572.76766 1.712945 1.71386H48c-.000937-1.83059-1.483606-3.31328-3.313281-3.31374h-3.886856c-.210571 0-.417021.0851-.565794.23392-.149231.14923-.234374.35522-.234374.56579v24c0 .21332.08331.41427.234374.56534.151519.15152.352019.23437.565794.23437h3.886856c1.829675-.00047 3.312366-1.48315 3.313281-3.31328V24.11381zm0 0" />
	<path fill="#999999" d="M45.599954 33.59955c0 .88394-.716397 1.60034-1.600336 1.60034-.88348 0-1.599877-.7164-1.599877-1.60034 0-.88348.716397-1.59988 1.599877-1.59988.883939 0 1.600336.7164 1.600336 1.59988zm0 0" />
	<path fill="#D8D8D8" d="M24.79971 39.19981H.80016785V4.91344c0-1.38839 1.12563665-2.51357 2.51311305-2.51357H22.286598c1.387476 0 2.513112 1.12518 2.513112 2.51357zm0 0" />
	<path fill="#54596E" d="M24.79971 39.19981v-.80017H1.599878V4.91344c.00183-.94574.7681244-1.71203 1.7134029-1.7134H22.286598c.945277.002 1.711572.76766 1.713402 1.7134v34.28637h.79971v-.80017.80017h.800168V4.91344c-.000469-1.83059-1.483149-3.31282-3.31328-3.31328H3.3132809C1.4836064 1.60062.00045776 3.08285 0 4.91344v34.28637c0 .21332.08331273.41427.23437411.56534.15106138.15152.35201889.23437.56579374.23437H24.79971c.213775 0 .414732-.0829.565793-.23392.151063-.15106.234375-.35202.234375-.56579zm0 0" />
	<path fill="#FFFFFF" d="M22.286598 45.59978H3.3132809c-1.3874764 0-2.51311305-1.12518-2.51311305-2.51357v-3.8864H24.79971v3.8864c0 1.38839-1.125636 2.51357-2.513112 2.51357zm0 0" />
	<path fill="#54596E" d="M22.286598 45.59978v-.80017H3.3132809c-.9452785-.002-1.7115719-.76766-1.7134029-1.7134v-3.08669H24v3.08669c-.0018.94574-.768125 1.71203-1.713402 1.71386v1.59942c1.830131-.00047 3.312822-1.48269 3.31328-3.31328v-3.8864c0-.21103-.0856-.41702-.234375-.56579-.148772-.14878-.355223-.23438-.565793-.23438H.80016785c-.21057049 0-.41702115.0852-.56579374.23438C.08514366 38.78279 0 38.98924 0 39.19981v3.8864c.00045776 1.83013 1.4836064 3.31282 3.3132809 3.31328H22.286598zm0 0" />
	<path fill="#999999" d="M14.399817 42.39957c0 .88393-.716397 1.60033-1.599878 1.60033-.88348 0-1.599878-.7164-1.599878-1.60033 0-.88348.716398-1.59988 1.599878-1.59988.883481 0 1.599878.7164 1.599878 1.59988zm0 0" />
	<path fill="#54596E" d="M34.586202 6.6817726c-1.024014-.4682903-2.125389-.7969634-3.279407-.9612999-.437163-.062256-.842739.2416983-.904538.6793186-.06271.4371626.241241.8422819.678861.9045375.999752.142364 1.952812.427092 2.839497.8322112.401457.1835625.876615.00732 1.060178-.3945907.183561-.4014573.0069-.8761563-.394591-1.0601767zm5.109538 4.4293044c-.620268-.963589-1.375116-1.832421-2.23754-2.580404-.333708-.2897632-.839077-.2536-1.128384.080108-.289763.3337084-.2536.8390775.08011 1.1288408.747983.6486492 1.402583 1.4025822 1.940911 2.2375402.238951.371245.733792.478819 1.105494.23941.371245-.238952.478819-.733793.23941-1.105495zm1.904289 6.488775c0-1.172786-.168913-2.308035-.483396-3.381029-.124053-.423888-.56854-.66696-.992428-.542906-.424345.124512-.666958.568999-.542905.992885.272368.929257.418394 1.911614.418394 2.93105 0 .44174.358428.800168.800168.800168.44174 0 .800167-.358428.800167-.800168zm0 0" />
</svg>