<svg xmlns="http://www.w3.org/2000/svg" viewBox="0 0 48 48">
	<path fill="#609399" d="M38.101563 31.199219L19.398438 24l18.703125-7.199219c1.5-.601562 2.296875-2.300781 1.699218-3.902343-.601562-1.5-2.300781-2.296875-3.902343-1.699219l-26 10C8.800781 21.601563 8 22.800781 8 24c0 1.199219.800781 2.398438 1.898438 2.800781l26 10C36.300781 36.898438 36.601563 37 37 37c1.199219 0 2.300781-.699219 2.800781-1.898437.597657-1.601563-.199218-3.300782-1.699218-3.902344z" />
	<path fill="#6FC5D6" d="M18 24c0 3.867188-3.132812 7-7 7-3.867187 0-7-3.132812-7-7 0-3.867187 3.132813-7 7-7 3.867188 0 7 3.132813 7 7zm26-10c0 3.867188-3.132812 7-7 7-3.867187 0-7-3.132812-7-7 0-3.867187 3.132813-7 7-7 3.867188 0 7 3.132813 7 7zm0 20c0 3.867188-3.132812 7-7 7-3.867187 0-7-3.132812-7-7 0-3.867187 3.132813-7 7-7 3.867188 0 7 3.132813 7 7z" />
</svg>