<svg xmlns="http://www.w3.org/2000/svg" viewBox="0 0 48 48">
	<path fill="#FFDC64" d="M42.442049 14.806661l-12.538241-1.162877-4.980572-11.5653031c-.34875-.8098139-1.496908-.8098139-1.845565 0L18.097099 13.64369 5.5588584 14.806661c-.8779703.08137-1.2327209 1.173377-.570376 1.755284l9.4601416 8.310577-2.768536 12.283991c-.193875.860157.735095 1.534971 1.493159 1.084877l10.827207-6.429012L34.82766 38.24139c.758158.450188 1.686941-.22472 1.493159-1.084877l-2.76863-12.283991 9.460236-8.310577c.662345-.581907.3075-1.673909-.570376-1.755284z" />
	<path fill="#FFF082" d="M11.18274385 1.68032411c.63918866.88781411 2.44331693 4.70063353 3.4747563 6.92270006.1621878.34931313-.27609425.6648762-.5559385.40021947-1.78003449-1.68300305-4.82363376-4.60350835-5.46282242-5.4914162-.50578216-.70247003-.34631312-1.6819718.35625065-2.18775397.70247002-.50578217 1.6819718-.34621938 2.18775397.35625064zM36.81816533 1.68032411c-.63918866.88781411-2.44331693 4.70063353-3.4747563 6.92270006-.1621878.34931313.27609425.6648762.55593851.40021947 1.78003448-1.68300305 4.82354-4.6036021 5.4628224-5.4914162.50578217-.70247003.34631313-1.6819718-.35625064-2.18775397-.70247002-.50578217-1.6819718-.34621938-2.18775397.35625064zM46.9187149 27.71530882c-1.04006439-.33918811-5.22085322-.89953288-7.65113887-1.20703344-.38203195-.04837508-.54946975.4650946-.21243789.65128244 2.14434764 1.1845334 5.85151061 3.19678704 6.891575 3.53597516.82293899.26840673 1.70765934-.18112533 1.97606608-1.00415807.26840674-.82303275-.18112533-1.70765935-1.00406432-1.97606609zM1.08219428 27.71530882c1.04006439-.33918811 5.22085322-.89953288 7.65113888-1.20703344.38203194-.04837508.54946974.4650946.21243788.65128244-2.14434764 1.1845334-5.8515106 3.19678704-6.891575 3.53597516-.82293899.26840673-1.70765934-.18112533-1.97606608-1.00415807-.26840674-.82303275.18112533-1.70765935 1.00406432-1.97606609zM22.48113934 45.40418465c0-1.09397074.76359513-5.24241576 1.22484597-7.64832637.07246888-.37818819.6125636-.37818819.68503249 0 .46125084 2.40591061 1.22484597 6.55435563 1.22484597 7.64832637 0 .86559532-.70172002 1.56731534-1.56731534 1.56731534-.86568907.00009375-1.5674091-.70172002-1.5674091-1.56731534z" />
</svg>