<svg xmlns="http://www.w3.org/2000/svg" viewBox="0 0 48 48">
	<path fill="#00ACC1" d="M22.8 2.4C10.2 2.4 0 12.6 0 25.2 0 37.8 10.2 48 22.8 48c12.6 0 22.8-10.2 22.8-22.8 0-12.6-10.2-22.8-22.8-22.8zm0 34.8c-6.6 0-12-5.4-12-12s5.4-12 12-12 12 5.4 12 12-5.4 12-12 12z" />
	<path fill="#4DD0E1" d="M22.8 0v10.8c7.9218756 0 14.4 6.4781256 14.4 14.4 0 2.1609372-.4781244 4.2-1.3218744 6.1218756L45.6 35.8781256C47.1609372 32.6390628 48 29.0390628 48 25.2 48 11.2781256 36.7218756 0 22.8 0z" />
	<path fill="#0097A7" d="M43.4390628 34.8l-7.5609372-3.6C36.7218756 29.4 37.2 27.2390628 37.2 25.0781256c0-7.9171884-6.4781244-14.4-14.4-14.4V2.4c-.8390628 0-1.5609372 0-2.4.1218756V13.2h2.4c6.6 0 12 5.4 12 12 0 .4781256 0 .8390628-.1218744 1.3218756v.117192c0 .3609372-.117192.7218744-.2390628 1.0828128v.117192C34.2 28.8 33.9609372 29.6390628 33.4781256 30.4781256L32.6390628 32.4 34.8 33.3609372l7.4390628 3.4781256c.4828128-.6.8390628-1.3171872 1.2-2.0390628z" />
</svg>