<svg xmlns="http://www.w3.org/2000/svg" viewBox="0 0 48 48">
	<path fill="#FFA600" d="M47.609299 28.27613l-5.134604-4.52926 4.953009-4.72492c.18197-.17362.256876-.43041.196782-.67397-.06019-.24347-.246469-.43641-.488532-.50634l-6.592138-1.90238 2.43638-6.38027c.08953-.23437.04641-.49837-.112875-.69272-.159376-.19425-.410908-.28921-.659814-.24909l-6.775701 1.09238-.551064-6.80261c-.02025-.24994-.173062-.47016-.400782-.57759-.227719-.10744-.496032-.086-.703501.0563L28.12651 6.26148 24.69441.35109c-.126094-.21712-.359063-.35081-.611251-.35081-.252188 0-.485064.13369-.611158.35081l-3.939664 6.78452-6.8147-3.9331c-.218157-.12591-.48722-.12647-.705752-.002-.218719.12478-.353719.35615-.354375.60684l-.0165 6.82455-6.840483-.56382c-.2507817-.0206-.4945322.0935-.6381575.29944-.143719.20597-.1660316.4726-.058313.69928l2.9289432 6.17205-6.42310626 2.4076c-.2358754.0884-.406407.29531-.4474696.54272-.041063.24731.053906.49762.2490005.65653l5.30804156 4.32676L.95573784 30.0859c-.1749378.18047-.2399067.44007-.1702503.68101.06975.24093.26343796.42656.50803226.48693l6.6614192 1.64541-2.1839105 6.4698c-.08025.23765-.026813.49978.1400628.68775.1669691.18797.4220633.27309.669095.22331L13.3077 38.92608l.817596 6.77607c.02991.24891.191344.46294.423094.56157.231938.0986.499032.0668.700783-.0835l5.493386-4.09192 3.661413 5.58432c.129563.20429.355219.32738.596907.32738.0092 0 .01838-.00019.02766-.00056.251906-.01.479532-.15244.597001-.37425l3.197537-5.85048 5.797418 3.65382c.213094.13425.481595.14531.705189.0291.223313-.11625.367407-.34219.377813-.59269l.284157-6.81883 6.813201.82876c.24975.0304.497813-.0742.649501-.27441.151688-.20034.184313-.46585.08569-.69656l-2.684631-6.28099 6.512357-2.15653c.23925-.0792.417751-.27928.468469-.52491.05063-.24544-.03441-.49922-.222937-.66562z" />
	<path fill="#FFDB2D" d="M38.382874 23.877625a14.537747 14.526498 0 0 1-14.537747 14.526497A14.537747 14.526498 0 0 1 9.3073797 23.877625 14.537747 14.526498 0 0 1 23.845127 9.3511267 14.537747 14.526498 0 0 1 38.382874 23.877625z" />
</svg>