<svg xmlns="http://www.w3.org/2000/svg" viewBox="0 0 48 48">
	<path fill="#ECEFF1" d="M43.000031 7.9999688H24c-.107344 0-.213938.016875-.316031.049969l-.24.079969c-.524063.174375-.807563.7405312-.633188 1.2645.001.00319.0022.00628.0032.00947L32.865949 38.777908l-6.619968 7.564032c-.363375.415875-.320907 1.047656.09497 1.411031.182438.159469.416625.247219.658969.246937h16.000018C45.761437 48 48 45.761438 48 43.000031v-30c0-2.7615-2.238563-5.0000622-4.999969-5.0000622z" />
	<path fill="#1976D2" d="M34.909969 38.586c-.162282-.356812-.518063-.585937-.910031-.586031H24c-.552281 0-1.000031.44775-1.000031 1.000031 0 .120188.02166.239438.06403.352031l3 7.999969c.123844.329344.41175.569344.757969.631969.058782.010125.118313.015469.178032.016031.288281-.000281.562312-.124969.751969-.342L34.752 39.658031c.258469-.295406.32025-.714656.157969-1.072031z" />
	<path fill="#455A64" d="M43.000031 22.000031H28.999969c-.552282 0-1.000031-.44775-1.000031-1.000031 0-.552281.44775-1.000031 1.000031-1.000031h13.999969c.552281 0 1.000031.44775 1.000031 1.000031 0 .552281-.447656 1.000031-.999938 1.000031z" />
	<path fill="#455A64" d="M34.999969 22.000031c-.552282 0-1.000031-.44775-1.000031-1.000031v-1.999969c0-.552281.44775-1.000031 1.000031-1.000031C35.55225 18 36 18.44775 36 19.000031V21c0 .552281-.44775 1.000031-1.000031 1.000031zm-3 12c-.552282-.000468-.999657-.448593-.999094-1.000875.000281-.322781.156375-.625593.419156-.813093C35.800031 29.074031 39 22.729969 39 21c0-.552281.44775-1.000031 1.000031-1.000031.552281 0 1.000031.44775 1.000031 1.000031 0 2.635969-3.853968 9.571969-8.419968 12.814031-.169407.12075-.372094.185813-.580125.186z" />
	<path fill="#455A64" d="M40.000031 36c-.250219.000281-.491344-.09319-.676031-.262031-.724031-.664031-7.116-6.568031-8.25-9.361969-.208219-.511969.03806-1.09575.550031-1.303969.511969-.208218 1.09575.03806 1.303969.550032.817969 2.016 5.872031 6.919968 7.750031 8.638031.408656.371437.438844 1.003875.06741 1.412625-.190785.209812-.461816.328781-.74541.327281z" />
	<path fill="#2196F3" d="M34.945969 38.676L21.946031.67603125C21.807562.2716875 21.427406 0 21 0H4.9999687C2.2385625 0 0 2.2385625 0 4.9999688V34.999969c0 2.761406 2.2385625 4.999969 4.9999687 4.999969H33.999938c.552281 0 .999937-.44775.999937-1.000032.000094-.110156-.01819-.219656-.05391-.323906z" />
	<path fill="#FAFAFA" d="M19.000031 28.000031c-.422812.000094-.799968-.265781-.942-.664031l-4.057968-11.364-4.0579692 11.364c-.2065313.51225-.7891875.760031-1.3014376.5535-.4832812-.194812-.7359374-.728156-.5805937-1.2255l4.9999685-13.999969c.244594-.519656.864188-.742687 1.383844-.498187.218906.103031.395063.279187.498188.498187L19.942031 26.664c.186188.518531-.08213 1.090031-.6 1.278-.109875.03891-.225562.0585-.342.05803z" />
	<path fill="#FAFAFA" d="M16.000031 22.000031H12c-.552281 0-1.000031-.44775-1.000031-1.000031 0-.552281.44775-1.000031 1.000031-1.000031h4.000031c.552281 0 1.000031.44775 1.000031 1.000031-.000093.552281-.44775 1.000031-1.000031 1.000031z" />
</svg>