<svg xmlns="http://www.w3.org/2000/svg" viewBox="0 0 48 48">
	<path fill="#E38939" d="M17.42487924 45.11052384L5.91812762 11.22250808c-.75868692-2.27606076.50579128-4.67856934 2.78185204-5.43725626L25.13819626.22154774c2.27606076-.75868692 4.80501716.50579128 5.56370408 2.65540422l11.50675162 33.88801576c.75868692 2.27606076-.50579128 4.67856934-2.78185204 5.43725626l-16.4382166 5.56370408c-2.40250858.75868692-4.80501716-.37934346-5.56370408-2.65540422" />
	<path fill="#42A5F5" d="M12.1140708 40.4319545c-.50579128 0-1.01158256-.37934346-1.13803038-.88513474l-7.5868692-21.4961294c-.25289564-.6322391.12644782-1.39092602.75868692-1.64382166s1.39092602.12644782 1.64382166.75868692l7.5868692 21.4961294c.25289564.6322391-.12644782 1.39092602-.75868692 1.64382166-.25289564.12644782-.37934346.12644782-.50579128.12644782zm-5.56370408-2.5289564c-.50579128 0-1.01158256-.37934346-1.13803038-.88513474l-4.55212152-12.644782c-.25289564-.6322391.12644782-1.39092602.75868692-1.64382166s1.39092602.12644782 1.64382166.75868692l4.55212152 12.644782c.25289564.6322391-.12644782 1.39092602-.75868692 1.64382166-.25289564.12644782-.37934346.12644782-.50579128.12644782zm36.29052434-7.5868692c-.50579128 0-1.01158256-.37934346-1.13803038-.88513474l-6.70173446-20.2316512c-.25289564-.6322391.12644782-1.39092602.75868692-1.64382166s1.39092602.12644782 1.64382166.75868692l6.70173446 20.2316512c.25289564.6322391-.12644782 1.39092602-.75868692 1.64382166-.25289564.12644782-.37934346.12644782-.50579128.12644782zm3.03474768-5.0579128c-.50579128 0-1.01158256-.37934346-1.13803038-.88513474l-4.17277806-12.644782c-.25289564-.6322391.12644782-1.39092602.75868692-1.64382166s1.39092602.12644782 1.64382166.75868692l4.17277806 12.644782c.25289564.6322391-.12644782 1.39092602-.75868692 1.64382166-.25289564.12644782-.37934346.12644782-.50579128.12644782z" />
	<path fill="#FFF3E0" d="M26.14977882 3.25629542L9.71156222 8.8199995c-.50579128.25289564-.88513474.75868692-.6322391 1.39092602L19.44804436 41.0641936c.25289564.50579128.75868692.88513474 1.39092602.6322391l16.4382166-5.56370408c.50579128-.25289564.88513474-.75868692.6322391-1.39092602L27.54070484 3.88853452c-.12644782-.50579128-.75868692-.75868692-1.39092602-.6322391" />
	<path fill="#A6642A" d="M31.58703508 41.44353706c.25289564.88513474-.12644782 1.77026948-1.01158256 2.02316512-.88513474.25289564-1.77026948-.12644782-2.02316512-1.01158256-.25289564-.88513474.12644782-1.77026948 1.01158256-2.02316512.88513474-.37934346 1.77026948.12644782 2.02316512 1.01158256" />
</svg>