<svg xmlns="http://www.w3.org/2000/svg" viewBox="0 0 48 48">
	<path fill="#F7F7FB" d="M46.717103 24.000174c-10.785052 16.177579-34.573048 16.177579-45.3580996 0 10.7850516-16.177576 34.5295586-16.177576 45.3580996 0" />
	<path fill="#FFFFFF" d="M5.0989808 27.78364C14.31846 13.954421 33.018347 11.953968 45.021065 21.782281 33.627181 7.866086 11.622197 8.605383 1.3155154 24.000174c1.5655718 2.347923 3.3920723 4.348811 5.4360136 6.001359-.5653455-.695809-1.130691-1.435107-1.6525482-2.217893" />
	<path fill="#7CA5C6" d="M31.757192 13.04117c2.218328 2.08743 3.609512 5.001133 3.609512 8.30623 0 6.262287-5.088108 11.350396-11.350396 11.350396-6.262287 0-11.350396-5.088109-11.350396-11.350831 0-3.348585 1.478596-6.349264 3.783466-8.436694 5.305549-1.826066 10.393658-1.913042 15.307814.130899" />
	<path fill="#7196B4" d="M24.051969 11.533438c-.313549 0-.627099.007-.941518.02044-.260928.01392-.521857.03262-.783656.05653 1.896952.177431 3.793033.654496 5.646931 1.430759 2.217894 2.087429 3.609514 5.001132 3.609514 8.306229 0 5.609966-4.087883 10.263193-9.43692 11.176444.608833.08698 1.261155.173952 1.869988.173952 6.262288 0 11.350396-5.088109 11.350396-11.350831 0-1.773445-.400526-3.434256-1.114601-4.915461-.61666-1.278986-1.466852-2.423593-2.494911-3.390768-2.518396-1.028057-5.095067-1.507296-7.705223-1.507296" />
	<path fill="#454B54" d="M24.016308 25.435282c-2.261381 0-4.087882-1.826501-4.087882-4.087882 0-2.261382 1.826501-4.087883 4.087882-4.087883 2.261382 0 4.087883 1.826501 4.087883 4.087883 0 2.261381-1.826501 4.087882-4.087883 4.087882z" />
	<path fill="#FFFFFF" d="M20.711212 20.521125c-1.348131 0-2.478822-1.13069-2.478822-2.478822 0-1.348131 1.130691-2.478822 2.478822-2.478822 1.348132 0 2.478823 1.130691 2.478823 2.478822 0 1.348132-1.087203 2.478822-2.478823 2.478822z" />
	<path fill="#454B54" d="M47.804303 23.260876c-5.349037-7.958324-14.22061-12.698528-23.787995-12.698528-9.567384 0-18.438958 4.740204-23.78799543 12.698528-.30441676.434881-.30441676 1.000227 0 1.435108C5.57735 32.697796 14.448924 37.438 24.016308 37.438c9.567385 0 18.438958-4.739769 23.787995-12.698528.260929-.478369.260929-1.043715 0-1.478596zm-16.786409-9.132503c1.956965 1.913477 3.00068 4.435787 3.00068 7.175538 0 5.52299-4.522764 10.045754-10.045754 10.045754-5.52299 0-10.045753-4.522764-10.045753-10.045754 0-2.696263 1.087203-5.305549 3.044168-7.175538 2.261381-.608833 4.609739-.956738 7.001585-.956738 2.435335 0 4.783693.347905 7.045074.956738zm-7.001586 20.700341c-8.393205 0-16.2210643-4.044395-21.0917328-10.82854 2.5657988-3.566025 5.9143831-6.349699 9.7413368-8.219252-.826274 1.696036-1.261155 3.609513-1.261155 5.522989 0 6.958098 5.653454 12.65504 12.655039 12.65504 6.958098 0 12.655476-5.653454 12.655476-12.65504 0-1.913476-.43488-3.826953-1.261155-5.522989 3.826954 1.869988 7.175539 4.653227 9.741334 8.219252-4.958078 6.784145-12.785937 10.82854-21.179143 10.82854z" />
</svg>