<svg xmlns="http://www.w3.org/2000/svg" viewBox="0 0 48 48">
	<path fill="#27A2DB" d="M19.942759 33.456561l8.94765-26.22068c.21543-.63115-.120898-1.31729-.751269-1.53232L11.615519.06489099c-.630273-.21514-1.315819.12226-1.531249.75342L1.1366203 27.038991c-.21542954.63125.1208983 1.31728.751269 1.53232l16.5237187 5.63867c.630273.21514 1.315722-.12217 1.531151-.75342z" />
	<path fill="#FCD462" d="M24.916975 11.365561l1.281639-3.75566c.07051-.20664-.03965-.43115-.245898-.50156l-3.75029-1.27978c-.206348-.0704-.430664.0399-.501172.24658l-1.28164 3.75566c-.07051.20654.03955.43115.245899.50156l3.75029 1.27979c.20625.0704.430761-.04.501172-.24659z" />
	<path fill="#E56353" d="M2.88790306 25.4064595a1.550977 1.5490239-71.15557 0 1 1.96695995-.96750895 1.550977 1.5490239-71.15557 0 1 .96502981 1.96817745 1.550977 1.5490239-71.15557 0 1-1.96695995.96750894 1.550977 1.5490239-71.15557 0 1-.96502981-1.96817745z" />
	<path fill="#FCD462" d="M3.54253107 23.49319646a1.550977 1.5490239-71.15557 0 1 1.96695995-.96750894 1.550977 1.5490239-71.15557 0 1 .96502981 1.96817745 1.550977 1.5490239-71.15557 0 1-1.96695995.96750894 1.550977 1.5490239-71.15557 0 1-.96502981-1.96817745z" />
	<path fill="#FFFFFF" d="M15.78964929 11.92741002L18.3232418 4.5039055l.90712005.30959401-2.53359252 7.42350452zM11.41170781 5.21742798l.93912814-2.75167451.90712005.30959402-.93912814 2.7516745zM9.71840116 10.18318246l.93912807-2.75167433.90712005.30959402-.93912807 2.75167433zM8.02389876 15.1465569l.93912804-2.75167423.90712005.30959401-.93912804 2.75167424zM6.33336305 20.11001435l.93912817-2.7516746.90712005.30959402-.93912816 2.7516746zM11.98511517 14.7962659l3.80685511-11.15420335.90712043.30959414-3.80685512 11.15420335z" />
	<path fill="#3EA69B" d="M46.22091946 14.31242201L18.10326554 41.6342179l-13.9065482-14.3116328L32.31437125.00078924z" />
	<path fill="#44C4A1" d="M17.087195 38.540841l-9.8281181-10.11503c.5941402-.57735.6078121-1.52696.030469-2.1211L31.211404 3.061371c.577343.59414 1.526952.60781 2.121092.0305l9.828118 10.11503c-.59414.57734-.607812 1.52695-.03047 2.12109l-23.921857 23.24332c-.577343-.59414-1.526952-.60782-2.121092-.0305z" />
	<path fill="#3EA69B" d="M20.46510726 15.93350998a5.37755965 6.8070837-44.1775515 0 1 8.60044683 1.13439305 5.37755965 6.8070837-44.1775515 0 1 .8870511 8.6294662 5.37755965 6.8070837-44.1775515 0 1-8.60044752-1.13439374 5.37755965 6.8070837-44.1775515 0 1-.8870504-8.6294655zM37.3506578 10.20188914a1.21650303 1.21650303 0 0 1-1.21650304 1.21650304 1.21650303 1.21650303 0 0 1-1.21650303-1.21650304 1.21650303 1.21650303 0 0 1 1.21650303-1.21650274 1.21650303 1.21650303 0 0 1 1.21650304 1.21650274zM15.5028219 31.42941397a1.21650303 1.21650303 0 0 1-1.21650304 1.21650303 1.21650303 1.21650303 0 0 1-1.21650303-1.21650303 1.21650303 1.21650303 0 0 1 1.21650303-1.21650304 1.21650303 1.21650303 0 0 1 1.21650304 1.21650304z" />
	<path fill="#44C4A1" d="M28.821562 24.950421l-.672754-.69239c-.952733.75391-2.065721 1.16524-3.33779 1.2337l-.109375-1.49795c.979589-.0544 1.793163-.31065 2.442869-.76934l-1.788085-1.84023c-.880565.52392-1.622166.80781-2.22451.85205-.602343.0442-1.16914-.20713-1.700584-.754-.531348-.54688-.775391-1.1795-.730762-1.89961.04502-.71973.358789-1.39307.941699-2.021l-.460937-.47431.606738-.58955.469921.48359c.745019-.6248 1.632909-1.02686 2.664549-1.20537l.231152 1.47197c-.706347.10859-1.336034.36397-1.891014.76738l1.732616 1.78311.02852-.0277c.893262-.53554 1.651757-.82373 2.275292-.86464.624706-.0412 1.205565.21523 1.742967.76835.537793.55352.779687 1.19483.725097 1.92315-.05391.7291-.387695 1.42197-1.002245 2.08056l.663379.68281zm-6.61816-5.47217c-.02334.29883.06855.55391.274414.76582.205859.21192.431933.31787.678125.31797.2458.001.601757-.11426 1.066698-.34463l-1.59453-1.64111c-.260058.30225-.401758.60273-.424707.90195zm6.03818 2.21875c.03574-.31689-.05361-.58642-.268848-.80801-.214843-.22119-.45498-.32929-.719921-.32392-.265723.006-.643261.13652-1.13291.39092l1.658691 1.70712c.272949-.32607.426757-.64804.462988-.96611z" />
	<path fill="#FCD462" d="M45.383855 11.673281H1.8681627C.83652285 11.673281 0 12.509701 0 13.541541v32.59021c0 1.03174.83652285 1.86826 1.8681627 1.86826H45.383757c1.031738 0 1.86826-.83643 1.86826-1.86826v-32.59021c.000098-1.03184-.836425-1.86826-1.868162-1.86826z" />
	<path fill="#DC8744" d="M43.42799621 45.81807455h-1.05849533v-.87275328h1.05771409c.1508788-.00039063.29658181-.04384763.4227536-.12617179l.47724575.73037058c-.26689434.17519518-.57792927.2680662-.8992181.26855449zm-2.81591595 0H38.8538784v-.87275328h1.75820186zm-3.51562248 0h-1.75742061v-.87275328h1.75742061zm-3.51562248 0H31.8234147v-.87275328h1.75742061zm-3.51484123 0h-1.75820186v-.87275328h1.75820186zm-3.51562248 0h-1.75742061v-.87275328h1.75742061zm-3.51474357 0h-1.75820187v-.87275328h1.75820187zm-3.51562248 0h-1.75742062v-.87275328h1.75742062zm-3.51562248 0h-1.75742062v-.87275328h1.75742062zm-3.51474358 0h-1.75820186v-.87275328h1.75820186zm-3.51562248 0H7.2165964v-.87275328H8.974017zm-3.51562248 0H3.82538788c-.05712886 0-.11416007-.00302734-.16962878-.00898437l.09033196-.8675775 1.7122058.00380859v.87275328zM2.182225 44.18936478v-1.77187373h.87275328v1.75781124zm42.8880552-.57578084h-.87275329V41.8557727h.87275328zm-42.01530192-2.9535135H2.182225v-1.75781125h.87275328zm42.01530191-.5616207h-.87275328V38.3406385h.87275328zM3.05497828 37.14444795H2.182225v-1.75742061h.87275328zm42.01530191-.56162069h-.87275328v-1.75742061h.87275328zM3.05497828 33.6292161H2.182225v-1.75781124h.87275328zm42.01530191-.5616207h-.87275328v-1.7574206h.87275328zM3.05497828 30.1140819H2.182225v-1.75781124h.87275328zm42.01530191-.5616207h-.87275328v-1.75781123h.87275328zM3.05497828 26.59845943H2.182225v-1.75742061h.87275328zm42.01530191-.56123007h-.87275328v-1.75781124h.87275328zM3.05497828 23.08322757H2.182225v-1.75781124h.87275328zm42.01530191-.5616207h-.87275328v-1.75742061h.87275328zm-42.01530191-2.9535135H2.182225v-1.75781124h.87275328zm42.01530191-.56171835h-.87275328v-1.75781124h.87275328zm-42.01530191-2.9535135H2.182225v-.55478477c0-.558691.2803709-1.07431563.74999946-1.37939354l.4755856.73212838c-.22070297.14316396-.35283178.38525363-.35283178.64726516zm41.14254863-.55908164c-.00253906-.39208956-.29746072-.71884714-.68603466-.76103461l.09374993-.8675775c.83095644.08994134 1.4608388.78789006 1.46503801 1.62353399zm-2.39658031-.76581976h-1.75742062v-.87275328h1.75742062zm-3.51562248 0H36.5279035v-.87275328h1.75742062zm-3.51474357 0h-1.75820187v-.87275328h1.75820187zm-3.51562248 0h-1.75742062v-.87275328h1.75742062zm-3.51562248 0h-1.75742062v-.87275328h1.75742062zm-3.51474358 0h-1.75820186v-.87275328H24.224592zm-3.51562248 0h-1.75742061v-.87275328h1.75742061zm-3.51562248 0h-1.75742061v-.87275328h1.75742061zm-3.51484123 0h-1.75820186v-.87275328h1.75820186zm-3.51562248 0H8.40556038v-.87275328H10.162981v.87275328zm-3.51562248 0H4.8899379v-.87275328h1.75742062v.87275328z" />
	<path fill="#DC8744" d="M47.63189945 26.43683844h-7.84061938c-1.92870955 0-3.48232172 1.60595588-3.39638428 3.55361074.08183588 1.8559557 1.76054561 3.24599376 3.61825912 3.24599376h7.61874454c.20332017 0 .36806614-.16484363.36806614-.36806614V26.8049046c0-.20332017-.16474597-.36806615-.36806614-.36806615z" />
	<path fill="#64798A" d="M42.195479 29.836548a2.4254866 2.4254866 0 0 1-2.425486 2.425486 2.4254866 2.4254866 0 0 1-2.425487-2.425486 2.4254866 2.4254866 0 0 1 2.425487-2.425487 2.4254866 2.4254866 0 0 1 2.425486 2.425487z" />
	<path fill="#3A556A" d="M40.956123 28.405791c.139356.26142.225782.55527.225782.87226 0 1.03115-.835937 1.86699-1.866991 1.86699-.453027 0-.862695-.16787-1.186035-.43623.313965.58916.927148.99482 1.641405.99482 1.031054 0 1.866894-.83593 1.866894-1.86699-.000098-.57812-.26836-1.08837-.681055-1.43085z" />
</svg>